<?xml version="1.0" encoding="utf-8"?>
<!-- Generator: Adobe Illustrator 25.2.1, SVG Export Plug-In . SVG Version: 6.00 Build 0)  -->
<svg version="1.1" id="圖層_1" xmlns="http://www.w3.org/2000/svg" xmlns:xlink="http://www.w3.org/1999/xlink" x="0px" y="0px"
	 viewBox="0 0 60 60" style="enable-background:new 0 0 60 60;" xml:space="preserve">
<style type="text/css">
	.st0{fill:#25AF8F;}
</style>
<path class="st0" d="M32.5,9.1l-4.1,7.1l1.3,2.3l0.6,1.1l0,0l0.1,0.1v0l0.7,1.2l1.4,2.4h8.2l4.1-7.1l-4.1-7.1H32.5z M32.3,15.9
	l-0.3,0.5c-0.1,0.2-0.3,0.3-0.5,0.3c-0.1,0-0.2,0-0.3-0.1c-0.3-0.1-0.3-0.5-0.2-0.7l0.3-0.5c0.1-0.3,0.5-0.3,0.7-0.2
	C32.4,15.3,32.5,15.7,32.3,15.9z M40.1,12.2L40.1,12.2l-5.7,0l-1.4,2.4c-0.1,0.2-0.3,0.3-0.5,0.3c-0.1,0-0.2,0-0.3-0.1
	c-0.3-0.1-0.3-0.5-0.2-0.7l1.5-2.7c0.1-0.2,0.3-0.3,0.5-0.3h0l6,0c0.3,0,0.5,0.2,0.5,0.5C40.6,12,40.4,12.2,40.1,12.2z"/>
<path class="st0" d="M54.8,15.2l4.1-7.1L54.8,1h-8.2l-4.1,7.2l4.1,7.1H54.8z M46.4,6.2l1.5-2.7c0.1-0.2,0.3-0.3,0.5-0.3h6
	c0.3,0,0.5,0.2,0.5,0.5s-0.2,0.5-0.5,0.5h-5.7l-1.3,2.5C47.2,6.9,47.1,7,46.9,7c-0.1,0-0.2,0-0.3-0.1C46.4,6.8,46.3,6.4,46.4,6.2z
	 M45.9,8.8c-0.1,0-0.2,0-0.3-0.1c-0.3-0.1-0.4-0.5-0.2-0.7l0.3-0.5c0.1-0.3,0.5-0.3,0.7-0.2c0.3,0.1,0.4,0.5,0.2,0.7l-0.3,0.5
	C46.3,8.7,46.1,8.8,45.9,8.8z"/>
<path class="st0" d="M4.3,25.9L0.2,33l1.3,2.3l0.6,1.1l0,0l0.1,0.1l0,0l0.7,1.2l1.4,2.4h8.2l4.1-7.1l-4.1-7.1H4.3z M4.1,32.8
	l-0.3,0.5c-0.1,0.2-0.3,0.3-0.5,0.3c-0.1,0-0.2,0-0.3-0.1c-0.3-0.1-0.3-0.5-0.2-0.7l0.3-0.5C3.3,32,3.7,31.9,3.9,32
	S4.3,32.5,4.1,32.8z M11.9,29.1L11.9,29.1l-5.7,0l-1.4,2.4c-0.1,0.2-0.3,0.3-0.5,0.3c-0.1,0-0.2,0-0.3-0.1c-0.3-0.1-0.3-0.5-0.2-0.7
	l1.5-2.7c0.1-0.2,0.3-0.3,0.5-0.3l6,0c0.3,0,0.5,0.2,0.5,0.5C12.4,28.8,12.2,29.1,11.9,29.1z"/>
<path class="st0" d="M18.5,17.6l-4.1,7.1l4.1,7.1h8.2l4.1-7.1l-4.1-7.1L18.5,17.6L18.5,17.6z M27.2,27.2l-1.5,2.7
	c-0.1,0.2-0.3,0.3-0.5,0.3h-6c-0.3,0-0.5-0.2-0.5-0.5s0.2-0.5,0.5-0.5h5.7l1.3-2.5c0.1-0.3,0.5-0.4,0.7-0.2
	C27.2,26.6,27.3,26.9,27.2,27.2z M27,25.3l0.3-0.5c0.1-0.3,0.5-0.3,0.7-0.2c0.3,0.1,0.4,0.5,0.2,0.7l-0.3,0.5
	c-0.1,0.2-0.3,0.3-0.5,0.3c-0.1,0-0.2,0-0.3-0.1C26.9,25.9,26.8,25.6,27,25.3z"/>
<path class="st0" d="M26.7,15.2l4.1-7.1L26.7,1h-8.2l-4.1,7.2l4.1,7.1H26.7z M18.4,6.2l1.5-2.7c0.1-0.2,0.3-0.3,0.5-0.3h6
	c0.3,0,0.5,0.2,0.5,0.5s-0.2,0.5-0.5,0.5h-5.6l-1.3,2.5C19.2,6.9,19,7,18.9,7c-0.1,0-0.2,0-0.3-0.1C18.3,6.8,18.2,6.4,18.4,6.2z
	 M17.9,8.8c-0.1,0-0.2,0-0.3-0.1c-0.3-0.1-0.4-0.5-0.2-0.7l0.3-0.5c0.1-0.3,0.5-0.4,0.7-0.2c0.3,0.1,0.4,0.5,0.2,0.7l-0.3,0.5
	C18.2,8.7,18.1,8.8,17.9,8.8z"/>
<path class="st0" d="M46.5,18.1l-4.1,7.1l4.1,7.1h8.2l4.1-7.1l-4.1-7.1C54.7,18.1,46.5,18.1,46.5,18.1z M55.2,27.6l-1.5,2.7
	c-0.1,0.2-0.3,0.3-0.5,0.3h-6c-0.3,0-0.5-0.2-0.5-0.5s0.2-0.5,0.5-0.5h5.7l1.3-2.5c0.1-0.3,0.5-0.3,0.7-0.2
	C55.2,27,55.3,27.4,55.2,27.6z M55,25.8l0.3-0.5c0.1-0.3,0.5-0.4,0.7-0.2c0.3,0.1,0.4,0.5,0.2,0.7l-0.3,0.5
	c-0.1,0.2-0.3,0.3-0.5,0.3c-0.1,0-0.2,0-0.3-0.1C54.9,26.4,54.8,26.1,55,25.8z"/>
<g>
	<path class="st0" d="M37.4,47c-0.1,0.6-0.2,1.2-0.3,1.8l7.7-2.3c-0.4-0.4-0.9-0.8-1.3-1.3L37.4,47z"/>
	<path class="st0" d="M38,42.9c0.5,0,0.9-0.1,1.4-0.2c0.5-0.1,0.9-0.3,1.3-0.6c-1.1-1.3-1.9-2.4-2.5-3.2
		C38.2,39.8,38.2,41.2,38,42.9z"/>
	<path class="st0" d="M32.7,33.8C32.7,33.8,32.6,33.8,32.7,33.8c-0.2-0.2-0.5,0-0.7,0.3c-0.2,0.3-0.2,0.6-0.1,0.7c0,0,0.1,0,0.2,0
		C32.3,34.5,32.4,34.1,32.7,33.8z"/>
	<path class="st0" d="M41.9,32.6c0.1-0.1,0-0.4-0.2-0.7s-0.6-0.3-0.7-0.2c0,0-0.1,0.1,0,0.2C41.3,32.1,41.6,32.4,41.9,32.6
		C41.9,32.6,41.9,32.6,41.9,32.6z"/>
	<path class="st0" d="M39.7,43.6c-0.6,0.2-1.2,0.3-1.8,0.3c-0.1,0.6-0.2,1.2-0.3,1.9l5.1-1.6c-0.5-0.5-0.9-1-1.3-1.4
		C40.9,43.2,40.3,43.4,39.7,43.6z"/>
	<path class="st0" d="M37.2,38c-1,0.6-2.7,1.8-4.6,3.2c0,0,0,0,0,0c0,0,0,0,0,0c-1.1,0.9-5.8,5.6-5.8,5.6c-0.7,0.9-1.2,1.8-1.4,2.5
		c-0.5,1.6,1.5,4.7,2.5,6c1.3-0.1,6.8-0.9,7.8-4.6C37.1,44.7,37.2,39.9,37.2,38z"/>
	<path class="st0" d="M54.9,40.3c-3.7-2.8-13.2-2.9-16.2-2.8c1.1,1.6,3.9,5.5,8.5,9.7c2.9,2.6,7.7,0,8.8-0.6
		C56.1,45,56.1,41.3,54.9,40.3z"/>
	<path class="st0" d="M36.6,51c-0.1,0.3-0.2,0.7-0.3,1l11.1-3.4c-0.3-0.2-0.6-0.4-0.9-0.6c-0.3-0.3-0.5-0.5-0.8-0.8l-8.8,2.7
		C36.8,50.3,36.7,50.7,36.6,51z"/>
	<path class="st0" d="M39.2,55.3c2,1.7,3.5,2.4,4.3,2.8l0.2,0.6c0.1,0.2,0.2,0.3,0.4,0.3c-0.1,0.1-0.2,0.3-0.1,0.5l0,0.1
		c0.1,0.2,0.3,0.4,0.5,0.4c0.1,0,0.1,0,0.2,0c0.3-0.1,0.4-0.4,0.3-0.7l0-0.1c-0.1-0.2-0.2-0.3-0.4-0.3c0.1-0.1,0.2-0.3,0.1-0.5
		l-0.2-0.6c0.9-1.1,1.7-3,2.2-4.8L39.2,55.3z"/>
	<path class="st0" d="M50.8,51.6l-3.3-1.9l-0.1,0.2c0-0.1,0-0.2,0.1-0.2L36.7,53c0,0,0,0,0,0l-1.6,3.4c-0.1,0.2-0.1,0.3,0,0.5
		l0.8,1.4c0.1,0.2,0.3,0.3,0.5,0.3c0.1,0,0.2,0,0.3-0.1c0.3-0.1,0.3-0.5,0.2-0.7l-0.6-1.1l1.4-2.8c0.2,0.2,0.5,0.5,0.7,0.7l8.8-2.8
		c0.1-0.3,0.1-0.6,0.2-0.9l2.8,1.6l0.1,1.3c0,0.3,0.3,0.5,0.5,0.5c0,0,0,0,0.1,0c0.3,0,0.5-0.3,0.5-0.6L51.1,52
		C51.1,51.8,51,51.6,50.8,51.6z"/>
	<path class="st0" d="M31.2,32.5c0.3-0.1,0.5-0.3,0.6-0.5c0.8,0.4,1.3,0.9,1.5,1.3c-0.2,0.2-0.3,0.4-0.5,0.6c0,0.3,0,0.5-0.2,0.7
		c-0.1,0.2-0.3,0.3-0.5,0.4c-0.5,1.2-0.6,2.6-0.2,3.9c0.1,0.4,0.3,0.8,0.5,1.2c2.6-2,4.9-3.4,5-3.4h0l0,0c0,0,0.1,0,0.1,0
		c0,0,0.1,0,0.1,0c0.2,0,2.8-0.1,6.1,0c0-0.4-0.1-0.8-0.2-1.3c-0.3-1-0.9-1.8-1.6-2.5c-0.3,0-0.6-0.1-0.9-0.3
		c-0.2-0.1-0.3-0.3-0.3-0.5c0,0,0,0,0,0c-0.7-0.4-1.5-0.6-2.3-0.6c-0.1-1,0.2-1.8,0.5-2.4c0.3,0.3,0.8,0.4,1.2,0.2
		c0.6-0.2,0.9-1,0.7-1.6s-1-0.9-1.6-0.7c-0.4,0.1-0.6,0.5-0.7,0.8c-0.4,0.5-1.3,1.8-1.2,3.6c-0.4,0-0.8,0.1-1.2,0.2
		c-0.7,0.2-1.4,0.6-2,1c-0.4-0.6-1.1-1.2-2.2-1.6c-0.3-0.6-0.9-0.9-1.5-0.6c-0.6,0.2-0.9,1-0.7,1.6C29.8,32.5,30.5,32.8,31.2,32.5z"
		/>
</g>
</svg>
