<?xml version="1.0" encoding="utf-8"?>
<!-- Generator: Adobe Illustrator 25.0.0, SVG Export Plug-In . SVG Version: 6.00 Build 0)  -->
<svg version="1.1" id="圖層_1" xmlns="http://www.w3.org/2000/svg" xmlns:xlink="http://www.w3.org/1999/xlink" x="0px" y="0px"
	 viewBox="0 0 56.7 56.7" style="enable-background:new 0 0 56.7 56.7;" xml:space="preserve">
<g>
	<path d="M34.9,24.1c-1.3-2.6-4.4-3.7-7-2.4c-1.2-2.4-3.9-3.5-6.4-2.7v-11c0-2.9-2.3-5.4-5.1-5.5c-2.9-0.1-5.4,2.3-5.4,5.4v27.7
		l-2-2.2c-2-2.1-5.3-2.3-7.3-0.3c-2.2,2-2.3,5.5-0.3,7.7l11.8,13c1.6,1.8,4,2.8,6.4,2.8h14.2c4.8,0,8.7-4,8.7-9V29
		C42.5,25,38.4,22.4,34.9,24.1z M39,47.7c0,3-2.3,5.4-5.2,5.4H19.6c-1.4,0-2.8-0.6-3.8-1.7c0,0-11.7-12.9-11.8-13
		c-0.7-0.7-0.6-1.9,0.1-2.6c0.7-0.6,1.8-0.6,2.5,0.1l5,5.5c1.1,1.2,3,0.4,3-1.2V8c0-1,0.8-1.8,1.8-1.8c0.9,0,1.7,0.9,1.7,1.9
		c0,19.8,0,10.8,0,21.5c0,1,0.8,1.8,1.8,1.8c1,0,1.8-0.8,1.8-1.8v-5.7c0.2-0.8,0.9-1.5,1.7-1.5c1,0,1.7,0.8,1.7,1.8v5.4
		c0,1,0.8,1.8,1.7,1.8c1,0,1.7-0.8,1.7-1.8v-3c0-1,0.8-1.8,1.7-1.8s1.7,0.8,1.7,1.8v3c0,1,0.8,1.8,1.7,1.8s1.7-0.8,1.7-1.8V29
		c0-1,0.8-1.8,1.7-1.8S39,28,39,29V47.7z"/>
	<path d="M47.2,0H9.5C4.3,0,0,4.4,0,9.8c0,5.4,4.3,9.8,9.5,9.8h3V7.9c0-2.2,1.7-4,3.8-4c2.1,0,3.8,1.8,3.8,4v11.7h26.9
		c5.2,0,9.5-4.4,9.5-9.8C56.7,4.4,52.4,0,47.2,0z M47.1,7.7l-6.6,6.7c-0.3,0.3-0.7,0.5-1.1,0.5c-0.4,0-0.7-0.1-1-0.4l-4.3-3.6
		c-0.7-0.6-0.8-1.6-0.2-2.3c0.6-0.7,1.5-0.8,2.2-0.2l3.2,2.7l5.6-5.7c0.6-0.6,1.6-0.6,2.2,0C47.7,6,47.7,7.1,47.1,7.7z"/>
</g>
</svg>
