<?xml version="1.0" encoding="utf-8"?>
<!-- Generator: Adobe Illustrator 24.3.0, SVG Export Plug-In . SVG Version: 6.00 Build 0)  -->
<svg version="1.1" id="圖層_1" xmlns="http://www.w3.org/2000/svg" xmlns:xlink="http://www.w3.org/1999/xlink" x="0px" y="0px"
	 viewBox="0 0 48 48" style="enable-background:new 0 0 48 48;" xml:space="preserve">
<style type="text/css">
	.st0{fill:none;}
</style>
<path class="st0" d="M0-0.5h48v48H0V-0.5z"/>
<path d="M24,0.5C11,0.5,0.5,11,0.5,24S11,47.5,24,47.5C37,47.5,47.5,37,47.5,24C47.5,11,37,0.5,24,0.5z M35,29.1
	c-1.1,1.1-2.9,1.1-4,0L24,22l-7,7.1c-1.1,1.1-2.9,1.1-4,0c-1.1-1.1-1.1-2.9,0-4l9-9.1c1.1-1.1,2.9-1.1,4,0l9,9.1
	C36.1,26.2,36.1,28,35,29.1z"/>
</svg>
