<?xml version="1.0" encoding="utf-8"?>
<!-- Generator: Adobe Illustrator 25.0.0, SVG Export Plug-In . SVG Version: 6.00 Build 0)  -->
<svg version="1.1" id="圖層_1" xmlns="http://www.w3.org/2000/svg" xmlns:xlink="http://www.w3.org/1999/xlink" x="0px" y="0px"
	 viewBox="0 0 56.7 56.7" style="enable-background:new 0 0 56.7 56.7;" xml:space="preserve">
<style type="text/css">
	.st0{stroke:#000000;stroke-miterlimit:10;}
</style>
<g>
	<g>
		<path class="st0" d="M52.5,18.9c-1.7-1.7-4.6-1.7-6.3,0c-0.5,0.5-4,4-4.5,4.5V11.5c0-1.2-0.5-2.3-1.3-3.2l-4.2-4.2
			c-0.8-0.8-2-1.3-3.2-1.3H7.3c-2.5,0-4.5,2-4.5,4.5v42.1c0,2.5,2,4.5,4.5,4.5h29.9c2.5,0,4.5-2,4.5-4.5V36.1l10.8-10.8
			C54.3,23.5,54.3,20.6,52.5,18.9z M32.7,5.8c0.3,0,0.8,0,1.3,0.4l4.2,4.2c0.5,0.5,0.4,1,0.4,1.3h-6V5.8z M38.7,49.4
			c0,0.8-0.7,1.5-1.5,1.5H7.3c-0.8,0-1.5-0.7-1.5-1.5V7.3c0-0.8,0.7-1.5,1.5-1.5h22.4v7.5c0,0.8,0.7,1.5,1.5,1.5h7.5v11.6
			c0,0-4.4,4.4-4.4,4.4l-2.1,2.1c-0.2,0.2-0.3,0.4-0.4,0.6l-2.1,6.3c-0.2,0.5,0,1.1,0.4,1.5c0.4,0.4,1,0.5,1.5,0.4l6.3-2.1
			c0.2-0.1,0.4-0.2,0.6-0.4l0.2-0.2L38.7,49.4L38.7,49.4z M35.4,34l2.1,2.1l-0.8,0.8l-3.2,1.1l1.1-3.2L35.4,34z M39.6,34l-2.1-2.1
			c1.1-1.1,6.1-6.1,7.2-7.2l2.1,2.1L39.6,34z M50.4,23.1l-1.5,1.5l-2.1-2.1l1.5-1.5c0.6-0.6,1.5-0.6,2.1,0
			C51,21.6,51,22.5,50.4,23.1z"/>
	</g>
</g>
<g>
	<g>
		<path class="st0" d="M31.2,17.8H10.3c-0.8,0-1.5,0.7-1.5,1.5c0,0.8,0.7,1.5,1.5,1.5h20.9c0.8,0,1.5-0.7,1.5-1.5
			C32.7,18.5,32.1,17.8,31.2,17.8z"/>
	</g>
</g>
<g>
	<g>
		<path class="st0" d="M25.3,26.8H10.3c-0.8,0-1.5,0.7-1.5,1.5c0,0.8,0.7,1.5,1.5,1.5h14.9c0.8,0,1.5-0.7,1.5-1.5
			C26.8,27.5,26.1,26.8,25.3,26.8z"/>
	</g>
</g>
<g>
	<g>
		<path class="st0" d="M25.3,35.9H10.3c-0.8,0-1.5,0.7-1.5,1.5c0,0.8,0.7,1.5,1.5,1.5h14.9c0.8,0,1.5-0.7,1.5-1.5
			C26.8,36.5,26.1,35.9,25.3,35.9z"/>
	</g>
</g>
<g>
	<g>
		<path class="st0" d="M31.2,44.9h-9c-0.8,0-1.5,0.7-1.5,1.5c0,0.8,0.7,1.5,1.5,1.5h9c0.8,0,1.5-0.7,1.5-1.5
			C32.7,45.6,32.1,44.9,31.2,44.9z"/>
	</g>
</g>
</svg>
