<?xml version="1.0" encoding="utf-8"?>
<!-- Generator: Adobe Illustrator 25.0.0, SVG Export Plug-In . SVG Version: 6.00 Build 0)  -->
<svg version="1.1" id="圖層_1" xmlns="http://www.w3.org/2000/svg" xmlns:xlink="http://www.w3.org/1999/xlink" x="0px" y="0px"
	 viewBox="0 0 56.7 56.7" style="enable-background:new 0 0 56.7 56.7;" xml:space="preserve">
<g>
	<path d="M28.3,0C12.7,0,0,12.7,0,28.3s12.7,28.3,28.3,28.3s28.3-12.7,28.3-28.3S44,0,28.3,0z M28.3,52.4c-13.3,0-24-10.9-24-24
		s10.9-24,24-24s24,10.9,24,24S41.6,52.4,28.3,52.4z"/>
	<path d="M34.9,21.8c0,1.2,0.9,2.2,2.2,2.2s2.2-0.9,2.2-2.2c0-2.4-1.2-4.7-3.4-6.4c-1.5-1.1-3.4-1.9-5.3-2.2v-2.3
		c0-1.2-0.9-2.2-2.2-2.2c-1.2,0-2.2,0.9-2.2,2.2v2.3c-2,0.3-3.8,1.1-5.3,2.2c-2.2,1.6-3.4,3.9-3.4,6.4s1.2,4.7,3.4,6.4
		c1.5,1.1,3.4,1.9,5.3,2.2V39c-2.6-0.7-4.3-2.3-4.3-4.1c0-1.2-0.9-2.2-2.2-2.2s-2.2,0.9-2.2,2.2c0,2.4,1.2,4.7,3.4,6.4
		c1.5,1.1,3.4,1.9,5.3,2.2v2.4c0,1.2,0.9,2.2,2.2,2.2c1.2,0,2.2-0.9,2.2-2.2v-2.4c2-0.3,3.8-1.1,5.3-2.2c2.2-1.6,3.4-3.9,3.4-6.4
		c0-2.4-1.2-4.7-3.4-6.4c-1.5-1.1-3.4-1.9-5.3-2.2v-8.7C33,18.3,34.9,19.9,34.9,21.8L34.9,21.8z M21.8,21.8c0-1.9,1.9-3.5,4.3-4.1
		V26C23.7,25.3,21.8,23.7,21.8,21.8z M34.9,34.9c0,1.9-1.9,3.5-4.3,4.1v-8.3C33,31.4,34.9,33,34.9,34.9z"/>
</g>
</svg>
