<svg xmlns="http://www.w3.org/2000/svg" xmlns:xlink="http://www.w3.org/1999/xlink" version="1.1" x="0px" y="0px" viewBox="0 0 16 20" style="enable-background:new 0 0 16 16;" xml:space="preserve"><g><path d="M13,12c0,0.552-0.448,1-1,1H4c-0.551,0-1-0.448-1-1V4c0-0.551,0.449-1,1-1h5V2H4C2.897,2,2,2.897,2,4v8   c0,1.103,0.897,2,2,2h8c1.103,0,2-0.897,2-2V7h-1V12z"/><polygon points="10,0 12.293,2.293 6.293,8.293 7.707,9.707 13.707,3.707 16,6 16,0  "/></g><text x="0" y="31" fill="#000000" font-size="5px" font-weight="bold" font-family="'Helvetica Neue', Helvetica, Arial-Unicode, Arial, Sans-serif">Created by Rflor</text><text x="0" y="36" fill="#000000" font-size="5px" font-weight="bold" font-family="'Helvetica Neue', Helvetica, Arial-Unicode, Arial, Sans-serif">from the Noun Project</text></svg>