<?xml version="1.0" encoding="utf-8"?>
<!-- Generator: Adobe Illustrator 27.9.0, SVG Export Plug-In . SVG Version: 6.00 Build 0)  -->
<svg version="1.1" id="home" xmlns="http://www.w3.org/2000/svg" xmlns:xlink="http://www.w3.org/1999/xlink" x="0px" y="0px"
	 viewBox="0 0 32 32" style="enable-background:new 0 0 32 32;" xml:space="preserve">
<style type="text/css">
	.st0{fill:#007059;}
</style>
<g>
	<path class="st0" d="M4,7.6C4,5.6,5.6,4,7.6,4s3.6,1.6,3.6,3.6s-1.6,3.6-3.6,3.6S4,9.6,4,7.6z"/>
	<path class="st0" d="M14.8,6.4c-0.7,0-1.2,0.5-1.2,1.2s0.5,1.2,1.2,1.2h12c0.7,0,1.2-0.5,1.2-1.2s-0.5-1.2-1.2-1.2H14.8z"/>
	<path class="st0" d="M13.6,16c0-0.7,0.5-1.2,1.2-1.2h12c0.7,0,1.2,0.5,1.2,1.2c0,0.7-0.5,1.2-1.2,1.2h-12
		C14.1,17.2,13.6,16.7,13.6,16z"/>
	<path class="st0" d="M14.8,23.2c-0.7,0-1.2,0.5-1.2,1.2s0.5,1.2,1.2,1.2h12c0.7,0,1.2-0.5,1.2-1.2s-0.5-1.2-1.2-1.2H14.8z"/>
	<path class="st0" d="M7.6,12.4C5.6,12.4,4,14,4,16s1.6,3.6,3.6,3.6s3.6-1.6,3.6-3.6S9.6,12.4,7.6,12.4z"/>
	<path class="st0" d="M7.6,20.8c-2,0-3.6,1.6-3.6,3.6S5.6,28,7.6,28s3.6-1.6,3.6-3.6S9.6,20.8,7.6,20.8z"/>
</g>
</svg>
