<?xml version="1.0" encoding="utf-8"?>
<!-- Generator: Adobe Illustrator 27.7.0, SVG Export Plug-In . SVG Version: 6.00 Build 0)  -->
<svg version="1.1" id="圖層_1" xmlns="http://www.w3.org/2000/svg" xmlns:xlink="http://www.w3.org/1999/xlink" x="0px" y="0px"
	 viewBox="0 0 330 64" style="enable-background:new 0 0 330 64;" xml:space="preserve">
<style type="text/css">
	.st0{fill:#00A63C;}
	.st1{fill:#009844;}
	.st2{fill:#F29600;}
	.st3{fill:#B7D100;}
	.st4{fill:#029914;}
	.st5{enable-background:new    ;}
	.st6{fill:#222222;}
	.st7{fill:#FFFFFF;}
</style>
<g>
	<g>
		<path class="st0" d="M43.2,27.4L42.7,26H42v0.1h0.1c0,0,0.1,0,0.1,0c0,0,0,0,0,0.1c0,0,0,0.1,0,0.2v1.3c0,0.1,0,0.1,0,0.2
			c0,0,0,0.1,0,0.1c0,0,0,0-0.1,0.1c0,0-0.1,0-0.1,0H42v0.1h0.6v-0.1h0c-0.1,0-0.1,0-0.1,0c0,0-0.1-0.1-0.1-0.1c0,0,0-0.1,0-0.2
			v-1.3l0.6,1.8H43l0.6-1.8v1.4c0,0.1,0,0.2,0,0.2c0,0,0,0.1,0,0.1c0,0-0.1,0-0.1,0h-0.1v0.1h0.9v-0.1h-0.1c0,0-0.1,0-0.1,0
			c0,0,0,0,0-0.1c0,0,0-0.1,0-0.2v-1.4c0-0.1,0-0.2,0-0.2c0,0,0,0,0-0.1c0,0,0.1,0,0.1,0h0.1V26h-0.7L43.2,27.4z"/>
		<path class="st0" d="M44.4,26.1L44.4,26.1c0.1,0,0.1,0,0.2,0c0,0,0,0,0,0.1c0,0,0,0.1,0,0.2v1.4c0,0.1,0,0.2,0,0.2c0,0,0,0,0,0.1
			c0,0-0.1,0-0.1,0h-0.1v0.1h0.9v-0.1h-0.1c0,0-0.1,0-0.1,0c0,0,0,0,0-0.1c0,0,0-0.1,0-0.2v-1.4c0-0.1,0-0.2,0-0.2c0,0,0-0.1,0-0.1
			c0,0,0.1,0,0.1,0h0.1V26h-0.9V26.1z"/>
		<path class="st0" d="M46.6,26.1L46.6,26.1L46.6,26.1c0.1,0,0.2,0.1,0.2,0.1c0,0,0,0.1,0,0.2v0.8L46.1,26h-0.6v0.1l0,0
			c0,0,0.1,0,0.1,0c0,0,0,0,0.1,0.1l0,0v1.5c0,0.1,0,0.2,0,0.2c0,0-0.1,0.1-0.2,0.1l0,0v0.1h0.6v-0.1H46c0,0-0.1,0-0.1-0.1
			c0,0-0.1-0.1-0.1-0.2v-1.2l1,1.7H47v-1.8c0-0.1,0-0.2,0-0.2c0,0,0-0.1,0-0.1c0,0,0,0,0.1,0l0,0V26L46.6,26.1L46.6,26.1z"/>
		<path class="st0" d="M47.3,26.1L47.3,26.1c0.1,0,0.1,0,0.2,0c0,0,0,0,0,0.1c0,0,0,0.1,0,0.2v1.4c0,0.1,0,0.2,0,0.2c0,0,0,0,0,0.1
			c0,0-0.1,0-0.1,0h-0.1v0.1h0.9v-0.1h-0.1c0,0-0.1,0-0.1,0c0,0,0,0,0-0.1c0,0,0-0.1,0-0.2v-1.4c0-0.1,0-0.2,0-0.2c0,0,0-0.1,0-0.1
			c0,0,0.1,0,0.1,0h0.1V26h-0.9V26.1z"/>
		<path class="st0" d="M49.1,26.8c-0.1-0.1-0.2-0.1-0.3-0.2c0,0-0.1-0.1-0.1-0.1c0,0,0-0.1,0-0.1c0-0.1,0-0.1,0.1-0.2
			c0-0.1,0.1-0.1,0.2-0.1c0.1,0,0.2,0.1,0.3,0.2c0.1,0.1,0.1,0.2,0.2,0.4l0,0h0.1l0-0.8h-0.1l0,0c0,0.1,0,0.1,0,0.1c0,0,0,0,0,0
			c0,0,0,0-0.1,0c-0.1,0-0.1-0.1-0.1-0.1c-0.1,0-0.1,0-0.2,0c-0.2,0-0.3,0.1-0.4,0.2c-0.1,0.1-0.1,0.3-0.1,0.4c0,0.1,0,0.2,0.1,0.3
			c0,0.1,0.1,0.2,0.2,0.2c0.1,0.1,0.2,0.2,0.3,0.2c0.1,0.1,0.2,0.1,0.2,0.2c0,0,0.1,0.1,0.1,0.1c0,0,0,0.1,0,0.1
			c0,0.1,0,0.1-0.1,0.2c0,0.1-0.1,0.1-0.2,0.1c-0.1,0-0.2-0.1-0.3-0.2c-0.1-0.1-0.2-0.3-0.2-0.5l0,0h-0.1v0.9h0.1l0,0
			c0,0,0-0.1,0-0.1c0,0,0,0,0,0c0,0,0,0,0.1,0c0.1,0,0.1,0.1,0.2,0.1c0,0,0.1,0,0.2,0c0.2,0,0.3-0.1,0.4-0.2
			c0.1-0.1,0.2-0.3,0.2-0.5c0-0.1,0-0.3-0.1-0.4C49.4,27.1,49.3,27,49.1,26.8z"/>
		<path class="st0" d="M49.8,26.7L49.8,26.7L49.8,26.7c0.1-0.2,0.2-0.3,0.2-0.4c0-0.1,0.1-0.1,0.2-0.1h0.1v1.6c0,0.1,0,0.2,0,0.2
			c0,0,0,0,0,0.1c0,0-0.1,0-0.1,0h-0.1v0.1H51v-0.1H51c0,0-0.1,0-0.1,0c0,0,0,0,0-0.1c0,0,0-0.1,0-0.2v-1.6h0.1c0.1,0,0.1,0,0.1,0
			c0,0,0.1,0.1,0.1,0.1c0,0.1,0.1,0.1,0.1,0.3l0,0h0.1V26h-1.5V26.7z"/>
		<path class="st0" d="M53.2,28c0,0-0.1-0.1-0.1-0.2l-0.4-0.7c0.1,0,0.2-0.1,0.2-0.1c0.1-0.1,0.1-0.2,0.1-0.4c0-0.1,0-0.2-0.1-0.3
			c-0.1-0.1-0.1-0.2-0.2-0.2c-0.1,0-0.2-0.1-0.4-0.1h-0.8v0.1h0c0.1,0,0.1,0,0.1,0c0,0,0,0,0,0.1c0,0,0,0.1,0,0.2v1.4
			c0,0.1,0,0.2,0,0.2c0,0,0,0,0,0.1c0,0-0.1,0-0.1,0h0v0.1h0.9v-0.1h0c-0.1,0-0.1,0-0.1,0c0,0,0,0,0-0.1c0,0,0-0.1,0-0.2v-0.6h0.1
			l0.5,1h0.6v-0.1L53.2,28C53.2,28.1,53.2,28.1,53.2,28z M52.2,26.2L52.2,26.2c0.2,0,0.3,0,0.4,0.1c0.1,0.1,0.1,0.2,0.1,0.3
			c0,0.1,0,0.2,0,0.3c0,0.1-0.1,0.1-0.1,0.1c-0.1,0-0.1,0-0.2,0h0V26.2z"/>
		<path class="st0" d="M54.5,26.1L54.5,26.1c0.1,0,0.1,0,0.2,0c0,0,0,0,0,0c0,0,0,0.1-0.1,0.3l-0.3,0.6L54,26.5
			c-0.1-0.2-0.1-0.2-0.1-0.3c0,0,0,0,0,0c0,0,0,0,0.1,0h0.1V26h-0.8v0.1l0,0c0,0,0.1,0,0.1,0c0,0,0.1,0.1,0.2,0.3l0.4,0.9v0.4
			c0,0.1,0,0.2,0,0.2c0,0,0,0.1,0,0.1c0,0-0.1,0-0.1,0h-0.1v0.1h1v-0.1h-0.1c0,0-0.1,0-0.1,0c0,0,0,0,0-0.1c0,0,0-0.1,0-0.2l0-0.5
			l0.3-0.8c0.1-0.2,0.1-0.3,0.2-0.3c0,0,0.1,0,0.1-0.1l0,0V26h-0.5V26.1z"/>
		<path class="st0" d="M57.2,26C57.2,26,57.2,26,57.2,26C57.2,26,57.2,26,57.2,26c-0.3,0-0.5,0.1-0.7,0.3c-0.2,0.2-0.2,0.5-0.2,0.8
			c0,0.3,0.1,0.5,0.2,0.7c0.2,0.3,0.4,0.4,0.7,0.4c0.3,0,0.5-0.1,0.7-0.4c0.1-0.2,0.2-0.4,0.2-0.7c0-0.3-0.1-0.6-0.2-0.8
			C57.7,26.1,57.5,26,57.2,26z M56.9,27.9c-0.1-0.2-0.1-0.4-0.1-0.8c0-0.3,0-0.5,0.1-0.7c0.1-0.2,0.2-0.3,0.3-0.3
			c0.1,0,0.1,0,0.2,0.1c0.1,0.1,0.1,0.1,0.1,0.3c0,0.1,0.1,0.3,0.1,0.6c0,0.2,0,0.4-0.1,0.6c0,0.1-0.1,0.2-0.2,0.3
			c0,0-0.1,0.1-0.2,0.1C57.1,28.1,57,28,56.9,27.9z"/>
		<path class="st0" d="M58.3,26.1L58.3,26.1c0.1,0,0.1,0,0.2,0c0,0,0,0,0,0.1c0,0,0,0.1,0,0.2v1.4c0,0.1,0,0.2,0,0.2c0,0,0,0,0,0.1
			c0,0-0.1,0-0.1,0h-0.1v0.1h0.9v-0.1h-0.1c0,0-0.1,0-0.1,0c0,0,0,0,0-0.1c0,0,0-0.1,0-0.2v-0.6h0c0.1,0,0.1,0,0.2,0.1
			c0.1,0.1,0.1,0.2,0.1,0.4l0,0h0.1v-1.1h-0.1l0,0c0,0.1,0,0.2-0.1,0.3c0,0.1-0.1,0.1-0.1,0.1c0,0-0.1,0-0.2,0h0v-0.8H59
			c0.1,0,0.2,0,0.3,0c0.1,0,0.1,0.1,0.2,0.1c0,0.1,0.1,0.2,0.1,0.3l0,0h0.1V26h-1.4V26.1z"/>
		<path class="st0" d="M62.4,28c0,0-0.1-0.1-0.1-0.3L61.7,26h-0.1l-0.6,1.7C61,27.8,61,28,60.9,28c0,0-0.1,0.1-0.1,0.1l0,0v0.1h0.6
			v-0.1l0,0c-0.1,0-0.1,0-0.1,0c0,0,0-0.1,0-0.1c0,0,0-0.1,0-0.2l0.1-0.2h0.5l0.1,0.2c0,0.1,0,0.1,0,0.1c0,0,0,0,0,0.1
			c0,0,0,0,0,0.1c0,0-0.1,0-0.1,0h-0.1v0.1h0.8v-0.1L62.4,28C62.5,28.1,62.5,28.1,62.4,28z M61.3,27.4l0.2-0.6l0.2,0.6H61.3z"/>
		<path class="st0" d="M63.7,27.4L63.7,27.4c0.1,0,0.1,0,0.2,0c0,0,0,0,0,0.1c0,0,0,0,0,0.2V28c0,0-0.1,0-0.1,0c0,0-0.1,0-0.1,0
			c-0.1,0-0.2,0-0.3-0.1c-0.1-0.1-0.1-0.2-0.2-0.3c0-0.1-0.1-0.3-0.1-0.5c0-0.2,0-0.3,0-0.5c0-0.2,0.1-0.3,0.2-0.4
			c0.1-0.1,0.2-0.1,0.3-0.1c0.1,0,0.2,0.1,0.3,0.2c0.1,0.1,0.2,0.3,0.2,0.5l0,0h0.1V26h-0.1l0,0c0,0.1,0,0.1,0,0.1c0,0,0,0,0,0
			c0,0,0,0-0.1-0.1C64,26,63.9,26,63.9,26c-0.1,0-0.1,0-0.2,0c-0.3,0-0.5,0.1-0.7,0.3c-0.2,0.2-0.3,0.5-0.3,0.8c0,0.2,0,0.3,0.1,0.5
			c0,0.1,0.1,0.2,0.2,0.3c0.1,0.1,0.2,0.2,0.3,0.2c0.1,0.1,0.2,0.1,0.4,0.1c0.1,0,0.2,0,0.4,0c0.1,0,0.2-0.1,0.3-0.1l0,0v-0.5
			c0-0.1,0-0.1,0-0.1c0,0,0-0.1,0-0.1c0,0,0,0,0.1,0l0,0v-0.1h-0.8V27.4z"/>
		<path class="st0" d="M66.3,28c0,0,0-0.1-0.1-0.2l-0.4-0.7c0.1,0,0.2-0.1,0.2-0.1c0.1-0.1,0.1-0.2,0.1-0.4c0-0.1,0-0.2-0.1-0.3
			c-0.1-0.1-0.1-0.2-0.2-0.2c-0.1,0-0.2-0.1-0.4-0.1h-0.8v0.1h0c0.1,0,0.1,0,0.1,0c0,0,0,0,0,0.1c0,0,0,0.1,0,0.2v1.4
			c0,0.1,0,0.2,0,0.2c0,0,0,0,0,0.1c0,0-0.1,0-0.1,0h0v0.1h0.9v-0.1h0c-0.1,0-0.1,0-0.1,0c0,0,0,0,0-0.1c0,0,0-0.1,0-0.2v-0.6h0.1
			l0.5,1h0.6v-0.1L66.3,28C66.4,28.1,66.3,28.1,66.3,28z M65.3,27.1v-0.9h0.1c0.1,0,0.2,0,0.3,0.1c0.1,0.1,0.1,0.2,0.1,0.3
			c0,0.1,0,0.2,0,0.3c0,0.1-0.1,0.1-0.1,0.1C65.5,27.1,65.5,27.1,65.3,27.1L65.3,27.1z"/>
		<path class="st0" d="M66.5,26.1L66.5,26.1c0.1,0,0.1,0,0.2,0c0,0,0,0,0,0.1c0,0,0,0.1,0,0.2v1.4c0,0.1,0,0.2,0,0.2c0,0,0,0,0,0.1
			c0,0-0.1,0-0.1,0h-0.1v0.1h0.9v-0.1h-0.1c0,0-0.1,0-0.1,0c0,0,0,0,0-0.1c0,0,0-0.1,0-0.2v-1.4c0-0.1,0-0.2,0-0.2c0,0,0-0.1,0-0.1
			c0,0,0.1,0,0.1,0h0.1V26h-0.9V26.1z"/>
		<path class="st0" d="M69.1,26c0,0,0,0.1,0,0.1c0,0,0,0,0,0c0,0,0,0-0.1-0.1C68.8,26,68.6,26,68.5,26c-0.2,0-0.3,0.1-0.5,0.2
			c-0.1,0.1-0.3,0.2-0.3,0.4c-0.1,0.2-0.1,0.4-0.1,0.6c0,0.2,0,0.4,0.1,0.6c0.1,0.2,0.2,0.3,0.3,0.4c0.1,0.1,0.3,0.1,0.5,0.1
			c0.1,0,0.3,0,0.4-0.1c0.1-0.1,0.2-0.2,0.3-0.3v-0.3l-0.1,0.1c-0.1,0.1-0.2,0.2-0.3,0.3C68.8,28,68.7,28,68.6,28
			c-0.1,0-0.2,0-0.3-0.1c-0.1-0.1-0.1-0.2-0.2-0.3c0-0.2-0.1-0.3-0.1-0.5c0-0.2,0-0.4,0.1-0.5c0-0.1,0.1-0.2,0.2-0.3
			c0.1-0.1,0.2-0.1,0.3-0.1c0.1,0,0.2,0,0.3,0.1c0.1,0.1,0.2,0.2,0.2,0.4l0,0h0.1V26L69.1,26L69.1,26z"/>
		<path class="st0" d="M70.5,26.1L70.5,26.1c0.1,0,0.1,0,0.2,0c0,0,0,0,0,0.1c0,0,0,0.1,0,0.2v0.9c0,0.2,0,0.4,0,0.5
			c0,0.1-0.1,0.2-0.1,0.2c-0.1,0-0.1,0.1-0.2,0.1c-0.1,0-0.1,0-0.2-0.1c0,0-0.1-0.1-0.1-0.1c0-0.1,0-0.2,0-0.4v-1c0-0.1,0-0.2,0-0.2
			c0,0,0,0,0-0.1c0,0,0,0,0.1,0h0.1V26h-0.9v0.1l0,0h0c0.1,0,0.1,0,0.1,0c0,0,0,0,0,0.1c0,0,0,0.1,0,0.2v1c0,0.2,0,0.3,0.1,0.4
			c0,0.1,0.1,0.2,0.2,0.3c0.1,0.1,0.2,0.1,0.3,0.1c0.2,0,0.3,0,0.4-0.1c0.1-0.1,0.2-0.2,0.2-0.3c0-0.1,0-0.3,0-0.5v-0.8
			c0-0.1,0-0.1,0-0.2c0,0,0-0.1,0.1-0.1c0,0,0.1,0,0.1,0h0.1V26h-0.6V26.1z"/>
		<path class="st0" d="M72.7,27.4c0,0.2-0.1,0.3-0.1,0.4c0,0.1-0.1,0.1-0.1,0.2c-0.1,0-0.1,0.1-0.2,0.1h-0.1C72,28,72,28,72,28
			c0,0,0,0,0-0.1c0,0,0-0.1,0-0.2v-1.3c0-0.1,0-0.2,0-0.2c0,0,0-0.1,0-0.1c0,0,0.1,0,0.1,0h0.1V26h-0.9v0.1h0.1c0,0,0.1,0,0.1,0
			c0,0,0,0,0,0.1c0,0,0,0.1,0,0.2v1.4c0,0.1,0,0.2,0,0.2c0,0,0,0,0,0.1c0,0-0.1,0-0.1,0h-0.1v0.1h1.5l0.1-0.8L72.7,27.4L72.7,27.4z"
			/>
		<path class="st0" d="M72.8,26.7L72.8,26.7L72.8,26.7c0.1-0.2,0.2-0.3,0.2-0.4c0-0.1,0.1-0.1,0.2-0.1h0.1v1.6c0,0.1,0,0.2,0,0.2
			c0,0,0,0,0,0.1c0,0-0.1,0-0.1,0h-0.1v0.1H74v-0.1h-0.1c0,0-0.1,0-0.1,0c0,0,0,0,0-0.1c0,0,0-0.1,0-0.2v-1.6h0.1c0.1,0,0.1,0,0.1,0
			c0,0,0.1,0.1,0.1,0.1c0,0.1,0.1,0.1,0.1,0.3l0,0h0.1V26h-1.5V26.7z"/>
		<path class="st0" d="M75.6,26.1L75.6,26.1c0.1,0,0.1,0,0.2,0c0,0,0,0,0,0.1c0,0,0,0.1,0,0.2v0.9c0,0.2,0,0.4,0,0.5
			c0,0.1-0.1,0.2-0.1,0.2c-0.1,0-0.1,0.1-0.2,0.1c-0.1,0-0.1,0-0.2-0.1c0,0-0.1-0.1-0.1-0.1c0-0.1,0-0.2,0-0.4v-1c0-0.1,0-0.2,0-0.2
			c0,0,0,0,0-0.1c0,0,0,0,0.1,0h0.1V26h-0.9v0.1l0,0h0c0.1,0,0.1,0,0.1,0c0,0,0,0,0,0.1c0,0,0,0.1,0,0.2v1c0,0.2,0,0.3,0.1,0.4
			c0,0.1,0.1,0.2,0.2,0.3c0.1,0.1,0.2,0.1,0.3,0.1c0.2,0,0.3,0,0.4-0.1c0.1-0.1,0.2-0.2,0.2-0.3c0-0.1,0-0.3,0-0.5v-0.8
			c0-0.1,0-0.1,0-0.2c0,0,0-0.1,0.1-0.1c0,0,0.1,0,0.1,0h0.1V26h-0.6V26.1z"/>
		<path class="st0" d="M78,28c0,0-0.1-0.1-0.1-0.2l-0.4-0.7c0.1,0,0.2-0.1,0.2-0.1c0.1-0.1,0.1-0.2,0.1-0.4c0-0.1,0-0.2-0.1-0.3
			c-0.1-0.1-0.1-0.2-0.2-0.2c-0.1,0-0.2-0.1-0.4-0.1h-0.8v0.1h0c0.1,0,0.1,0,0.1,0c0,0,0,0,0,0.1c0,0,0,0.1,0,0.2v1.4
			c0,0.1,0,0.2,0,0.2c0,0,0,0,0,0.1c0,0-0.1,0-0.1,0h0v0.1h0.9v-0.1h0c-0.1,0-0.1,0-0.1,0c0,0,0,0,0-0.1c0,0,0-0.1,0-0.2v-0.6H77
			l0.5,1h0.6v-0.1L78,28C78,28.1,78,28.1,78,28z M77,26.2L77,26.2c0.2,0,0.3,0,0.4,0.1c0.1,0.1,0.1,0.2,0.1,0.3c0,0.1,0,0.2,0,0.3
			c0,0.1-0.1,0.1-0.1,0.1c-0.1,0-0.1,0-0.2,0h0V26.2z"/>
		<path class="st0" d="M79.6,27.5c0,0.2-0.1,0.3-0.2,0.4C79.3,28,79.2,28,79.1,28H79c0,0-0.1,0-0.1,0c0,0,0,0,0-0.1c0,0,0-0.1,0-0.2
			v-0.6c0.1,0,0.1,0,0.1,0c0,0,0.1,0.1,0.1,0.1c0,0.1,0,0.2,0.1,0.3l0,0h0.1v-1.2h-0.1l0,0c0,0.2,0,0.3-0.1,0.4
			c0,0.1-0.1,0.1-0.2,0.1h0v-0.8H79c0.1,0,0.2,0,0.2,0c0.1,0,0.1,0.1,0.2,0.1c0,0.1,0.1,0.2,0.1,0.3l0,0h0.1V26h-1.4v0.1h0.1
			c0,0,0.1,0,0.1,0c0,0,0,0,0,0.1c0,0,0,0.1,0,0.2v1.4c0,0.1,0,0.2,0,0.2c0,0,0,0,0,0.1c0,0-0.1,0-0.1,0h-0.1v0.1h1.4l0.1-0.7
			L79.6,27.5L79.6,27.5z"/>
	</g>
	<path class="st0" d="M39.1,24.8c0,0-0.1-0.1-0.1-0.3l-0.6-1.7h-0.1l-0.6,1.7c-0.1,0.2-0.1,0.3-0.1,0.3c0,0-0.1,0.1-0.1,0.1l0,0v0.1
		H38v-0.1l0,0c-0.1,0-0.1,0-0.1,0c0,0,0-0.1,0-0.1c0,0,0-0.1,0-0.2l0.1-0.2h0.5l0.1,0.2c0,0.1,0,0.1,0,0.1c0,0,0,0,0,0.1
		c0,0,0,0,0,0.1c0,0-0.1,0-0.1,0h-0.1v0.1h0.8v-0.1L39.1,24.8C39.1,24.8,39.1,24.8,39.1,24.8z M38,24.2l0.2-0.6l0.2,0.6H38z"/>
	<path class="st0" d="M40.3,24.1L40.3,24.1c0.1,0,0.1,0,0.2,0c0,0,0,0,0,0.1c0,0,0,0,0,0.2v0.4c0,0-0.1,0-0.1,0c0,0-0.1,0-0.1,0
		c-0.1,0-0.2,0-0.3-0.1c-0.1-0.1-0.1-0.2-0.2-0.3c0-0.1-0.1-0.3-0.1-0.5c0-0.2,0-0.3,0-0.5c0-0.2,0.1-0.3,0.2-0.4
		c0.1-0.1,0.2-0.1,0.3-0.1c0.1,0,0.2,0.1,0.3,0.2c0.1,0.1,0.2,0.3,0.2,0.5l0,0H41v-0.8h-0.1l0,0c0,0.1,0,0.1,0,0.1c0,0,0,0,0,0
		c0,0,0,0-0.1-0.1c-0.1,0-0.1-0.1-0.2-0.1c-0.1,0-0.1,0-0.2,0c-0.3,0-0.5,0.1-0.7,0.3c-0.2,0.2-0.3,0.5-0.3,0.8c0,0.2,0,0.3,0.1,0.5
		c0,0.1,0.1,0.2,0.2,0.3c0.1,0.1,0.2,0.2,0.3,0.2C40,25,40.1,25,40.3,25c0.1,0,0.2,0,0.4,0c0.1,0,0.2-0.1,0.3-0.1l0,0v-0.5
		c0-0.1,0-0.1,0-0.1c0,0,0-0.1,0-0.1c0,0,0,0,0.1,0l0,0V24h-0.8V24.1z"/>
	<path class="st0" d="M42.2,24.8L42.2,24.8c-0.1,0-0.1,0-0.2,0c0,0,0,0,0-0.1c0,0,0-0.1,0-0.2V24H42l0.5,1h0.6v-0.1l0,0
		c0,0-0.1,0-0.1,0c0,0-0.1-0.1-0.1-0.2l-0.4-0.7c0.1,0,0.2-0.1,0.2-0.1c0.1-0.1,0.1-0.2,0.1-0.4c0-0.1,0-0.2-0.1-0.3
		c-0.1-0.1-0.1-0.2-0.2-0.2c-0.1,0-0.2-0.1-0.4-0.1h-0.8v0.1h0c0.1,0,0.1,0,0.1,0c0,0,0,0,0,0.1c0,0,0,0.1,0,0.2v1.4
		c0,0.1,0,0.2,0,0.2c0,0,0,0,0,0.1c0,0-0.1,0-0.1,0h0v0.1h0.9V24.8z M42.4,23.4c0,0.1,0,0.2,0,0.3c0,0.1-0.1,0.1-0.1,0.1
		c-0.1,0-0.1,0-0.2,0h0V23h0.1c0.1,0,0.2,0,0.3,0.1C42.4,23.1,42.4,23.2,42.4,23.4z"/>
	<path class="st0" d="M44,24.8L44,24.8c-0.1,0-0.2,0-0.2,0c0,0,0,0,0-0.1c0,0,0-0.1,0-0.2v-1.4c0-0.1,0-0.2,0-0.2c0,0,0-0.1,0-0.1
		c0,0,0.1,0,0.1,0H44v-0.1h-0.9v0.1h0.1c0,0,0.1,0,0.1,0c0,0,0,0,0,0.1c0,0,0,0.1,0,0.2v1.4c0,0.1,0,0.2,0,0.2c0,0,0,0,0,0.1
		c0,0-0.1,0-0.1,0h-0.1v0.1H44V24.8z"/>
	<path class="st0" d="M44.7,24.9c0.1,0.1,0.3,0.1,0.5,0.1c0.1,0,0.3,0,0.4-0.1c0.1-0.1,0.2-0.2,0.3-0.3v-0.3l-0.1,0.1
		c-0.1,0.1-0.2,0.2-0.3,0.3c-0.1,0.1-0.2,0.1-0.3,0.1c-0.1,0-0.2,0-0.3-0.1c-0.1-0.1-0.1-0.2-0.2-0.3c0-0.2-0.1-0.3-0.1-0.5
		c0-0.2,0-0.4,0.1-0.5c0-0.1,0.1-0.2,0.2-0.3c0.1-0.1,0.2-0.1,0.3-0.1c0.1,0,0.2,0,0.3,0.1c0.1,0.1,0.2,0.2,0.2,0.4l0,0h0.1v-0.8
		h-0.1l0,0c0,0,0,0.1,0,0.1c0,0,0,0,0,0c0,0,0,0-0.1-0.1c-0.1-0.1-0.3-0.1-0.4-0.1c-0.2,0-0.3,0.1-0.5,0.2c-0.1,0.1-0.3,0.2-0.3,0.4
		c-0.1,0.2-0.1,0.4-0.1,0.6c0,0.2,0,0.4,0.1,0.6C44.4,24.6,44.5,24.8,44.7,24.9z"/>
	<path class="st0" d="M47.5,24v-0.8c0-0.1,0-0.1,0-0.2c0,0,0-0.1,0.1-0.1c0,0,0.1,0,0.1,0h0.1v-0.1h-0.6v0.1h0c0.1,0,0.1,0,0.1,0
		c0,0,0,0,0,0.1c0,0,0,0.1,0,0.2v0.9c0,0.2,0,0.4,0,0.5c0,0.1-0.1,0.2-0.1,0.2c-0.1,0-0.1,0.1-0.2,0.1c-0.1,0-0.1,0-0.2-0.1
		c0,0-0.1-0.1-0.1-0.1c0-0.1,0-0.2,0-0.4v-1c0-0.1,0-0.2,0-0.2c0,0,0,0,0-0.1c0,0,0,0,0.1,0h0.1v-0.1h-0.9v0.1l0,0h0
		c0.1,0,0.1,0,0.1,0c0,0,0,0,0,0.1c0,0,0,0.1,0,0.2v1c0,0.2,0,0.3,0.1,0.4c0,0.1,0.1,0.2,0.2,0.3c0.1,0.1,0.2,0.1,0.3,0.1
		c0.2,0,0.3,0,0.4-0.1c0.1-0.1,0.2-0.2,0.2-0.3C47.5,24.4,47.5,24.2,47.5,24z"/>
	<path class="st0" d="M49.4,24.2h-0.1l0,0c0,0.2-0.1,0.3-0.1,0.4c0,0.1-0.1,0.1-0.1,0.2c-0.1,0-0.1,0.1-0.2,0.1h-0.1
		c-0.1,0-0.1,0-0.1,0c0,0,0,0,0-0.1c0,0,0-0.1,0-0.2v-1.3c0-0.1,0-0.2,0-0.2c0,0,0-0.1,0-0.1c0,0,0.1,0,0.1,0h0.1v-0.1h-0.9v0.1H48
		c0,0,0.1,0,0.1,0c0,0,0,0,0,0.1c0,0,0,0.1,0,0.2v1.4c0,0.1,0,0.2,0,0.2c0,0,0,0,0,0.1c0,0-0.1,0-0.1,0h-0.1v0.1h1.5L49.4,24.2z"/>
	<path class="st0" d="M49.9,24.7C49.9,24.8,49.9,24.8,49.9,24.7c-0.1,0.1-0.1,0.1-0.1,0.1h-0.1v0.1h0.9v-0.1h-0.1c0,0-0.1,0-0.1,0
		c0,0,0,0,0-0.1c0,0,0-0.1,0-0.2V23h0.1c0.1,0,0.1,0,0.1,0c0.1,0,0.1,0.1,0.1,0.1c0,0.1,0.1,0.1,0.1,0.3l0,0h0.1v-0.6h-1.5v0.6h0.1
		l0,0c0-0.1,0.1-0.3,0.1-0.3c0-0.1,0.1-0.1,0.2-0.1H50v1.6C50,24.7,50,24.7,49.9,24.7z"/>
	<path class="st0" d="M51.6,24.9C51.7,25,51.8,25,52,25c0.2,0,0.3,0,0.4-0.1c0.1-0.1,0.2-0.2,0.2-0.3c0-0.1,0-0.3,0-0.5v-0.8
		c0-0.1,0-0.1,0-0.2c0,0,0-0.1,0.1-0.1c0,0,0.1,0,0.1,0h0.1v-0.1h-0.6v0.1h0c0.1,0,0.1,0,0.1,0c0,0,0,0,0,0.1c0,0,0,0.1,0,0.2v0.9
		c0,0.2,0,0.4,0,0.5c0,0.1-0.1,0.2-0.1,0.2c-0.1,0-0.1,0.1-0.2,0.1c-0.1,0-0.1,0-0.2-0.1c0,0-0.1-0.1-0.1-0.1c0-0.1,0-0.2,0-0.4v-1
		c0-0.1,0-0.2,0-0.2c0,0,0,0,0-0.1c0,0,0,0,0.1,0H52v-0.1h-0.9v0.1l0,0h0c0.1,0,0.1,0,0.1,0c0,0,0,0,0,0.1c0,0,0,0.1,0,0.2v1
		c0,0.2,0,0.3,0.1,0.4C51.4,24.8,51.5,24.9,51.6,24.9z"/>
	<path class="st0" d="M53.8,24.8L53.8,24.8c-0.1,0-0.1,0-0.2,0c0,0,0,0,0-0.1c0,0,0-0.1,0-0.2V24h0.1l0.5,1h0.6v-0.1l0,0
		c0,0-0.1,0-0.1,0c0,0,0-0.1-0.1-0.2l-0.4-0.7c0.1,0,0.2-0.1,0.2-0.1c0.1-0.1,0.1-0.2,0.1-0.4c0-0.1,0-0.2-0.1-0.3
		c-0.1-0.1-0.1-0.2-0.2-0.2c-0.1,0-0.2-0.1-0.4-0.1H53v0.1h0c0.1,0,0.1,0,0.1,0c0,0,0,0,0,0.1c0,0,0,0.1,0,0.2v1.4
		c0,0.1,0,0.2,0,0.2c0,0,0,0,0,0.1c0,0-0.1,0-0.1,0h0v0.1h0.9V24.8z M54,23.4c0,0.1,0,0.2,0,0.3c0,0.1-0.1,0.1-0.1,0.1
		c-0.1,0-0.1,0-0.2,0h0V23h0.1c0.1,0,0.2,0,0.3,0.1C54,23.1,54,23.2,54,23.4z"/>
	<path class="st0" d="M56.2,24.2L56.2,24.2c0,0.2-0.1,0.3-0.2,0.4c-0.1,0.1-0.2,0.1-0.3,0.1h-0.1c0,0-0.1,0-0.1,0c0,0,0,0,0-0.1
		c0,0,0-0.1,0-0.2v-0.6c0.1,0,0.1,0,0.1,0c0,0,0.1,0.1,0.1,0.1c0,0.1,0,0.2,0.1,0.3l0,0h0.1v-1.2h-0.1l0,0c0,0.2,0,0.3-0.1,0.4
		c0,0.1-0.1,0.1-0.2,0.1h0V23h0.1c0.1,0,0.2,0,0.2,0c0.1,0,0.1,0.1,0.2,0.1c0,0.1,0.1,0.2,0.1,0.3l0,0h0.1v-0.7h-1.4v0.1h0.1
		c0,0,0.1,0,0.1,0c0,0,0,0,0,0.1c0,0,0,0.1,0,0.2v1.4c0,0.1,0,0.2,0,0.2c0,0,0,0.1,0,0.1c0,0-0.1,0-0.1,0h-0.1v0.1h1.4L56.2,24.2
		L56.2,24.2z"/>
	<path class="st0" d="M58,24.8c0,0,0-0.1,0-0.1c0,0,0-0.1,0-0.2l0.1-0.2h0.5l0.1,0.2c0,0.1,0,0.1,0,0.1c0,0,0,0,0,0.1c0,0,0,0,0,0.1
		c0,0-0.1,0-0.1,0h-0.1v0.1h0.8v-0.1l0,0c0,0-0.1,0-0.1,0c0,0-0.1-0.1-0.1-0.3l-0.6-1.7h-0.1l-0.6,1.7c-0.1,0.2-0.1,0.3-0.1,0.3
		c0,0-0.1,0.1-0.1,0.1l0,0v0.1h0.6v-0.1l0,0C58,24.8,58,24.8,58,24.8z M58.1,24.2l0.2-0.6l0.2,0.6H58.1z"/>
	<path class="st0" d="M59.9,24.8c0,0-0.1-0.1-0.1-0.2v-1.2l1,1.7H61v-1.8c0-0.1,0-0.2,0-0.2c0,0,0-0.1,0-0.1c0,0,0,0,0.1,0l0,0v-0.1
		h-0.6v0.1l0,0h0c0.1,0,0.1,0,0.2,0.1c0,0,0,0.1,0,0.2V24l-0.8-1.2h-0.6v0.1l0,0c0,0,0.1,0,0.1,0c0,0,0.1,0,0.1,0.1l0,0v1.5
		c0,0.1,0,0.2,0,0.2c0,0-0.1,0.1-0.2,0.1l0,0v0.1h0.6v-0.1H60C60,24.8,59.9,24.8,59.9,24.8z"/>
	<path class="st0" d="M62.9,24.3c0-0.1,0.1-0.3,0.1-0.4c0-0.2,0-0.4-0.1-0.6c-0.1-0.2-0.2-0.3-0.3-0.4c-0.1-0.1-0.3-0.1-0.5-0.1
		h-0.7v0.1h0.1c0,0,0.1,0,0.1,0c0,0,0,0,0,0.1c0,0,0,0.1,0,0.2v1.4c0,0.1,0,0.2,0,0.2c0,0,0,0,0,0.1c0,0-0.1,0-0.1,0h-0.1v0.1H62
		c0.1,0,0.2,0,0.2,0c0.1,0,0.2-0.1,0.3-0.1c0.1-0.1,0.1-0.1,0.2-0.2C62.8,24.5,62.9,24.4,62.9,24.3z M62.4,24.6
		c-0.1,0.1-0.2,0.2-0.3,0.2c0,0-0.1,0-0.1,0c0,0,0,0,0,0c0,0,0,0,0-0.2V23c0.1,0,0.2,0,0.2,0c0.1,0,0.1,0.1,0.2,0.2
		c0.1,0.2,0.1,0.4,0.1,0.6C62.5,24.2,62.4,24.5,62.4,24.6z"/>
	<path class="st0" d="M65.3,24.8L65.3,24.8c-0.1,0-0.2,0-0.2,0c0,0,0,0,0-0.1c0,0,0-0.1,0-0.2v-0.6h0c0.1,0,0.1,0,0.2,0.1
		c0.1,0.1,0.1,0.2,0.1,0.4l0,0h0.1v-1.1h-0.1l0,0c0,0.1,0,0.2-0.1,0.3c0,0.1-0.1,0.1-0.1,0.1c0,0-0.1,0-0.2,0h0V23h0.1
		c0.1,0,0.2,0,0.3,0c0.1,0,0.1,0.1,0.2,0.1c0,0.1,0.1,0.2,0.1,0.3l0,0h0.1v-0.7h-1.4v0.1h0.1c0,0,0.1,0,0.1,0c0,0,0,0,0,0.1
		c0,0,0,0.1,0,0.2v1.4c0,0.1,0,0.2,0,0.2c0,0,0,0.1,0,0.1c0,0-0.1,0-0.1,0h-0.1v0.1h0.9V24.8z"/>
	<path class="st0" d="M67.5,23.1c-0.2-0.2-0.4-0.3-0.6-0.3c0,0,0,0,0,0c0,0,0,0,0,0c-0.2,0-0.4,0.1-0.6,0.3
		c-0.2,0.2-0.2,0.5-0.2,0.8c0,0.3,0.1,0.5,0.2,0.7c0.2,0.3,0.4,0.4,0.7,0.4c0.3,0,0.5-0.1,0.7-0.4c0.1-0.2,0.2-0.4,0.2-0.7
		C67.8,23.5,67.7,23.3,67.5,23.1z M66.6,24.7c-0.1-0.2-0.1-0.4-0.1-0.8c0-0.3,0-0.5,0.1-0.7c0.1-0.2,0.2-0.3,0.3-0.3
		c0.1,0,0.1,0,0.2,0.1c0.1,0.1,0.1,0.1,0.1,0.3c0,0.1,0.1,0.3,0.1,0.6c0,0.2,0,0.4-0.1,0.6c0,0.1-0.1,0.2-0.2,0.3
		c0,0-0.1,0.1-0.2,0.1C66.8,24.8,66.7,24.8,66.6,24.7z"/>
	<path class="st0" d="M68.9,25c0.3,0,0.5-0.1,0.7-0.4c0.1-0.2,0.2-0.4,0.2-0.7c0-0.3-0.1-0.6-0.2-0.8c-0.2-0.2-0.4-0.3-0.6-0.3
		c0,0,0,0,0,0c0,0,0,0,0,0c-0.2,0-0.4,0.1-0.6,0.3c-0.2,0.2-0.2,0.5-0.2,0.8c0,0.3,0.1,0.5,0.2,0.7C68.3,24.9,68.6,25,68.9,25z
		 M68.6,23.2c0.1-0.2,0.2-0.3,0.3-0.3c0.1,0,0.1,0,0.2,0.1c0.1,0.1,0.1,0.1,0.1,0.3c0,0.1,0.1,0.3,0.1,0.6c0,0.2,0,0.4-0.1,0.6
		c0,0.1-0.1,0.2-0.2,0.3c0,0-0.1,0.1-0.2,0.1c-0.1,0-0.2-0.1-0.3-0.2c-0.1-0.2-0.1-0.4-0.1-0.8C68.5,23.6,68.5,23.3,68.6,23.2z"/>
	<path class="st0" d="M71.4,24.6c0.1-0.1,0.1-0.2,0.1-0.3c0-0.1,0.1-0.3,0.1-0.4c0-0.2,0-0.4-0.1-0.6c-0.1-0.2-0.2-0.3-0.3-0.4
		c-0.1-0.1-0.3-0.1-0.5-0.1h-0.7v0.1H70c0,0,0.1,0,0.1,0c0,0,0,0,0,0.1c0,0,0,0.1,0,0.2v1.4c0,0.1,0,0.2,0,0.2c0,0,0,0,0,0.1
		c0,0-0.1,0-0.1,0h-0.1v0.1h0.7c0.1,0,0.2,0,0.2,0c0.1,0,0.2-0.1,0.3-0.1C71.3,24.8,71.3,24.7,71.4,24.6z M71,24.6
		c-0.1,0.1-0.2,0.2-0.3,0.2c0,0-0.1,0-0.1,0c0,0,0,0,0,0c0,0,0,0,0-0.2V23c0.1,0,0.2,0,0.2,0c0.1,0,0.1,0.1,0.2,0.2
		c0.1,0.2,0.1,0.4,0.1,0.6C71.1,24.2,71.1,24.5,71,24.6z"/>
	<path class="st0" d="M73.4,24.8L73.4,24.8c-0.1,0-0.2,0-0.2,0c0,0,0-0.1,0-0.1c0,0,0-0.1,0-0.2l0.1-0.2h0.5l0.1,0.2
		c0,0.1,0,0.1,0,0.1c0,0,0,0,0,0.1c0,0,0,0,0,0.1c0,0-0.1,0-0.1,0h-0.1v0.1h0.8v-0.1l0,0c0,0-0.1,0-0.1,0c0,0-0.1-0.1-0.1-0.3
		l-0.6-1.7h-0.1l-0.6,1.7c-0.1,0.2-0.1,0.3-0.1,0.3c0,0-0.1,0.1-0.1,0.1l0,0v0.1h0.6V24.8z M73.4,24.2l0.2-0.6l0.2,0.6H73.4z"/>
	<path class="st0" d="M75,24.7c0.1,0.1,0.2,0.2,0.3,0.2c0.1,0.1,0.2,0.1,0.4,0.1c0.1,0,0.2,0,0.4,0c0.1,0,0.2-0.1,0.3-0.1l0,0v-0.5
		c0-0.1,0-0.1,0-0.1c0,0,0-0.1,0-0.1c0,0,0,0,0.1,0l0,0V24h-0.8v0.1h0.1c0,0,0.1,0,0.1,0c0,0,0,0,0,0.1c0,0,0,0,0,0.2v0.4
		c0,0-0.1,0-0.1,0c0,0-0.1,0-0.1,0c-0.1,0-0.2,0-0.3-0.1c-0.1-0.1-0.1-0.2-0.2-0.3c0-0.2-0.1-0.3-0.1-0.5c0-0.2,0-0.3,0-0.5
		c0-0.2,0.1-0.3,0.2-0.4c0.1-0.1,0.2-0.1,0.3-0.1c0.1,0,0.2,0.1,0.3,0.2c0.1,0.1,0.2,0.3,0.2,0.5l0,0h0.1v-0.8h-0.1l0,0
		c0,0.1,0,0.1,0,0.1c0,0,0,0,0,0c0,0,0,0-0.1-0.1c-0.1,0-0.1-0.1-0.2-0.1c-0.1,0-0.1,0-0.2,0c-0.3,0-0.5,0.1-0.7,0.3
		c-0.2,0.2-0.3,0.5-0.3,0.8c0,0.2,0,0.3,0.1,0.5C74.9,24.5,75,24.6,75,24.7z"/>
	<path class="st0" d="M78.1,24.2L78.1,24.2c0,0.2-0.1,0.3-0.2,0.4c-0.1,0.1-0.2,0.1-0.3,0.1h-0.1c0,0-0.1,0-0.1,0c0,0,0,0,0-0.1
		c0,0,0-0.1,0-0.2v-0.6c0.1,0,0.1,0,0.1,0c0,0,0.1,0.1,0.1,0.1c0,0.1,0,0.2,0.1,0.3l0,0h0.1v-1.2h-0.1l0,0c0,0.2,0,0.3-0.1,0.4
		c0,0.1-0.1,0.1-0.2,0.1h0V23h0.1c0.1,0,0.2,0,0.2,0c0.1,0,0.1,0.1,0.2,0.1c0,0.1,0.1,0.2,0.1,0.3l0,0h0.1v-0.7h-1.4v0.1h0.1
		c0,0,0.1,0,0.1,0c0,0,0,0,0,0.1c0,0,0,0.1,0,0.2v1.4c0,0.1,0,0.2,0,0.2c0,0,0,0.1,0,0.1c0,0-0.1,0-0.1,0h-0.1v0.1h1.4L78.1,24.2
		L78.1,24.2z"/>
	<path class="st0" d="M79.5,22.9L79.5,22.9L79.5,22.9c0.1,0,0.2,0.1,0.2,0.1c0,0,0,0.1,0,0.2V24L79,22.8h-0.6v0.1l0,0
		c0,0,0.1,0,0.1,0c0,0,0,0,0.1,0.1l0,0v1.5c0,0.1,0,0.2,0,0.2c0,0-0.1,0.1-0.2,0.1l0,0v0.1H79v-0.1H79c0,0-0.1,0-0.1-0.1
		c0,0-0.1-0.1-0.1-0.2v-1.2l1,1.7h0.1v-1.8c0-0.1,0-0.2,0-0.2c0,0,0-0.1,0-0.1c0,0,0,0,0.1,0l0,0v-0.1L79.5,22.9L79.5,22.9z"/>
	<path class="st0" d="M81.8,22.8c0,0,0,0.1,0,0.1c0,0,0,0,0,0c0,0,0,0-0.1-0.1c-0.1-0.1-0.3-0.1-0.4-0.1c-0.2,0-0.3,0.1-0.5,0.2
		c-0.1,0.1-0.3,0.2-0.3,0.4c-0.1,0.2-0.1,0.4-0.1,0.6c0,0.2,0,0.4,0.1,0.6c0.1,0.2,0.2,0.3,0.3,0.4c0.1,0.1,0.3,0.1,0.5,0.1
		c0.1,0,0.3,0,0.4-0.1c0.1-0.1,0.2-0.2,0.3-0.3v-0.3l-0.1,0.1c-0.1,0.1-0.2,0.2-0.3,0.3c-0.1,0.1-0.2,0.1-0.3,0.1
		c-0.1,0-0.2,0-0.3-0.1c-0.1-0.1-0.1-0.2-0.2-0.3c0-0.2-0.1-0.3-0.1-0.5c0-0.2,0-0.4,0.1-0.5c0-0.1,0.1-0.2,0.2-0.3
		c0.1-0.1,0.2-0.1,0.3-0.1c0.1,0,0.2,0,0.3,0.1c0.1,0.1,0.2,0.2,0.2,0.4l0,0h0.1v-0.8L81.8,22.8L81.8,22.8z"/>
	<path class="st0" d="M83.9,22.9v-0.1h-0.5v0.1l0,0c0.1,0,0.1,0,0.1,0c0,0,0,0,0,0.1c0,0,0,0.1-0.1,0.3l-0.3,0.6l-0.3-0.6
		C82.8,23,82.8,23,82.8,23c0,0,0,0,0,0c0,0,0,0,0.1,0h0.1v-0.1h-0.8v0.1l0,0c0,0,0.1,0,0.1,0c0,0,0.1,0.1,0.2,0.3l0.4,0.9v0.4
		c0,0.1,0,0.2,0,0.2c0,0,0,0,0,0.1c0,0-0.1,0-0.1,0h-0.1v0.1h1v-0.1h-0.1c0,0-0.1,0-0.1,0c0,0,0,0,0-0.1c0,0,0-0.1,0-0.2l0-0.5
		l0.3-0.8c0.1-0.2,0.1-0.3,0.2-0.3C83.8,22.9,83.8,22.9,83.9,22.9L83.9,22.9z"/>
	<path class="st0" d="M84.2,24.5c-0.1-0.1-0.1-0.1-0.2-0.1c-0.1,0-0.1,0-0.2,0.1c0,0.1-0.1,0.1-0.1,0.2c0,0.1,0,0.1,0.1,0.2
		c0,0.1,0.1,0.1,0.1,0.1c0,0,0.1,0,0.1,0c0,0,0,0,0,0c0,0.1,0,0.2-0.1,0.2c0,0.1-0.1,0.1-0.2,0.2l0,0v0.1l0,0
		c0.1-0.1,0.2-0.1,0.3-0.3c0.1-0.1,0.1-0.3,0.1-0.4C84.3,24.7,84.3,24.6,84.2,24.5z"/>
	<g>
		<path class="st1" d="M47.6,20.4l0.2,0.4c-0.2,0.1-0.4,0.2-0.6,0.4c0.3,0.1,0.7,0.2,1.3,0.2l-0.2,0.5c-0.3,0-0.5-0.1-0.7-0.1
			c-0.8-0.2-1.6-0.7-2.2-1.4h-0.5v0.9c0.4-0.1,0.7-0.1,0.9-0.1l0.1,0.5c-0.5,0.1-1.2,0.2-2,0.2l-0.1-0.5l0.6,0v-1h-0.6
			c0,0.6-0.1,1.1-0.3,1.5L43,21.6c0.2-0.5,0.3-1.1,0.3-1.8v-1.1c0-0.1,0-0.1,0.1-0.1h4.9v0.4h-4.5c0,0-0.1,0-0.1,0.1v0.8h4.7v0.4H46
			c0.2,0.2,0.4,0.4,0.7,0.6C47.1,20.7,47.4,20.5,47.6,20.4z M48.1,16.7C48.2,16.7,48.2,16.7,48.1,16.7l0.1,1.6c0,0,0,0.1-0.1,0.1
			h-4.8c0,0-0.1,0-0.1-0.1v-1.5c0,0,0-0.1,0.1-0.1h1.4v-0.4h0.5v0.4h1v-0.4h0.5v0.4H48.1z M44.7,17.1h-1c0,0,0,0,0,0v0.2h1V17.1z
			 M44.7,17.7h-1v0.2l0,0h1V17.7z M48.1,19.3v0.4h-3.9v-0.4H48.1z M46.2,17.1h-1v0.3h1V17.1z M46.2,17.7h-1V18h1V17.7z M46.7,17.3h1
			v-0.2l0,0h-1V17.3z M46.7,18h1l0,0v-0.2h-1V18z"/>
		<path class="st1" d="M52.1,21.8h-0.5v-1.2c-0.8,0.5-1.6,0.8-2.3,0.9L49.1,21c0.8-0.1,1.6-0.4,2.3-0.8h-2.2v-0.5h2.3v-0.3h-2V19h2
			v-0.4h-2.2v-0.4h1.3c-0.1-0.2-0.2-0.4-0.2-0.5h-1.3v-0.5h1c-0.1-0.3-0.2-0.5-0.4-0.6l0.4-0.2c0.1,0.2,0.3,0.4,0.4,0.7l-0.3,0.1
			h0.7v-0.9h0.5v0.9h0.5v-0.9h0.5v0.9h0.6L53,17.1c0.2-0.3,0.4-0.5,0.5-0.7l0.4,0.2c-0.1,0.2-0.2,0.4-0.4,0.6h1v0.5h-1.4l-0.2,0.5
			h1.4v0.4h-2.2V19h2v0.4h-2v0.3h2.3v0.5h-2.1c0.6,0.4,1.4,0.7,2.3,0.9l-0.3,0.5c-0.9-0.2-1.6-0.6-2.2-1V21.8z M52.4,18.2l0.2-0.5
			H51l0.2,0.5H52.4z"/>
		<path class="st1" d="M57.4,17.3l0.4,0.2c-0.1,0.3-0.2,0.6-0.3,1.1h0.8V19h-3v-0.5H57C57.2,18.1,57.3,17.6,57.4,17.3z M56.5,16.3
			H57v0.4h1.1v0.5h-2.8v-0.5h1.1V16.3z M55.8,21.7h-0.5v-2.2c0-0.1,0-0.1,0.1-0.1h2.5c0.1,0,0.1,0,0.1,0.1v2.1h-0.5v-0.3h-1.7V21.7z
			 M56,17.4c0.2,0.4,0.3,0.8,0.3,1l-0.4,0.1c-0.1-0.4-0.2-0.7-0.3-0.9L56,17.4z M57.5,21v-1c0,0,0-0.1-0.1-0.1h-1.6
			c-0.1,0-0.1,0-0.1,0.1v1H57.5z M58.9,17v4.8h-0.5v-5.2c0-0.1,0-0.1,0.1-0.1h1.7l0.3,0.3L60,18.5c0,0,0,0.1,0,0.1
			c0.3,0.4,0.5,0.7,0.6,1c0.1,0.6,0.1,1-0.1,1.3c-0.1,0.1-0.2,0.2-0.3,0.3c-0.3,0.1-0.6,0.1-1-0.1l0.1-0.6c0.3,0.2,0.6,0.2,0.7,0.2
			c0.2-0.1,0.3-0.3,0.3-0.8c-0.1-0.3-0.3-0.8-0.7-1.3c0-0.1-0.1-0.1,0-0.1l0.5-1.5l0-0.1L58.9,17C58.9,16.9,58.9,17,58.9,17z"/>
		<path class="st1" d="M65.9,20.4l0.2,0.4c-0.2,0.1-0.4,0.2-0.6,0.4c0.3,0.1,0.7,0.2,1.3,0.2l-0.2,0.5c-0.3,0-0.5-0.1-0.7-0.1
			c-0.8-0.2-1.6-0.7-2.2-1.4h-0.5v0.9c0.4-0.1,0.7-0.1,0.9-0.1l0.1,0.5c-0.5,0.1-1.2,0.2-2,0.2L62,21.3l0.6,0v-1H62
			c0,0.6-0.1,1.1-0.3,1.5l-0.4-0.2c0.2-0.5,0.3-1.1,0.3-1.8v-1.1c0-0.1,0-0.1,0.1-0.1h4.9v0.4h-4.5c0,0-0.1,0-0.1,0.1v0.8h4.7v0.4
			h-2.4c0.2,0.2,0.4,0.4,0.7,0.6C65.3,20.7,65.6,20.5,65.9,20.4z M66.4,16.7C66.4,16.7,66.4,16.7,66.4,16.7l0.1,1.6
			c0,0,0,0.1-0.1,0.1h-4.8c0,0-0.1,0-0.1-0.1v-1.5c0,0,0-0.1,0.1-0.1H63v-0.4h0.5v0.4h1v-0.4h0.5v0.4H66.4z M63,17.1h-1c0,0,0,0,0,0
			v0.2h1V17.1z M63,17.7h-1v0.2l0,0h1V17.7z M66.4,19.3v0.4h-3.9v-0.4H66.4z M64.5,17.1h-1v0.3h1V17.1z M64.5,17.7h-1V18h1V17.7z
			 M64.9,17.3h1v-0.2l0,0h-1V17.3z M64.9,18h1l0,0v-0.2h-1V18z"/>
		<path class="st1" d="M68.6,21.8h-0.5v-1.9c-0.1,0.3-0.3,0.6-0.4,0.8l-0.5-0.1c0.3-0.5,0.6-1,0.7-1.6h-0.6v-0.5h0.8v-2.1h0.5v2.1
			h0.7v0.5h-0.7v0c0.3,0.3,0.5,0.6,0.8,0.9L69,20.1l-0.4-0.6V21.8z M67.8,16.7c0.1,0.4,0.2,0.9,0.2,1.4l-0.4,0
			c0-0.4-0.1-0.9-0.2-1.3L67.8,16.7z M69.4,16.8c-0.1,0.5-0.2,0.9-0.3,1.3L68.7,18c0.1-0.5,0.2-0.9,0.3-1.3L69.4,16.8z M70.8,21.1
			h-1.3v-0.4h1.3v-0.2h-1.2c0,0-0.1,0-0.1-0.1v-1.5c0,0,0-0.1,0.1-0.1h2.9c0,0,0.1,0,0.1,0.1v1.5c0,0,0,0.1-0.1,0.1h-1.3v0.2h1.4
			v0.4h-1.4v0.2h1.6v0.4h-3.7v-0.4h1.6V21.1z M72.8,18.2v0.4h-3.5v-0.4H72.8z M72.4,18h-2.9c0,0-0.1,0-0.1-0.1v-1.5
			c0,0,0-0.1,0.1-0.1h2.9c0,0,0.1,0,0.1,0.1L72.4,18C72.5,18,72.5,18,72.4,18z M70.8,19.2H70c0,0,0,0,0,0v0.3h0.8V19.2z M70.8,19.8
			H70V20l0,0h0.8V19.8z M72.1,17.1v-0.2l0,0h-2c0,0,0,0,0,0v0.2H72.1z M70,17.4v0.2l0,0h2l0,0v-0.2H70z M71.3,19.4h0.9v-0.3l0,0
			h-0.9V19.4z M71.3,20.1h0.9l0,0v-0.2h-0.9V20.1z"/>
		<path class="st1" d="M74.9,21.8h-0.5v-1.7c-0.3,0.1-0.6,0.1-0.9,0.2l-0.2-0.5c0.7-0.1,1.4-0.3,2-0.5h-1.9v-0.5h2.2v-0.4h-1.6v-0.5
			h1.6v-0.4h-2c0,0-0.1,0-0.1-0.1v-1.1c0,0,0-0.1,0.1-0.1h4.8c0,0,0.1,0,0.1,0.1v1.1c0,0,0,0.1-0.1,0.1h-2.3v0.4h1.3v0.3l0.7-0.5
			l0.3,0.4l-1.1,0.6h1.3v0.5h-2.2l-0.8,0.3l-0.1,0h2.4c0.1,0,0.2,0.1,0.2,0.2v2h-0.5v-0.2h-3V21.8z M75.1,16.9h-1c0,0,0,0,0,0v0.4
			l0,0h1V16.9z M77.9,20.4v-0.3c0,0,0-0.1-0.1-0.1H75c0,0-0.1,0-0.1,0.1v0.3H77.9z M74.9,20.8v0.3h3v-0.3H74.9z M76.7,16.9h-1.1v0.4
			h1.1V16.9z M77.2,18.5h-1v0.4h0.3L77.2,18.5z M77.2,17.3h1l0,0v-0.4l0,0h-1V17.3z"/>
	</g>
	<g>
		<path class="st2" d="M20.4,6.2c1.8-0.1,3.3,1.3,3.4,3c0.1,1.8-1.3,3.2-3.1,3.3c-1.8,0.1-3.3-1.3-3.4-3C17.2,7.8,18.6,6.3,20.4,6.2
			z"/>
		<g>
			<path class="st0" d="M27.8,12.8c0.2,0,0.4-0.1,0.7-0.1c-0.2,0-0.3,0-0.4-0.1c-0.1,0-0.2,0.1-0.2,0.1c-0.1,0-0.3-0.1-0.4-0.1
				c-0.1,0.2-0.2,0.1-0.3,0.2C27.3,12.8,27.5,12.8,27.8,12.8z"/>
			<path class="st0" d="M31.3,13.4L31.3,13.4c-0.1-0.1-0.2-0.2-0.4-0.3c0,0-0.1,0-0.1-0.1c-0.1,0-0.2,0-0.3,0.1
				c0.1,0.1,0.2,0.1,0.4,0.2C31.1,13.3,31.2,13.4,31.3,13.4z"/>
			<path class="st0" d="M29.6,12.9c0.1,0,0.1,0,0.2,0c0.1-0.2,0-0.1-0.1-0.1c0,0-0.1,0-0.1,0c-0.1,0-0.1-0.1-0.2,0
				C29.4,12.7,29.5,12.8,29.6,12.9C29.6,12.8,29.6,12.9,29.6,12.9z"/>
			<path class="st0" d="M30.2,13c0.1,0,0.2,0,0.2,0l0,0C30.3,12.9,30.3,12.9,30.2,13C30.2,12.9,30.2,12.9,30.2,13
				c0-0.1-0.1-0.2-0.1-0.2c0,0.1-0.1,0.1-0.1,0.2C30,12.9,30.1,13,30.2,13z"/>
			<path class="st0" d="M29.3,12.8c0-0.1,0-0.1-0.1-0.1l-0.1,0c0,0-0.1,0-0.2-0.1c-0.1,0-0.2-0.1-0.2,0c0,0-0.2,0.1-0.1,0.1
				c0.1,0,0.2,0.1,0.4,0.1C29.1,12.8,29.3,12.8,29.3,12.8z"/>
			<path class="st0" d="M29.9,13.8c0,0-0.1,0-0.2-0.1c-0.1,0-0.2,0-0.2,0c0,0,0.1,0.1,0.2,0.1c0.2,0.1,0.4,0.1,0.4,0.1
				C30,13.9,29.9,13.8,29.9,13.8z"/>
			<path class="st0" d="M30.4,14l0.1,0.1c0.1,0,0.4,0.1,0.5,0.1c0,0,0.1,0,0.1,0c0,0,0,0-0.1-0.1C30.8,14.1,30.4,13.9,30.4,14z"/>
			<path class="st0" d="M32.1,14.5c-0.1,0-0.2-0.1-0.2,0c0,0.1,0,0.1,0.1,0.2c0.1,0,0.1,0.1,0.2,0.1c0.1,0,0.2,0.1,0.2,0
				C32.3,14.7,32.2,14.6,32.1,14.5z"/>
			<path class="st0" d="M31.4,14.3C31.4,14.3,31.3,14.3,31.4,14.3c0,0.2,0.1,0.1,0.1,0.1c0,0,0.1,0,0.1,0.1c0,0,0.1,0,0.1-0.1
				c-0.1-0.1-0.2-0.1-0.2-0.1C31.5,14.4,31.4,14.3,31.4,14.3z"/>
			<path class="st0" d="M34.2,16.8c0,0.1,0.1,0.1,0.1,0.2c0,0,0,0.1-0.1,0.1C34.2,17,34.1,17,34,17c-0.1,0-0.2-0.1-0.2-0.3
				c-0.1,0-0.2-0.2-0.2,0c-0.1,0-0.1-0.1-0.2-0.1c-0.1-0.1-0.2-0.1-0.3-0.1c-0.1,0-0.2-0.2-0.2,0c0,0-0.1,0-0.1-0.1
				c0-0.1-0.4-0.2-0.4-0.3c0,0,0,0,0.1,0c0-0.1-0.1-0.1-0.1-0.1c0,0-0.1-0.1-0.1-0.1c0.1,0,0.6,0.2,0.7,0.2c0,0,0,0,0,0.1
				c0.1,0.1,0.2,0.1,0.4,0.2c0.2,0.1,0.4,0.3,0.6,0.3c0.1,0,0-0.1,0-0.1c0.1-0.1,0.1,0.2,0.2,0.2c0.2,0.1,0,0.1,0.2,0.1
				c-0.3-0.6-0.3-0.3-0.7-0.7c-0.2,0-0.2-0.2-0.3-0.4c-0.1,0-0.2-0.2-0.3-0.1c-0.1,0.1-0.3-0.1-0.3-0.2c-0.1,0-0.1-0.2-0.2-0.1
				c-0.1,0-0.2-0.1-0.2-0.1c-0.1,0-0.1-0.1-0.2-0.1c-0.1,0-0.3-0.1-0.4-0.1c0,0,0,0,0,0c0-0.2-0.2,0-0.2-0.1c-0.1,0-0.2,0-0.3-0.1
				c0,0-0.1,0-0.2,0c-0.2-0.1-0.4-0.1-0.6-0.2c-0.1,0-0.2,0-0.2-0.1c-0.2,0.1-0.1-0.3-0.3-0.2c0,0,0,0.1,0,0.1h0
				c0,0-0.1-0.1-0.1-0.1c-0.1,0-0.3,0-0.6,0c-0.3,0-0.7,0-0.7-0.1c-0.1,0,0.7-0.2,0.7-0.3c0,0,0,0,0.1,0c0.1,0,0.2,0,0.4,0
				c0.1,0,0-0.1,0-0.1c0.1-0.1,0.1,0.1,0.2,0.1c0,0,0,0,0,0c0,0,0.1-0.1,0.1-0.1c0.2,0,0.3,0,0.5,0c0.2,0,0.3,0.1,0.5,0.2
				c0.1,0.2,0.2,0.2,0.3,0.2c0.1,0,0.2,0,0.3,0c0,0,0.1,0.1,0.1,0.1c0.1,0.1,0-0.1,0.1-0.1c0,0,0.1,0,0.1,0c0.2,0.1,0.4,0.1,0.6,0.2
				c0.1,0,0.1,0.1,0.2,0.1c0,0,0-0.1-0.2-0.2c-0.1-0.1-0.3-0.2-0.6-0.4c0,0,0,0,0,0c-0.2-0.2-0.3-0.2-0.5-0.3c0,0-0.1,0-0.1-0.1
				c-0.1,0-0.2,0-0.3-0.1c-0.1-0.1-0.2,0-0.4,0c0,0-0.1,0-0.1-0.1c-0.1,0-0.2-0.1-0.3-0.1c0,0-0.1-0.1-0.1-0.1
				c-0.2,0-0.3,0.1-0.5-0.1c-0.1,0-0.1,0-0.2,0c-0.2,0-0.4,0-0.6,0c-0.1,0.1-0.2,0-0.4,0c-0.1,0-0.1,0-0.2,0c-0.2,0-0.3,0-0.5,0
				c-0.1,0.1-0.2,0.1-0.4,0.1c-0.2,0-0.3-0.1-0.5,0.1c-0.7,0-0.6,0.1-1.2,0.3c-0.3,0.1-0.5,0.4-0.8,0.4v0c0.3-0.4,0.7-0.4,1.1-0.6
				c0.5-0.3,0.6-0.2,1.2-0.4c0.1-0.1,0.2-0.1,0.2-0.1c0,0,0,0,0,0c0,0,0,0,0-0.1c-0.2,0-0.3,0-0.6,0c-4.4,1.2-7,4.3-7.4,7.4v1.3
				c0.3,2.9,2.8,5.6,7.9,6.5c0.3,0.1,0.6,0.1,0.8,0.1c0.4,0.1,0.8,0.1,1.2,0.1c0.2,0,0.4,0,0.7,0c0.2,0,0.4,0,0.6,0
				c0.1,0,0.2,0,0.4,0c-0.1-0.1-0.3-0.1-0.4-0.2c-0.2-0.1-0.4-0.2-0.6-0.3c-0.2-0.1-0.5-0.3-0.7-0.4c-0.4-0.3-0.8-0.6-1.2-0.9
				c-0.3-0.2-0.6-0.5-0.8-0.7c-3.9-3.5-2.9-6.9,0-8.5c0.3-0.1,0.6-0.3,0.8-0.4c0.4-0.1,0.8-0.2,1.2-0.3c0.2,0,0.4-0.1,0.7-0.1
				c0.2,0,0.4,0,0.6,0c0.3,0,0.5,0,0.8,0c0.2,0,0.4,0,0.6,0.1c0.2,0,0.4,0.1,0.6,0.1c0.8,0.2,1.7,0.5,2.6,0.9
				C34.9,17.5,34.3,16.9,34.2,16.8z M27.1,13.8l-0.2,0l-0.5,0.1c0.1-0.2,0.4,0.1,0.4-0.2c0,0-0.2,0-0.2-0.1c0,0,0.2-0.1,0.3-0.1
				c0.2,0,0.4,0,0.5,0C27.3,13.7,27.3,13.6,27.1,13.8z M27.8,13.7c-0.1,0-0.1,0-0.2,0c0.1,0,0.1-0.1,0.2-0.1
				c0.2-0.1,0.5-0.1,0.7-0.1l0,0.1c-0.1,0.2-0.3,0.1-0.5,0.2C27.9,13.8,27.8,13.7,27.8,13.7z M32.1,15.9c-0.1,0-0.2,0-0.2,0.1
				c-0.1,0-0.1-0.2-0.3-0.2c0,0-0.1,0-0.1,0c-0.2,0-0.4-0.1-0.6-0.1c-0.1,0-0.2-0.1-0.4-0.1c0-0.1,0.1-0.1,0.2-0.1
				c0,0,0.1,0.1,0.1,0.1c0.1,0,0.1,0,0.2,0c0.1,0.1,0.2,0.1,0.3,0.1c0.2,0.1,0.4,0.1,0.6,0.2c0,0,0,0,0,0L32.1,15.9
				C32.1,15.9,32.1,15.9,32.1,15.9z"/>
		</g>
		<path class="st3" d="M18.4,18.7c1.4-5.2-3-8.4-8.5-9.8c8.3,7.2-2,17.3,14.2,19.3C23.2,27.8,16.6,25.4,18.4,18.7z"/>
	</g>
</g>
<g>
	<rect x="121.6" y="30.7" class="st4" width="85" height="25"/>
	<g class="st5">
		<path class="st6" d="M44.2,43.6c0,1.2-0.1,2.4-0.3,3.5c1-1.5,1.7-3.4,2.1-5.4l2.3,0.7c-0.2,0.6-0.4,1.1-0.7,1.6h2v-2.2h2.5V44h5
			v1.2h-5V47h4.5v1h-4.5v2.1h6v1.2H43.7v-1.2h6V48h-4v-1.2h4V45H47c-0.7,1.1-1.6,2.1-2.6,3l-0.5-0.6c-0.4,1.9-1.2,3.5-2.4,4.6
			l-0.9-0.5c0.9-2,1.2-3.9,1.2-7.9V40h3l-0.2-0.6c1.6-0.3,2.9-0.6,4.1-1c-1.2-0.4-2.4-0.7-3.4-0.9l0.2-0.9c1.4,0.2,3.3,0.5,5.2,0.9
			c0.6-0.3,1.2-0.6,1.7-1H42.1v-1.2h7.5c-0.9-0.5-2-0.9-2.7-1.3l0.2-0.9c1.2,0.1,3.2,0.5,4.8,1l-0.6,1.2h6.6v1.2h-3.3l0.5,0.3
			c-0.6,0.4-1.3,0.9-2,1.3c1,0.3,2,0.6,2.8,0.9l-0.5,1h3v1.2H44.2V43.6z M46.9,40h6.4c-0.8-0.3-1.7-0.7-2.6-1
			C49.6,39.4,48.3,39.8,46.9,40z"/>
		<path class="st6" d="M67.9,48l0.3,1c-1.6,1-5.2,2.2-7.1,2.6l-0.6-2.3c0.8-0.1,1.8-0.2,2.8-0.4v-1l-1.7,0.4
			c-0.1-1.2-0.4-2.9-0.6-4.2l0.9-0.2c0.7,1.2,1.2,2.7,1.5,3.9v-4.5H61v-1.2h2.4V40h-1.6v-0.3c-0.3,0.2-0.6,0.5-0.9,0.7l-0.6-0.8
			c1.7-1.8,2.7-4,3.5-6.6l2.3,0.8c-0.1,0.3-0.2,0.5-0.3,0.8c1,0.6,2.2,1.6,3,2.5l-1.7,1.4c-0.6-1-1.3-2-2-2.8
			c-0.6,1.2-1.4,2.2-2.3,3.1h4.5V40h-1.7v2.1h2.3v1.2h-2.3v4.2c0.3-1.1,0.6-2.5,0.7-3.7l1.8,0.5c-0.4,1.2-0.9,2.5-1.8,3.7l-0.7-0.3
			v0.9C66.5,48.4,67.3,48.2,67.9,48z M72,38.1l-2.1,1c-0.4-1.3-1.1-3.1-1.7-4.5l0.9-0.5C70.2,35.2,71.3,36.7,72,38.1z M74.4,39.4
			h3.3v10.4c0,2.4-2.3,2.8-5.1,1.2l0.2-1c2.2,0.4,2.4,0.1,2.4-0.8v-2.4h-4.3v5.1h-2.3V39.4H72v-5.9h2.4V39.4z M75.3,40.6H71v1.8h4.3
			V40.6z M75.3,45.6v-2H71v2H75.3z M75.3,39l-0.8-0.5c0.6-1.4,1.3-3.1,1.7-4.5l2.2,1C77.6,36.4,76.4,38,75.3,39z"/>
		<path class="st6" d="M97.7,52.1c-1.6-0.2-3.1-0.7-4.4-1.5c-1.6,0.9-3.4,1.3-5.3,1.5l-0.2-0.9c1.8-0.3,3.2-0.9,4.2-1.6
			c-0.5-0.5-1-1.1-1.3-1.7c-0.7,0.7-1.5,1.3-2.3,1.7l-0.5-0.7c1.4-1.2,2.2-2.5,2.7-3.8h-1v-2.5c-0.3,0.4-0.7,0.7-1,1L88,43
			c-0.1,0.2-0.3,0.4-0.5,0.6V52h-2.2v-6.2c-0.4,0.4-0.8,0.6-1.1,0.9l-0.4-0.5c-0.4,2.8-1.2,4.8-2.3,6l-0.9-0.5
			c1.1-2.5,1.2-5.6,1.2-11.5v-6h15.5v3.7h-6.6l1.4,0.4c-0.1,0.2-0.2,0.5-0.3,0.8h5.8v1.2h-6.4L90.8,41h6v4h-5.2l1,0.4
			c-0.1,0.2-0.2,0.4-0.4,0.7h2.3l0.5-0.4l2,1c-0.6,1.1-1.3,2-2.1,2.7c1,0.3,2.2,0.4,3.5,0.5L97.7,52.1z M87.3,40l1.7,0.8
			c0.4-0.9,0.7-1.9,0.9-3H87l1.1,0.4c-0.7,1.4-2.1,3.1-3.5,4.1l-0.4-0.5c-0.1,1.4-0.2,2.6-0.3,3.8C85.1,44.3,86.4,42.2,87.3,40z
			 M84.2,39.4c0,0.7,0,1.4,0,2.1c0.8-1,1.4-2.2,2-3.6h-1.9L84.2,39.4L84.2,39.4z M84.2,36.7h10.7v-1.4H84.2V36.7z M93.1,48.7
			c0.5-0.5,0.9-1,1.3-1.6h-3c0,0,0,0.1-0.1,0.1C91.9,47.8,92.5,48.3,93.1,48.7z M91.7,42.5h3v-0.7h-3V42.5z M91.7,44.1h3v-0.8h-3
			V44.1z"/>
		<path class="st6" d="M104,44.2c-0.3,3.7-1,6-2.3,7.7l-0.9-0.5c1-2.7,1-4.5,1-11.8v-5.5h16.1v1.2h-2l1.4,1.6
			c-0.6,0.2-1.3,0.4-2.2,0.6v1.4h2.3V40h-2c0.7,1.2,1.8,2.2,2.9,2.8l-1.3,1.7c-0.8-0.7-1.4-1.7-1.9-3V45H113v-3.2
			c-0.7,1-1.6,1.9-2.9,2.7l-0.5-0.7c1.3-1.2,2.1-2.4,2.8-3.8h-1.3v-1.1h1.9v-1c-0.7,0.1-1.4,0.2-2.1,0.2l-0.2-0.9
			c1.9-0.4,3.5-1,5-1.8h-11.6v3.7C104.1,41,104.1,42.7,104,44.2c0.9-1.2,1.6-2.4,2.3-4.2h-1.7v-1.1h2.2v-1.1c-0.7,0.1-1.4,0.1-2,0.1
			l-0.1-0.9c1.9-0.4,3.7-1,5-1.7l1.4,1.6c-0.7,0.2-1.4,0.4-2.1,0.5v1.4h1.9V40H109v0.2c0.8,0.4,1.4,0.9,2.2,1.5L110,43
			c-0.3-0.5-0.6-1-0.9-1.4V45H107v-2.7c-0.6,1-1.2,1.7-2.2,2.5L104,44.2z M112.4,50.1h5.7v1.2h-14.9v-1.2h2.7v-4.3h2.2v4.3h1.9v-5.4
			h2.4v2.1h4.2V48h-4.2L112.4,50.1L112.4,50.1z"/>
	</g>
	<g class="st5">
		<path class="st7" d="M132.1,45.6c-1.4,1.2-4.4,2.8-6.3,3.5l-0.9-2.4c0.7-0.1,1.5-0.3,2.3-0.5v-4.8h-1.8v-1.2h1.8v-4.3h-2v-1.1h6.3
			V36h-1.9v4.3h1.7v1.2h-1.7v4c0.7-0.2,1.4-0.5,1.9-0.7L132.1,45.6z M143.4,49.7l-1.3,2.3c-2.5-1.2-4.3-3.6-4.9-7h-0.1
			c-0.3,0.4-0.7,0.8-1.2,1.2V49c0.7-0.2,1.3-0.4,1.9-0.6l0.4,0.9c-2,1.4-4,2.2-5.9,2.6l-0.7-2.1c0.7-0.1,1.4-0.2,2.1-0.3v-1.9
			c-1.3,0.7-2.7,1.2-3.5,1.4l-0.4-1c1.6-0.6,3.3-1.6,4.6-3.1h-2.1v-3.6h9.7V45h-0.8l1.7,1.4c-0.9,0.7-1.8,1.2-2.8,1.5
			C141,48.7,142.1,49.3,143.4,49.7z M131.6,39.4h11.2v1.2h-11.2V39.4z M142.4,38.5h-10.3v-4.4h10.3V38.5z M135.1,35.3h-0.9v2.1h0.9
			V35.3z M134.6,43.9h5.2v-1.4h-5.2V43.9z M137.6,35.3h-0.9v2.1h0.9V35.3z M138.3,45c0.3,0.8,0.6,1.5,1.1,2.1
			c0.7-0.6,1.3-1.3,1.8-2.1H138.3z M140.3,35.3h-1v2.1h1V35.3z"/>
		<path class="st7" d="M160.6,51.5c-2.8,0-3.3-0.4-3.3-2v-2.9h-0.7c-0.6,2.8-2.7,4.9-7.3,5.5l-0.3-1c3.5-1.1,4.7-2.4,5.3-4.6h-2.2
			V45c-1.8,1.4-4.1,2.8-6.1,3.6l-1-2.5c0.7-0.1,1.5-0.3,2.3-0.6V39h-2v-1.2h2v-4.6h2.4v4.6h1.9V39h2.6c-0.4-0.7-0.8-1.4-1.3-2.1
			l0.3-0.3h-1.4v-1.2h4.7c-0.7-0.5-1.5-1-2.3-1.5l0.3-0.9c1.2,0.2,2.9,0.7,4.1,1.2l-0.7,1.2h4.3v1.2h-2.1l1.2,0.5
			c-0.5,0.6-1,1.3-1.7,1.9h3.3v1.2h-11.6V39h-1.6v5.8c0.7-0.2,1.3-0.5,2-0.7l0.4,0.9v-3.8h10v5.4h-2.6v2c0,0.7,0.2,0.9,1.3,0.9
			c1,0,1.1-0.2,1.1-2.3h1C163.5,50.5,163.5,51.5,160.6,51.5z M156.2,38.5l-0.8,0.6h2.6c0.4-0.8,0.7-1.5,0.9-2.4h-4.8
			C154.9,37.2,155.6,37.9,156.2,38.5z M154.3,43.4h5.4v-1h-5.4V43.4z M154.3,45.5h5.4v-1h-5.4V45.5z"/>
		<path class="st7" d="M178.5,37.6v1.6h3.8v10.9c0,1.8-1.3,2.3-3.7,1.3l0.1-1c1.2,0.1,1.3-0.1,1.3-0.8v-2.5h-1.6v4.4h-2.2v-4.4h-1.5
			v4.7h-2.3v-6.4l-1.2,1c-0.4-0.7-0.8-1.6-1.3-2.3V52h-2.3v-7.4c-0.6,0.5-1.3,1-2.1,1.5l-0.6-0.8c2.4-2.1,3.7-4.3,4.5-6.5h-4v-1.2
			h4.2l0.5-0.4l1.9,1c-0.7,1.5-1.4,2.8-2.2,3.9v0.3l0.4,0.3c0.4-0.7,0.8-1.4,1.2-2.1l0.9,0.7v-2h3.7v-1.6h-4.4v-1.2h4.4v-2.9h2.4
			v2.9h2.4c-0.6-0.7-1.4-1.5-2-2.1l0.5-0.7c0.9,0.3,2.3,0.9,3.3,1.7l-1,1.2h1.2v1.2h-4.3L178.5,37.6L178.5,37.6z M170.4,36.1
			l-1.9,1.4c-0.5-1.2-1.3-2.6-1.9-3.7l0.7-0.6C168.3,34,169.6,35.1,170.4,36.1z M172.4,44.6v-2.3c-0.4,0.4-0.9,0.7-1.3,1
			C171.6,43.7,172,44.1,172.4,44.6z M176.3,40.4h-1.5v2.2h1.5V40.4z M176.3,43.8h-1.5V46h1.5V43.8z M178.5,40.4v2.2h1.6v-2.2H178.5z
			 M180.1,43.8h-1.6V46h1.6V43.8z"/>
		<path class="st7" d="M187.1,46.3l2.3,0.8c-0.6,1.5-2,3.8-3.3,5l-0.9-0.6C185.9,50.3,186.7,48.1,187.1,46.3z M192.7,46.2h-6.6V34.4
			h6.6V46.2z M190.4,35.6h-2v2.3h2V35.6z M190.4,39.1h-2v2.2h2V39.1z M190.4,42.5h-2V45h2V42.5z M198.9,39.1V43h3.5v8.8h-2.5v-1.5
			h-4v1.5h-2.5v-1.2l-2.1,0.9c-0.3-1.4-1-3.5-1.4-4.6l0.9-0.6c0.9,1,2.2,3,2.6,4.2V43h2.9v-9.4h2.5v4.3h4.2v1.2H198.9z M195.9,44.2
			V49h4v-4.8H195.9z"/>
	</g>
	<g class="st5">
		<path class="st6" d="M226.6,52.8c-2-0.6-4-1.6-5.7-3.1c-2.1,1.6-4.6,2.7-7.7,3.2l-0.3-1c2.9-1,5-2.2,6.6-3.7
			c-1.4-1.6-2.4-3.6-3-6.2c-0.8,4.5-2.6,8.2-5.8,10.7l-0.7-0.8c3.2-3.9,4.1-8.7,4.2-15.5h-3.1v-1.3h12.4c-0.4,2.1-1,4.1-1.4,5.5h1
			l0.6-0.6l2.6,1.1c-0.8,2.8-2,5.1-3.7,6.9c1.6,0.9,3.4,1.5,5.4,2L226.6,52.8z M217,36.4c-0.1,1.4-0.2,2.8-0.3,4.1h2.9
			c0.4-1.2,0.7-2.7,1-4.1H217z M223.1,41.8h-5.6c0.8,2.1,1.9,3.7,3.3,4.8C221.8,45.2,222.6,43.6,223.1,41.8z"/>
		<path class="st6" d="M247.4,47.4c-0.7-0.2-1.5-0.4-2.4-0.8v6h-2.4v-0.8h-7.1v0.8h-2.4v-6c-0.9,0.4-1.9,0.7-2.8,0.9l-0.4-0.9
			c2.4-0.9,4.8-2.3,6.2-4h-5.5v-1.2h4.7c-0.5-0.6-1-1.2-1.4-1.6l0.3-0.4c-0.2,0-0.4,0-0.6,0l-0.1-0.9c3.4-0.3,6.2-0.7,8.1-1.2h-8.4
			V40h-2.3v-3.9h8.3c-1-0.4-2.1-0.9-3-1.2l0.2-0.9c1.1,0.1,3.1,0.3,4.7,0.8l-0.6,1.4h7v3.9h-2.3v-2.7h-2l1.3,1.3
			c-0.4,0.1-0.8,0.2-1.3,0.2l1.5,0.8c-0.6,0.7-1.2,1.3-1.8,1.8h4.8v1.2h-6.5c2.2,1.5,4.7,2.1,7.4,2.4L247.4,47.4z M243.2,45.8
			c-1.1-0.6-2.2-1.4-3-2.3v1.9h-2.5v-1.5c-0.8,0.8-1.8,1.4-2.8,2h8.3V45.8z M237.1,40.8l-0.6,0.6h1.2v-2.1c-0.9,0.1-1.8,0.1-2.7,0.1
			C235.8,39.7,236.5,40.2,237.1,40.8z M237.8,46.9h-2.3v1.3h2.3V46.9z M237.8,49.2h-2.3v1.4h2.3V49.2z M242.5,38.9
			c-0.7,0.1-1.5,0.2-2.2,0.3v2.3h0.9C241.6,40.6,242.2,39.7,242.5,38.9z M242.6,46.9h-2.3v1.3h2.3V46.9z M242.6,49.2h-2.3v1.4h2.3
			V49.2z"/>
		<path class="st6" d="M255.8,37.9h-5.1v-1.2h7v-2.6h2.6v2.6h7v1.2h-6.2c1.9,1.9,4.2,2.9,6.8,3.6l-1.4,2.5c-2.8-1.2-5.2-3.2-6.3-5.4
			v3.7h-2.6v-3.2c-1.5,2.3-4.5,4.2-7.2,5.2l-0.4-0.9C252.5,42,254.7,40,255.8,37.9z M250.3,50.9h17.5v1.2h-17.5V50.9z M253.5,42.9
			h11.1v6.7h-11.1V42.9z M256.1,45.6h6v-1.5h-6V45.6z M256.1,48.5h6v-1.7h-6V48.5z"/>
		<path class="st6" d="M270.4,52.1l-0.5-0.9c2.1-1.3,3.9-3,5.4-5.1l2.2,1.4C276,49.1,273.4,51,270.4,52.1z M280.8,45.3v5.1
			c0,2.2-2.1,3.1-5.6,1.1l0.3-1c2.4,0.4,2.7,0.2,2.7-0.9v-4c-2.4,0.3-4.7,0.4-6.3,0.5l-0.6-2.4c1.2,0.1,2.4,0.1,3.6,0.1
			c1.5-0.8,3-1.7,4.4-2.8c-2.2,0.5-4.4,0.7-6.1,0.9l-0.6-2.3c0.8,0.1,1.7,0.1,2.5,0.1c0.8-0.8,1.5-1.7,2.1-2.6c-2,0.1-4,0.2-5.5,0.2
			l-0.2-1c4.7-0.4,9.2-1.1,12.8-2.4l2.2,1.9c-1.8,0.4-3.8,0.7-5.9,1c-1.1,1-2.6,2.1-3.9,3c1.3,0,2.7,0,4-0.1
			c0.8-0.7,1.5-1.5,2.2-2.3l2.4,1.5c-2.4,2.2-5.1,3.9-7.8,5.1c2.2-0.1,4.4-0.2,6.4-0.4c-0.4-0.6-0.8-1.1-1.1-1.6l0.8-0.6
			c1.4,0.9,3.3,2.5,4.2,3.9l-2,1.5c-0.4-0.7-0.8-1.4-1.2-2.1C283.6,44.9,282.2,45.1,280.8,45.3z M288.1,49.7l-1.8,2.1
			c-1.1-1.3-3.5-3.5-5.2-4.8l0.5-0.9C283.8,46.8,286.7,48.4,288.1,49.7z"/>
		<path class="st6" d="M292.7,46.8c0,2.2-0.2,4.2-0.5,5.7l-2.3-0.9c0.8-1.3,1.5-2.9,1.9-5L292.7,46.8z M291.6,44.2
			c0.9-1.1,1.6-2.2,2.3-3.5c-1.1,0.4-2.2,0.7-3.2,0.9l-0.4-2.2c0.4,0,0.8,0,1.1,0c0.7-1.7,1.2-3.7,1.6-5.5l2.5,0.7
			c-0.7,1.7-1.8,3.5-2.8,4.9c0.7,0,1.3,0,1.9-0.1c0.3-0.6,0.6-1.3,0.9-2l2.2,1.1c-1.4,2.3-3,4.2-4.5,5.5c0.8-0.1,1.7-0.2,2.5-0.3
			l-0.5-1.4l0.9-0.4c0.8,0.9,1.5,2.2,2.1,3.5l-1.8,0.7c-0.1-0.4-0.2-0.9-0.3-1.3c-1.7,0.7-3.7,1.4-5.3,1.6l-0.5-2.1L291.6,44.2z
			 M295.8,51.1l-2.1,0.4c0-1.4-0.2-3.4-0.4-4.9l0.9-0.2C294.8,47.9,295.4,49.8,295.8,51.1z M295.7,45.9c0.9,1,1.8,2.3,2.4,3.4
			l-1.8,1c-0.4-1.3-0.8-2.7-1.3-3.9L295.7,45.9z M305.6,52.3c-2.7,0-3.1-0.3-3.1-2.5v-6.5c-0.4,0.1-0.7,0.2-1.1,0.2v0.8
			c0,3.7-0.7,7-5.4,8.5l-0.4-0.9c3.3-2,3.5-4,3.5-7.7v-0.3c-0.5,0.1-1,0.1-1.4,0.2l-0.5-2.3c0.6,0,1.1,0,1.7,0
			c0.5-1.1,1-2.5,1.3-3.8h-3v-1.2h5c-0.8-0.8-1.7-1.5-2.5-2.1l0.5-0.9c1.3,0.3,3,1.1,4.3,1.9l-0.9,1.2h4.3v1.2h-4.7
			c-0.8,1.3-1.8,2.7-2.7,3.7c1.5,0,3-0.1,4.5-0.3c-0.3-0.7-0.7-1.4-1-1.9l0.6-0.6c1.3,1.2,2.8,3.2,3.5,4.5l-2,1.2
			c-0.2-0.6-0.5-1.3-0.8-2.1c-0.1,0.1-0.3,0.1-0.5,0.1v6.4c0,0.8,0.1,1,0.9,1s0.9-0.2,0.9-3.5h1C308.8,51.7,307.9,52.3,305.6,52.3z"
			/>
	</g>
</g>
</svg>
