<?xml version="1.0" encoding="utf-8"?>
<!-- Generator: Adobe Illustrator 25.0.1, SVG Export Plug-In . SVG Version: 6.00 Build 0)  -->
<svg version="1.1" id="圖層_1" xmlns="http://www.w3.org/2000/svg" xmlns:xlink="http://www.w3.org/1999/xlink" x="0px" y="0px"
	 viewBox="0 0 340 64" style="enable-background:new 0 0 340 64;" xml:space="preserve">
<style type="text/css">
	.st0{fill:#F29600;}
	.st1{fill:#00A73C;}
	.st2{fill:#B7D100;}
	.st3{fill:#029914;}
	.st4{enable-background:new    ;}
	.st5{fill:#222222;}
	.st6{fill:#FFFFFF;}
	.st7{fill:#009844;}
</style>
<g>
	<path class="st0" d="M29.3,10.2c3.5-0.1,6.5,2.6,6.7,6.1c0.1,3.5-2.6,6.5-6.1,6.6c-3.5,0.2-6.5-2.6-6.6-6
		C23.1,13.4,25.9,10.4,29.3,10.2z"/>
	<path class="st1" d="M52.2,30.9v-1.4c0,0,0.1,0,0.1-0.1v-0.2c-0.1,0-0.1,0-0.1,0v-1.5c0.2,0.1,0.3,0.2,0.5,0.3
		c0.3-0.1,0.3,0.3,0.4,0.3c0.2,0.3,0.5,0.5,0.8,0.4c0.2-0.3,0.3,0.3,0.5,0.3c0.3,0.3,0.3,0.7,0.7,0.8c0.7,0.8,0.8,0.3,1.3,1.4
		c-0.3,0,0,0-0.3-0.2c-0.2,0.1-0.3-0.6-0.3-0.3c0,0.2,0.2,0.3,0,0.3c-0.4-0.2-0.8-0.4-1.3-0.7c-0.3-0.1-0.5-0.1-0.7-0.3
		c0,0,0.1-0.1,0-0.1c-0.3-0.2-1-0.5-1.3-0.5c-0.1,0.1,0.1,0.3,0.2,0.3c0.1,0,0.1,0.1,0.2,0.3h-0.1c0,0.2,0.7,0.4,0.7,0.6
		c0.1,0.2,0.2,0.3,0.3,0.2c0.1-0.3,0.3,0.1,0.5,0.1s0.4,0,0.6,0.1c0.1,0.2,0.2,0.3,0.3,0.3c0.1-0.3,0.3,0,0.4,0
		c0,0.3,0.3,0.6,0.4,0.6c0.2,0.2,0.3,0.1,0.4,0.3c0.1,0,0.2-0.1,0.2-0.2c-0.1-0.3-0.3-0.1-0.3-0.3c0.2,0,1.3,1.3,0.9,1.3
		C55.6,31.9,53.9,31.3,52.2,30.9L52.2,30.9z M52.2,27.3v-0.4c0.2,0.1,0.3,0.3,0.4,0.4C52.6,27.3,52.4,27.3,52.2,27.3L52.2,27.3z
		 M52.2,26.3V26c0.3,0.3,0.3,0.3,0.3,0.4C52.4,26.3,52.3,26.3,52.2,26.3z M52.2,26v0.3C51.9,26,51.4,26,51,25.8v-0.4
		C51.6,25.6,52,25.8,52.2,26L52.2,26z M52.2,26.8v0.4c-0.1-0.1-0.3-0.2-0.3-0.3c0-0.1-0.2-0.2-0.1-0.3C52,26.7,52.1,26.8,52.2,26.8
		L52.2,26.8z M52.2,27.8c-0.1-0.1-0.2-0.3-0.3-0.3c-0.3,0.1-0.6-0.1-0.9-0.3v1.7c0.4,0.2,0.8,0.3,1.2,0.4V27.8L52.2,27.8z
		 M52.2,29.5v1.4c-0.4,0-0.8-0.1-1.2-0.2V29c0.1,0.1,0.2,0.1,0.3,0.1c0.3,0,0.3,0.5,0.6,0.5C51.8,29.4,52.1,29.5,52.2,29.5
		L52.2,29.5z M51.1,26.6L51.1,26.6c0.2,0,0.3,0,0.5,0.1c0,0.1-0.2,0.2-0.3,0.2C51.2,26.7,51.1,26.7,51.1,26.6z M51.1,25.3v0.4
		c0,0-0.1-0.1-0.2-0.1c-0.3,0,0.1,0.4-0.2,0.2c0-0.2-0.2-0.3-0.2-0.3c-0.2,0-0.3,0-0.5,0v-0.8C50.4,24.9,50.7,25,51.1,25.3
		L51.1,25.3L51.1,25.3z M51.1,26.5L51.1,26.5c-0.1,0.1-0.3,0.2-0.4-0.1c0.1-0.1,0.2-0.1,0.2-0.1C50.9,26.4,51,26.5,51.1,26.5
		L51.1,26.5z M51.1,27.2v1.7c-0.2-0.1-0.4-0.2-0.7-0.3c-0.1,0-0.3,0-0.3,0v-1.8c0.2,0.1,0.3,0.3,0.5,0.2
		C50.7,27.1,51,26.8,51.1,27.2L51.1,27.2L51.1,27.2z M51.1,29.1v1.7c-0.3,0-0.7-0.1-1-0.1v-1.8C50.4,28.9,50.7,29,51.1,29.1
		L51.1,29.1z M50.1,26.3L50.1,26.3c0.1-0.1,0-0.1,0-0.2V26.3L50.1,26.3z M50.1,24.3v-0.4c0.3,0.2,0.4,0.4,0.7,0.6v0.1
		C50.5,24.6,50.2,24.5,50.1,24.3z M50.1,23.9v0.4c-0.3-0.1-0.5-0.3-0.8-0.4c0.1-0.2,0.3-0.2,0.5-0.1C49.9,23.8,50,23.9,50.1,23.9
		L50.1,23.9z M50.1,24.7c-0.1,0-0.2-0.1-0.3-0.1c-0.2-0.1-0.4,0-0.6-0.2c-0.3-0.3-0.5-0.1-0.8-0.1v0.4c0.3,0.1,0.7,0.2,1,0.3
		c0.2,0.3,0.3,0.3,0.6,0.3L50.1,24.7L50.1,24.7z M50.1,26.1v0.2c-0.3,0-0.9-0.3-1-0.3l-0.2-0.3C49,25.7,49.7,25.9,50.1,26.1
		L50.1,26.1z M50.1,26.8v1.8c-0.1-0.1-0.3-0.1-0.3-0.2c-0.2,0-0.4,0.1-0.4,0.3c0.3,0.1,0.5,0.2,0.8,0.3v1.8c-0.6,0-1.1-0.1-1.6,0
		v-4.3c0.4,0.1,0.8,0.2,1.3,0.4C49.8,26.8,49.9,26.8,50.1,26.8L50.1,26.8z M48.5,54.2v-0.4c0.3,0.2,0.5,0.3,0.8,0.4
		C49,54.2,48.7,54.2,48.5,54.2L48.5,54.2z M48.5,23.7v-0.3c0,0.1,0.1,0.1,0.1,0.1c0.1-0.1,0.3-0.1,0.3,0.1v0.1
		C48.8,23.8,48.6,23.7,48.5,23.7z M48.5,23.5v0.3c-0.2-0.1-0.3-0.2-0.4-0.2c0-0.2,0.2-0.1,0.2-0.3C48.3,23.3,48.4,23.4,48.5,23.5
		L48.5,23.5z M48.5,24.4v0.4c-0.3-0.1-0.6-0.2-0.9-0.1c-0.1,0-0.1,0.2-0.2,0.2V24c0.1,0,0.2,0.1,0.3,0.2c0.3-0.1,0.4,0.2,0.6,0.1
		C48.3,24.4,48.4,24.4,48.5,24.4L48.5,24.4z M48.5,26.3v4.3c-0.3,0-0.8,0-1.1,0V26c0.1,0,0.1-0.2,0.1-0.2c0.4-0.3,0.2,0.5,0.6,0.4
		C48.1,26.3,48.3,26.3,48.5,26.3L48.5,26.3z M48.5,53.8v0.4c-0.3,0-0.8,0-1.1-0.1v-1C47.7,53.4,48.1,53.5,48.5,53.8L48.5,53.8z
		 M47.4,25.5c0.3,0.1,0.8,0.2,0.8,0.2c0-0.1-0.3-0.3-0.3-0.3c-0.1,0-0.3-0.1-0.5-0.1V25.5L47.4,25.5z M47.4,23.5v-0.3
		c0.1,0,0.1,0,0.2,0c0.2,0,0.3-0.1,0.2,0.3C47.6,23.5,47.5,23.6,47.4,23.5z M47.4,23.2v0.3c-0.1,0-0.2,0-0.2-0.1
		c-0.1-0.1-0.3-0.2-0.3-0.3C47.1,23,47.3,23.1,47.4,23.2L47.4,23.2z M47.4,24v0.9h-0.1c-0.2-0.2-0.3-0.4-0.4-0.3
		c-0.1,0.1,0,0.3-0.1,0.3c-0.3,0.1-0.5-0.1-0.8,0v-1.1c0.2,0,0.3,0,0.4,0C46.7,24.2,47,23.9,47.4,24L47.4,24z M47.4,25.2v0.3
		c-0.3-0.1-0.4-0.2-0.3-0.3C47,25.2,47.2,25.2,47.4,25.2L47.4,25.2z M47.4,26v4.7c-0.4,0.1-0.8,0.2-1.3,0.3v-5.2c0.6,0,1,0,1.2,0
		C47.2,25.8,47.3,25.9,47.4,26L47.4,26L47.4,26z M47.4,53.1v1c-0.4,0-0.8,0-1.3,0v-1.8C46.5,52.5,47,52.9,47.4,53.1L47.4,53.1z
		 M46,23.3v-0.4c0.2,0.1,0.3,0.1,0.4,0.2h0.2c0.1,0.1,0.2,0.1,0.2,0.3C46.7,23.3,46.4,23.3,46,23.3z M44.1,22.9
		c0.3,0.2,0.6,0.3,0.9,0.3c-0.4,0-0.8,0.1-1.3,0.2v-0.3C43.9,23.1,44,23,44.1,22.9L44.1,22.9z M46,22.9v0.4
		c-0.3-0.1-0.6-0.1-0.7-0.2c0-0.1,0.3-0.2,0.3-0.3C45.7,22.8,45.9,22.9,46,22.9L46,22.9z M46,23.8v1.1l0,0c0.1,0.3-1.5,0.6-1.3,0.6
		c0.2,0.2,0.8,0.3,1.4,0.3V31c-0.8,0.1-1.6,0.3-2.3,0.6v-6.3c0.2,0,0.3,0.1,0.5,0c0.3,0,0.8,0.1,1-0.3l-0.1-0.1
		c-0.5-0.2-0.9-0.1-1.4,0.1v-1.1c0.2,0,0.3,0,0.4-0.1c0.3,0.1,0.5,0.3,0.8,0.1C45.3,23.7,45.7,23.8,46,23.8L46,23.8z M46,52.3v1.8
		c-0.8-0.1-1.6-0.2-2.3-0.3v-3.3C44.4,51.1,45.2,51.7,46,52.3z M43.7,23.3c-0.4,0.1-0.8,0.2-1.3,0c0.2-0.3,0.4,0,0.5-0.4
		c0.3,0,0.5,0.1,0.8,0.2V23.3L43.7,23.3z M43.7,23.8v1.1c-0.1,0.1-0.3,0.2-0.3,0.3c0.1,0,0.3,0,0.3,0.1v6.3
		c-0.6,0.3-1.1,0.5-1.6,0.8v-6.9h0.3c0.3-0.3,0.4-0.2,0.6-0.5c-0.1,0-0.6-0.1-0.9-0.1v-0.7c0.3,0.1,0.5,0,0.8-0.3
		C43.1,23.7,43.4,23.7,43.7,23.8L43.7,23.8z M43.7,50.6v3.3c-0.5-0.1-1.1-0.2-1.6-0.3v-4.4C42.6,49.6,43.1,50.1,43.7,50.6L43.7,50.6
		z M42.1,23.4v-0.2V23.4L42.1,23.4z M42.1,23.2v0.2c-0.2,0.1-0.4,0.1-0.5,0.2c-1.3,0.3-1.3,0.1-2.3,0.8c-0.7,0.5-1.6,0.5-2.1,1.3
		v0.1c0.6,0.1,1.1-0.5,1.6-0.8c1.1-0.4,1-0.7,2.3-0.8c0.3-0.2,0.7-0.1,1-0.1v0.7c-0.3,0-0.5,0.1-0.6,0.1c0,0.2,0.3,0.2,0.3,0.2
		c0,0.7-0.6,0.1-0.8,0.5l1-0.2v6.9c-5.7,3-7.7,9.8,0,16.9v4.4c-10.1-1.8-15-7.2-15.6-13v-2.4c0.7-6.3,5.9-12.5,14.5-14.9
		C41.4,23.2,41.8,23.2,42.1,23.2L42.1,23.2z"/>
	<path class="st2" d="M25.5,35c2.7-10.4-5.9-16.7-16.6-19.5C25,29.9,4.8,50,36.6,53.9C34.8,53.4,21.9,48.5,25.5,35z"/>
</g>
<rect x="143" y="30.7" class="st3" width="85" height="25"/>
<g class="st4">
	<path class="st5" d="M65.6,43.6c0,1.2-0.1,2.4-0.3,3.5c1-1.5,1.7-3.4,2.1-5.4l2.3,0.7c-0.2,0.6-0.4,1.1-0.7,1.6h2v-2.2h2.5v2.2h5
		v1.2h-5v1.8h4.5V48h-4.5v2.1h6v1.2H65.1v-1.2h6V48h-4v-1.2h4v-1.8h-2.7c-0.7,1.1-1.6,2.1-2.6,3l-0.5-0.6c-0.4,1.9-1.2,3.5-2.4,4.6
		L62,51.5c0.9-2,1.2-3.9,1.2-7.9V40h3L66,39.4c1.6-0.3,2.9-0.6,4.1-1c-1.2-0.4-2.4-0.7-3.4-0.9l0.2-0.9c1.4,0.2,3.3,0.5,5.2,0.9
		c0.6-0.3,1.2-0.6,1.7-1H63.5v-1.2h7.5c-0.9-0.5-2-0.9-2.7-1.3l0.2-0.9c1.2,0.1,3.2,0.5,4.8,1l-0.6,1.2h6.6v1.2H76l0.5,0.3
		c-0.6,0.4-1.3,0.9-2,1.3c1,0.3,2,0.6,2.8,0.9l-0.5,1h3v1.2H65.6V43.6z M68.3,40h6.4c-0.8-0.3-1.7-0.7-2.6-1
		C71,39.4,69.7,39.8,68.3,40z"/>
	<path class="st5" d="M89.3,48l0.3,1c-1.6,1-5.2,2.2-7.1,2.6l-0.6-2.3c0.8-0.1,1.8-0.2,2.8-0.4v-1L83,48.3c-0.1-1.2-0.4-2.9-0.6-4.2
		l0.9-0.2c0.7,1.2,1.2,2.7,1.5,3.9v-4.5h-2.4v-1.2h2.4v-2.1h-1.6v-0.3c-0.3,0.2-0.6,0.5-0.9,0.7l-0.6-0.8c1.7-1.8,2.7-4,3.5-6.6
		l2.3,0.8c-0.1,0.3-0.2,0.5-0.3,0.8c1,0.6,2.2,1.6,3,2.5l-1.7,1.4c-0.6-1-1.3-2-2-2.8c-0.6,1.2-1.4,2.2-2.3,3.1h4.5v1.2H87v2.1h2.3
		v1.2H87v4.2c0.3-1.1,0.6-2.5,0.7-3.7l1.8,0.5c-0.4,1.2-0.9,2.5-1.8,3.7L87,47.7v0.9C87.9,48.4,88.7,48.2,89.3,48z M93.4,38.1
		l-2.1,1c-0.4-1.3-1.1-3.1-1.7-4.5l0.9-0.5C91.6,35.2,92.7,36.7,93.4,38.1z M95.8,39.4h3.3v10.4c0,2.4-2.3,2.8-5.1,1.2l0.2-1
		c2.2,0.4,2.4,0.1,2.4-0.8v-2.4h-4.3v5.1H90V39.4h3.4v-5.9h2.4V39.4z M96.7,40.6h-4.3v1.8h4.3V40.6z M96.7,45.6v-2h-4.3v2H96.7z
		 M96.7,39l-0.8-0.5c0.6-1.4,1.3-3.1,1.7-4.5l2.2,1C99,36.4,97.8,38,96.7,39z"/>
	<path class="st5" d="M119.1,52.1c-1.6-0.2-3.1-0.7-4.4-1.5c-1.6,0.9-3.4,1.3-5.3,1.5l-0.2-0.9c1.8-0.3,3.2-0.9,4.2-1.6
		c-0.5-0.5-1-1.1-1.3-1.7c-0.7,0.7-1.5,1.3-2.3,1.7l-0.5-0.7c1.4-1.2,2.2-2.5,2.7-3.8h-1v-2.5c-0.3,0.4-0.7,0.7-1,1l-0.6-0.6
		c-0.1,0.2-0.3,0.4-0.5,0.6V52h-2.2v-6.2c-0.4,0.4-0.8,0.6-1.1,0.9l-0.4-0.5c-0.4,2.8-1.2,4.8-2.3,6l-0.9-0.5
		c1.1-2.5,1.2-5.6,1.2-11.5v-6h15.5v3.7h-6.6l1.4,0.4c-0.1,0.2-0.2,0.5-0.3,0.8h5.8v1.2h-6.4l-0.4,0.7h6V45h-5.2l1,0.4
		c-0.1,0.2-0.2,0.4-0.4,0.7h2.3l0.5-0.4l2,1c-0.6,1.1-1.3,2-2.1,2.7c1,0.3,2.2,0.4,3.5,0.5L119.1,52.1z M108.7,40l1.7,0.8
		c0.4-0.9,0.7-1.9,0.9-3h-2.9l1.1,0.4c-0.7,1.4-2.1,3.1-3.5,4.1l-0.4-0.5c-0.1,1.4-0.2,2.6-0.3,3.8C106.5,44.3,107.8,42.2,108.7,40z
		 M105.6,39.4c0,0.7,0,1.4,0,2.1c0.8-1,1.4-2.2,2-3.6h-1.9V39.4z M105.6,36.7h10.7v-1.4h-10.7V36.7z M114.5,48.7
		c0.5-0.5,0.9-1,1.3-1.6h-3c0,0,0,0.1-0.1,0.1C113.3,47.8,113.9,48.3,114.5,48.7z M113.1,42.5h3v-0.7h-3V42.5z M113.1,44.1h3v-0.8
		h-3V44.1z"/>
	<path class="st5" d="M125.4,44.2c-0.3,3.7-1,6-2.3,7.7l-0.9-0.5c1-2.7,1-4.5,1-11.8v-5.5h16.1v1.2h-2l1.4,1.6
		c-0.6,0.2-1.3,0.4-2.2,0.6v1.4h2.3V40h-2c0.7,1.2,1.8,2.2,2.9,2.8l-1.3,1.7c-0.8-0.7-1.4-1.7-1.9-3v3.5h-2.1v-3.2
		c-0.7,1-1.6,1.9-2.9,2.7l-0.5-0.7c1.3-1.2,2.1-2.4,2.8-3.8h-1.3v-1.1h1.9v-1c-0.7,0.1-1.4,0.2-2.1,0.2l-0.2-0.9
		c1.9-0.4,3.5-1,5-1.8h-11.6v3.7C125.5,41,125.5,42.7,125.4,44.2c0.9-1.2,1.6-2.4,2.3-4.2H126v-1.1h2.2v-1.1c-0.7,0.1-1.4,0.1-2,0.1
		l-0.1-0.9c1.9-0.4,3.7-1,5-1.7l1.4,1.6c-0.7,0.2-1.4,0.4-2.1,0.5v1.4h1.9V40h-1.9v0.2c0.8,0.4,1.4,0.9,2.2,1.5l-1.2,1.3
		c-0.3-0.5-0.6-1-0.9-1.4v3.4h-2.1v-2.7c-0.6,1-1.2,1.7-2.2,2.5L125.4,44.2z M133.8,50.1h5.7v1.2h-14.9v-1.2h2.7v-4.3h2.2v4.3h1.9
		v-5.4h2.4v2.1h4.2v1.2h-4.2V50.1z"/>
</g>
<g class="st4">
	<path class="st6" d="M153.5,45.6c-1.4,1.2-4.4,2.8-6.3,3.5l-0.9-2.4c0.7-0.1,1.5-0.3,2.3-0.5v-4.8h-1.8v-1.2h1.8v-4.3h-2v-1.1h6.3
		v1.2h-1.9v4.3h1.7v1.2h-1.7v4c0.7-0.2,1.4-0.5,1.9-0.7L153.5,45.6z M164.8,49.7l-1.3,2.3c-2.5-1.2-4.3-3.6-4.9-7h-0.1
		c-0.3,0.4-0.7,0.8-1.2,1.2V49c0.7-0.2,1.3-0.4,1.9-0.6l0.4,0.9c-2,1.4-4,2.2-5.9,2.6l-0.7-2.1c0.7-0.1,1.4-0.2,2.1-0.3v-1.9
		c-1.3,0.7-2.7,1.2-3.5,1.4l-0.4-1c1.6-0.6,3.3-1.6,4.6-3.1h-2.1v-3.6h9.7V45h-0.8l1.7,1.4c-0.9,0.7-1.8,1.2-2.8,1.5
		C162.4,48.7,163.5,49.3,164.8,49.7z M153,39.4h11.2v1.2H153V39.4z M163.8,38.5h-10.3v-4.4h10.3V38.5z M156.5,35.3h-0.9v2.1h0.9
		V35.3z M156,43.9h5.2v-1.4H156V43.9z M159,35.3h-0.9v2.1h0.9V35.3z M159.7,45c0.3,0.8,0.6,1.5,1.1,2.1c0.7-0.6,1.3-1.3,1.8-2.1
		H159.7z M161.7,35.3h-1v2.1h1V35.3z"/>
	<path class="st6" d="M182,51.5c-2.8,0-3.3-0.4-3.3-2v-2.9H178c-0.6,2.8-2.7,4.9-7.3,5.5l-0.3-1c3.5-1.1,4.7-2.4,5.3-4.6h-2.2v-1.5
		c-1.8,1.4-4.1,2.8-6.1,3.6l-1-2.5c0.7-0.1,1.5-0.3,2.3-0.6v-6.5h-2v-1.2h2v-4.6h2.4v4.6h1.9v1.2h2.6c-0.4-0.7-0.8-1.4-1.3-2.1
		l0.3-0.3h-1.4v-1.2h4.7c-0.7-0.5-1.5-1-2.3-1.5l0.3-0.9c1.2,0.2,2.9,0.7,4.1,1.2l-0.7,1.2h4.3v1.2h-2.1l1.2,0.5
		c-0.5,0.6-1,1.3-1.7,1.9h3.3v1.2h-11.6v-1.2h-1.6v5.8c0.7-0.2,1.3-0.5,2-0.7l0.4,0.9v-3.8h10v5.4h-2.6v2c0,0.7,0.2,0.9,1.3,0.9
		c1,0,1.1-0.2,1.1-2.3h1C184.9,50.5,184.9,51.5,182,51.5z M177.6,38.5l-0.8,0.6h2.6c0.4-0.8,0.7-1.5,0.9-2.4h-4.8
		C176.3,37.2,177,37.9,177.6,38.5z M175.7,43.4h5.4v-1h-5.4V43.4z M175.7,45.5h5.4v-1h-5.4V45.5z"/>
	<path class="st6" d="M199.9,37.6v1.6h3.8v10.9c0,1.8-1.3,2.3-3.7,1.3l0.1-1c1.2,0.1,1.3-0.1,1.3-0.8v-2.5h-1.6v4.4h-2.2v-4.4h-1.5
		v4.7h-2.3v-6.4l-1.2,1c-0.4-0.7-0.8-1.6-1.3-2.3V52H189v-7.4c-0.6,0.5-1.3,1-2.1,1.5l-0.6-0.8c2.4-2.1,3.7-4.3,4.5-6.5h-4v-1.2h4.2
		l0.5-0.4l1.9,1c-0.7,1.5-1.4,2.8-2.2,3.9v0.3l0.4,0.3c0.4-0.7,0.8-1.4,1.2-2.1l0.9,0.7v-2h3.7v-1.6h-4.4v-1.2h4.4v-2.9h2.4v2.9h2.4
		c-0.6-0.7-1.4-1.5-2-2.1l0.5-0.7c0.9,0.3,2.3,0.9,3.3,1.7l-1,1.2h1.2v1.2H199.9z M191.8,36.1l-1.9,1.4c-0.5-1.2-1.3-2.6-1.9-3.7
		l0.7-0.6C189.7,34,191,35.1,191.8,36.1z M193.8,44.6v-2.3c-0.4,0.4-0.9,0.7-1.3,1C193,43.7,193.4,44.1,193.8,44.6z M197.7,40.4
		h-1.5v2.2h1.5V40.4z M197.7,43.8h-1.5V46h1.5V43.8z M199.9,40.4v2.2h1.6v-2.2H199.9z M201.5,43.8h-1.6V46h1.6V43.8z"/>
	<path class="st6" d="M208.5,46.3l2.3,0.8c-0.6,1.5-2,3.8-3.3,5l-0.9-0.6C207.3,50.3,208.1,48.1,208.5,46.3z M214.1,46.2h-6.6V34.4
		h6.6V46.2z M211.8,35.6h-2v2.3h2V35.6z M211.8,39.1h-2v2.2h2V39.1z M211.8,42.5h-2V45h2V42.5z M220.3,39.1V43h3.5v8.8h-2.5v-1.5h-4
		v1.5h-2.5v-1.2l-2.1,0.9c-0.3-1.4-1-3.5-1.4-4.6l0.9-0.6c0.9,1,2.2,3,2.6,4.2V43h2.9v-9.4h2.5v4.3h4.2v1.2H220.3z M217.3,44.2v4.8
		h4v-4.8H217.3z"/>
</g>
<g class="st4">
	<path class="st5" d="M248,52.8c-2-0.6-4-1.6-5.7-3.1c-2.1,1.6-4.6,2.7-7.7,3.2l-0.3-1c2.9-1,5-2.2,6.6-3.7c-1.4-1.6-2.4-3.6-3-6.2
		c-0.8,4.5-2.6,8.2-5.8,10.7l-0.7-0.8c3.2-3.9,4.1-8.7,4.2-15.5h-3.1v-1.3h12.4c-0.4,2.1-1,4.1-1.4,5.5h1l0.6-0.6l2.6,1.1
		c-0.8,2.8-2,5.1-3.7,6.9c1.6,0.9,3.4,1.5,5.4,2L248,52.8z M238.4,36.4c-0.1,1.4-0.2,2.8-0.3,4.1h2.9c0.4-1.2,0.7-2.7,1-4.1H238.4z
		 M244.5,41.8h-5.6c0.8,2.1,1.9,3.7,3.3,4.8C243.2,45.2,244,43.6,244.5,41.8z"/>
	<path class="st5" d="M268.8,47.4c-0.7-0.2-1.5-0.4-2.4-0.8v6H264v-0.8h-7.1v0.8h-2.4v-6c-0.9,0.4-1.9,0.7-2.8,0.9l-0.4-0.9
		c2.4-0.9,4.8-2.3,6.2-4H252v-1.2h4.7c-0.5-0.6-1-1.2-1.4-1.6l0.3-0.4c-0.2,0-0.4,0-0.6,0l-0.1-0.9c3.4-0.3,6.2-0.7,8.1-1.2h-8.4
		v2.7h-2.3v-3.9h8.3c-1-0.4-2.1-0.9-3-1.2l0.2-0.9c1.1,0.1,3.1,0.3,4.7,0.8l-0.6,1.4h7v3.9h-2.3v-2.7h-2l1.3,1.3
		c-0.4,0.1-0.8,0.2-1.3,0.2l1.5,0.8c-0.6,0.7-1.2,1.3-1.8,1.8h4.8v1.2h-6.5c2.2,1.5,4.7,2.1,7.4,2.4L268.8,47.4z M264.6,45.8
		c-1.1-0.6-2.2-1.4-3-2.3v1.9h-2.5v-1.5c-0.8,0.8-1.8,1.4-2.8,2H264.6z M258.5,40.8l-0.6,0.6h1.2v-2.1c-0.9,0.1-1.8,0.1-2.7,0.1
		C257.2,39.7,257.9,40.2,258.5,40.8z M259.2,46.9h-2.3v1.3h2.3V46.9z M259.2,49.2h-2.3v1.4h2.3V49.2z M263.9,38.9
		c-0.7,0.1-1.5,0.2-2.2,0.3v2.3h0.9C263,40.6,263.6,39.7,263.9,38.9z M264,46.9h-2.3v1.3h2.3V46.9z M264,49.2h-2.3v1.4h2.3V49.2z"/>
	<path class="st5" d="M277.2,37.9h-5.1v-1.2h7v-2.6h2.6v2.6h7v1.2h-6.2c1.9,1.9,4.2,2.9,6.8,3.6l-1.4,2.5c-2.8-1.2-5.2-3.2-6.3-5.4
		v3.7h-2.6v-3.2c-1.5,2.3-4.5,4.2-7.2,5.2l-0.4-0.9C273.9,42,276.1,40,277.2,37.9z M271.7,50.9h17.5v1.2h-17.5V50.9z M274.9,42.9
		H286v6.7h-11.1V42.9z M277.5,45.6h6v-1.5h-6V45.6z M277.5,48.5h6v-1.7h-6V48.5z"/>
	<path class="st5" d="M291.8,52.1l-0.5-0.9c2.1-1.3,3.9-3,5.4-5.1l2.2,1.4C297.4,49.1,294.8,51,291.8,52.1z M302.2,45.3v5.1
		c0,2.2-2.1,3.1-5.6,1.1l0.3-1c2.4,0.4,2.7,0.2,2.7-0.9v-4c-2.4,0.3-4.7,0.4-6.3,0.5l-0.6-2.4c1.2,0.1,2.4,0.1,3.6,0.1
		c1.5-0.8,3-1.7,4.4-2.8c-2.2,0.5-4.4,0.7-6.1,0.9l-0.6-2.3c0.8,0.1,1.7,0.1,2.5,0.1c0.8-0.8,1.5-1.7,2.1-2.6c-2,0.1-4,0.2-5.5,0.2
		l-0.2-1c4.7-0.4,9.2-1.1,12.8-2.4l2.2,1.9c-1.8,0.4-3.8,0.7-5.9,1c-1.1,1-2.6,2.1-3.9,3c1.3,0,2.7,0,4-0.1c0.8-0.7,1.5-1.5,2.2-2.3
		l2.4,1.5c-2.4,2.2-5.1,3.9-7.8,5.1c2.2-0.1,4.4-0.2,6.4-0.4c-0.4-0.6-0.8-1.1-1.1-1.6l0.8-0.6c1.4,0.9,3.3,2.5,4.2,3.9l-2,1.5
		c-0.4-0.7-0.8-1.4-1.2-2.1C305,44.9,303.6,45.1,302.2,45.3z M309.5,49.7l-1.8,2.1c-1.1-1.3-3.5-3.5-5.2-4.8l0.5-0.9
		C305.2,46.8,308.1,48.4,309.5,49.7z"/>
	<path class="st5" d="M314.1,46.8c0,2.2-0.2,4.2-0.5,5.7l-2.3-0.9c0.8-1.3,1.5-2.9,1.9-5L314.1,46.8z M313,44.2
		c0.9-1.1,1.6-2.2,2.3-3.5c-1.1,0.4-2.2,0.7-3.2,0.9l-0.4-2.2c0.4,0,0.8,0,1.1,0c0.7-1.7,1.2-3.7,1.6-5.5l2.5,0.7
		c-0.7,1.7-1.8,3.5-2.8,4.9c0.7,0,1.3,0,1.9-0.1c0.3-0.6,0.6-1.3,0.9-2l2.2,1.1c-1.4,2.3-3,4.2-4.5,5.5c0.8-0.1,1.7-0.2,2.5-0.3
		l-0.5-1.4l0.9-0.4c0.8,0.9,1.5,2.2,2.1,3.5l-1.8,0.7c-0.1-0.4-0.2-0.9-0.3-1.3c-1.7,0.7-3.7,1.4-5.3,1.6l-0.5-2.1L313,44.2z
		 M317.2,51.1l-2.1,0.4c0-1.4-0.2-3.4-0.4-4.9l0.9-0.2C316.2,47.9,316.8,49.8,317.2,51.1z M317.1,45.9c0.9,1,1.8,2.3,2.4,3.4l-1.8,1
		c-0.4-1.3-0.8-2.7-1.3-3.9L317.1,45.9z M327,52.3c-2.7,0-3.1-0.3-3.1-2.5v-6.5c-0.4,0.1-0.7,0.2-1.1,0.2v0.8c0,3.7-0.7,7-5.4,8.5
		l-0.4-0.9c3.3-2,3.5-4,3.5-7.7v-0.3c-0.5,0.1-1,0.1-1.4,0.2l-0.5-2.3c0.6,0,1.1,0,1.7,0c0.5-1.1,1-2.5,1.3-3.8h-3v-1.2h5
		c-0.8-0.8-1.7-1.5-2.5-2.1l0.5-0.9c1.3,0.3,3,1.1,4.3,1.9l-0.9,1.2h4.3v1.2h-4.7c-0.8,1.3-1.8,2.7-2.7,3.7c1.5,0,3-0.1,4.5-0.3
		c-0.3-0.7-0.7-1.4-1-1.9L326,39c1.3,1.2,2.8,3.2,3.5,4.5l-2,1.2c-0.2-0.6-0.5-1.3-0.8-2.1c-0.1,0.1-0.3,0.1-0.5,0.1v6.4
		c0,0.8,0.1,1,0.9,1c0.8,0,0.9-0.2,0.9-3.5h1C330.2,51.7,329.3,52.3,327,52.3z"/>
</g>
<g>
	<path class="st7" d="M63.9,22.8c-0.1-0.2-0.2-0.6-0.3-1c0-0.1-0.1-0.2-0.1-0.3c1.1-1,2.2-2.2,3.2-3.8l1.1,0.7
		c-0.2,0.4-0.6,0.9-1.1,1.6c0,0-0.1,0.1-0.1,0.1v6.1h-1.3v-4.7C64.8,22,64.3,22.4,63.9,22.8z M64.2,18.7c-0.2-0.6-0.4-1-0.6-1.3
		c1.2-0.9,2.1-1.9,2.9-3l1.1,0.8C66.5,16.6,65.3,17.7,64.2,18.7z M68,20.2v-1.3h7.2v1.3h-2v4c0,1.2-0.6,1.8-1.8,1.8
		c-0.8,0-1.4,0-2,0c-0.1-0.4-0.2-0.8-0.3-1.2c0.4,0,0.9,0,1.7,0c0.7,0,1-0.3,1-0.9v-3.7H68z M68.5,16.5v-1.2h6.1v1.2H68.5z"/>
	<path class="st7" d="M76.4,16.6v-1.2h5.5v1.2h-1.7v2.8h1.3l-0.3-0.5c0.9-1.2,1.6-2.7,2.1-4.4l1.3,0.3c-0.2,0.6-0.4,1.1-0.6,1.7h3.8
		v1.2h-0.9c-0.2,2.3-0.8,4-1.7,5.3c0.7,0.7,1.6,1.3,2.7,1.8c-0.2,0.5-0.5,0.9-0.7,1.3c-1.1-0.7-2-1.4-2.7-2.1
		c-0.8,0.8-1.8,1.5-2.9,2.2c-0.1-0.1-0.2-0.3-0.4-0.6c-0.2-0.3-0.3-0.5-0.4-0.6c0.1,0,0.2-0.1,0.3-0.1c0.4-0.1,0.6-0.3,0.8-0.4
		c-0.4,0.1-1,0.2-1.9,0.3c-1.6,0.2-2.8,0.4-3.6,0.5L76,24.1l0.8-0.1v-5.6H78v5.4l1.1-0.1v-7.1H76.4z M81.8,20.2l-0.2-0.5v1h-1.4v2.9
		c0.3,0,0.8-0.1,1.5-0.2c-0.4,0.1-0.4,0,0.2,0c0,0.2,0,0.6,0,1.2c0.7-0.5,1.3-1,1.8-1.5c-0.6-0.9-1-2.1-1.3-3.5
		C82.2,19.6,82,19.9,81.8,20.2z M83.4,17.6l-0.1,0.3c0.2,1.6,0.6,3,1.2,4c0.7-1.1,1.1-2.5,1.3-4.3H83.4z"/>
	<path class="st7" d="M89.2,26.2V15h3.6v1.2l-1,3.3c0.7,1,1,1.9,1,2.9c0,1.2-0.4,1.9-1.3,2.1c-0.2,0-0.5,0-0.8,0
		c-0.1-0.5-0.2-0.9-0.4-1.3c0.1,0,0.2,0,0.4,0c0.2,0,0.3,0,0.3,0c0.5,0,0.7-0.3,0.7-1c0-0.8-0.3-1.6-1-2.6l0.9-3.4h-1.4v10H89.2z
		 M93.1,21.7v-1.1h7.1v1.1h-2.2v2.7c0,0.3,0.1,0.4,0.4,0.4h0.3c0.3,0,0.5-0.1,0.5-0.4c0.1-0.5,0.1-1,0.1-1.5c0.1,0,0.3,0.1,0.5,0.2
		c0.2,0.1,0.4,0.1,0.5,0.2c-0.1,0.4-0.1,0.8-0.2,1.4v0.1c-0.1,0.8-0.6,1.1-1.5,1.1h-0.5c-0.9,0-1.4-0.4-1.4-1.2v-3h-1.1l0,0.5
		c0,1.7-0.9,3.1-2.7,4c-0.1-0.1-0.2-0.3-0.4-0.5c-0.2-0.2-0.3-0.4-0.4-0.5c1.6-0.7,2.4-1.7,2.4-3.1l0-0.5H93.1z M93.1,18v-2.3h2.7
		v-1.3h1.3v1.3h3V18H99v-1.1h-4.7V18H93.1z M93.8,19.4v-1.1h5.7v1.1H93.8z"/>
	<path class="st7" d="M104.2,26.3l-0.2-0.8c0.2,0,0.4-0.1,0.7-0.1v-1.8h-1.1c-0.1,0.9-0.5,1.9-1.2,2.8c-0.3-0.3-0.6-0.6-1-0.8
		c0.7-0.8,1.1-2.1,1-3.8v-2h10.3v0.8h-9.2v1.2c0,0.3,0,0.6,0,0.9h9.4v0.8h-1.5L112,24c-0.2,0.1-0.4,0.2-0.8,0.3
		c-0.3,0.2-0.6,0.3-0.8,0.4c0.7,0.2,1.5,0.3,2.6,0.4c-0.1,0.1-0.2,0.3-0.3,0.5c-0.1,0.2-0.2,0.4-0.3,0.5c-2.8-0.5-4.6-1.3-5.5-2.7
		h-1.1V25c0.4-0.1,0.9-0.1,1.6-0.2c0.2,0,0.3,0,0.3,0c0,0.2,0,0.5,0,0.8c-0.4,0.1-1.1,0.2-2.1,0.4C104.9,26.1,104.4,26.2,104.2,26.3
		z M102.5,19.1v-3.8h2.8v-0.9h1.2v0.9h1.6v-0.9h1.2v0.9h2.8v3.8H102.5z M103.7,16.1v0.7h1.7v-0.7H103.7z M103.7,17.6v0.7h1.7v-0.7
		H103.7z M104.2,22v-0.7h7.7V22H104.2z M106.6,16.1v0.7h1.6v-0.7H106.6z M106.6,17.6v0.7h1.6v-0.7H106.6z M109.5,24.4
		c0.3-0.1,0.7-0.3,1.2-0.6c0.3-0.1,0.5-0.2,0.6-0.3h-3C108.6,23.9,109,24.2,109.5,24.4z M111.1,16.1h-1.7v0.7h1.7V16.1z M109.4,17.6
		v0.7h1.7v-0.7H109.4z"/>
	<path class="st7" d="M114.3,17.8v-1h3.6v-2.4h1.2v2.4h1.6v-2.4h1.2v2.4h3.7v1h-3.2l0.7,0.1c-0.1,0.1-0.2,0.2-0.3,0.4
		c-0.2,0.3-0.4,0.5-0.5,0.6h2.8v1h-4.5v0.8h3.8v0.9h-3.8v0.8h5v1h-4.1c1,0.6,2.4,1.1,4.3,1.4c-0.2,0.4-0.4,0.7-0.6,1.1
		c-2.1-0.5-3.7-1.2-4.6-2v2.3h-1.3v-2.3c-1,0.9-2.5,1.6-4.6,2.2c-0.1-0.1-0.2-0.3-0.3-0.6c-0.1-0.2-0.2-0.4-0.2-0.5
		c1.9-0.3,3.3-0.8,4.3-1.5h-4.1v-1h5v-0.8h-4v-0.9h4v-0.8h-4.5v-1h2.8l-0.8-1l0.7-0.1H114.3z M116.4,16.8c-0.2-0.2-0.5-0.6-0.9-1
		c-0.2-0.2-0.4-0.4-0.5-0.5l0.9-0.6c0.5,0.5,1,1,1.4,1.5L116.4,16.8z M118.2,17.8l0.9,1.1h1.8l0.9-1.1H118.2z M123.5,16.8l-0.9-0.7
		c0.2-0.2,0.5-0.5,1-1c0.2-0.2,0.3-0.4,0.4-0.5l0.9,0.6C124.5,15.7,124,16.2,123.5,16.8z"/>
	<path class="st7" d="M127.1,18.2v-1h4.9V16c-0.5,0-1,0-1.6,0c-0.5,0-1.3,0-2.3,0c-0.1-0.5-0.2-0.8-0.2-1c2.7,0,5.8-0.1,9.2-0.2
		l0.2,1c-1.4,0.1-2.7,0.1-4.1,0.1v1.2h4.9v1H134c1.1,0.8,2.5,1.2,4.3,1.5c-0.3,0.5-0.4,0.8-0.5,1.1c-2.1-0.5-3.6-1.2-4.6-2.2v1.7
		H132l0.4,0.1c0,0.1-0.1,0.2-0.2,0.3c-0.2,0.2-0.3,0.4-0.3,0.5h6.6v1h-2.2c-0.4,0.7-0.9,1.3-1.5,1.8c0.3,0.1,0.7,0.2,1.4,0.4
		c0.9,0.2,1.6,0.4,2,0.5l-0.6,1.1c-0.8-0.3-1.8-0.6-3.1-1c-0.4-0.2-0.7-0.3-1-0.3c-1.3,0.7-3.3,1.1-5.9,1.4c0-0.1-0.1-0.3-0.2-0.5
		c-0.1-0.3-0.2-0.4-0.2-0.5c2-0.1,3.6-0.4,4.8-0.7l-1.9-0.6l-0.3,0.3l-1.3-0.4c0.4-0.5,0.8-1,1.2-1.5h-2.7v-1h3.5
		c0.1-0.1,0.2-0.2,0.3-0.4c0.1-0.2,0.3-0.4,0.5-0.7l0.9,0.2v-1.6c-1,1-2.5,1.7-4.5,2.3c0-0.1-0.1-0.2-0.1-0.3
		c-0.1-0.2-0.3-0.4-0.5-0.8c1.9-0.4,3.3-1,4.3-1.7H127.1z M133.3,23.7c0.5-0.3,1-0.7,1.4-1.4H131c-0.1,0.2-0.3,0.4-0.4,0.6
		c0.2,0.1,0.6,0.2,1.1,0.3C132.4,23.4,132.9,23.6,133.3,23.7z"/>
	<path class="st7" d="M140,26.3c-0.2-0.5-0.4-0.8-0.5-1c1.6-0.3,3.1-0.6,4.3-0.9l0.5,0.8C143.4,25.5,142,25.8,140,26.3z M140.5,24.1
		v-5.6h9.6v5.6H140.5z M141.1,17.8v-2.9h8.3v2.9H141.1z M141.7,19.4v0.8h7v-0.8H141.7z M141.7,20.9v0.8h7v-0.8H141.7z M141.7,22.5
		v0.8h7v-0.8H141.7z M142.4,15.8v1.1h5.8v-1.1H142.4z M150.5,26.2c-1.4-0.4-2.9-0.8-4.4-1.1l0.4-0.8c1.8,0.3,3.3,0.6,4.4,0.8
		L150.5,26.2z"/>
	<path class="st7" d="M163.3,18c-1.1-0.3-2.1-0.7-2.8-1.1v0.4h-5.1V17c-0.2,0.1-0.4,0.2-0.7,0.3c-0.9,0.4-1.6,0.6-2.2,0.8L152,17
		c2.4-0.7,4.3-1.6,5.5-2.6l1.6,0l-0.3,0.3c1.4,1,3,1.7,5,2.1c0,0.1-0.1,0.2-0.1,0.3C163.5,17.6,163.4,17.9,163.3,18z M153.1,21.4V18
		h9.6v3.4H153.1z M153.8,26.2v-4.1h8.3v4.1h-1.3v-0.4H155v0.4H153.8z M154.2,18.8v1.8h3v-1.8H154.2z M156,20.5
		c-0.1-0.1-0.3-0.3-0.5-0.5c-0.3-0.3-0.5-0.5-0.6-0.6l0.7-0.5c0.1,0.1,0.2,0.2,0.4,0.3c0.4,0.4,0.6,0.6,0.7,0.7L156,20.5z M155,22.9
		v0.7h5.8v-0.7H155z M155,24.3V25h5.8v-0.6H155z M158,15.4c-0.1,0.1-0.3,0.2-0.5,0.3c-0.6,0.4-1.1,0.7-1.4,0.9h3.8
		C159.2,16.2,158.6,15.9,158,15.4z M161.5,18.8h-3v1.8h3V18.8z M159.7,20.5l-0.6-0.6c0.4-0.3,0.8-0.7,1.1-1l0.7,0.5
		C160.5,19.8,160.1,20.2,159.7,20.5z"/>
	<path class="st7" d="M167.4,26.3l-0.2-0.8c0.2,0,0.4-0.1,0.7-0.1v-1.8h-1.1c-0.1,0.9-0.5,1.9-1.2,2.8c-0.3-0.3-0.6-0.6-1-0.8
		c0.7-0.8,1.1-2.1,1-3.8v-2H176v0.8h-9.2v1.2c0,0.3,0,0.6,0,0.9h9.4v0.8h-1.5l0.6,0.5c-0.2,0.1-0.4,0.2-0.8,0.3
		c-0.3,0.2-0.6,0.3-0.8,0.4c0.7,0.2,1.5,0.3,2.6,0.4c-0.1,0.1-0.2,0.3-0.3,0.5c-0.1,0.2-0.2,0.4-0.3,0.5c-2.8-0.5-4.6-1.3-5.5-2.7
		h-1.1V25c0.4-0.1,0.9-0.1,1.6-0.2c0.2,0,0.3,0,0.3,0c0,0.2,0,0.5,0,0.8c-0.4,0.1-1.1,0.2-2.1,0.4C168.2,26.1,167.7,26.2,167.4,26.3
		z M165.8,19.1v-3.8h2.8v-0.9h1.2v0.9h1.6v-0.9h1.2v0.9h2.8v3.8H165.8z M167,16.1v0.7h1.7v-0.7H167z M167,17.6v0.7h1.7v-0.7H167z
		 M167.5,22v-0.7h7.7V22H167.5z M169.8,16.1v0.7h1.6v-0.7H169.8z M169.8,17.6v0.7h1.6v-0.7H169.8z M172.7,24.4
		c0.3-0.1,0.7-0.3,1.2-0.6c0.3-0.1,0.5-0.2,0.6-0.3h-3C171.9,23.9,172.3,24.2,172.7,24.4z M174.4,16.1h-1.7v0.7h1.7V16.1z
		 M172.7,17.6v0.7h1.7v-0.7H172.7z"/>
	<path class="st7" d="M177.4,19.9v-1.1h1.5v-4.4h1.1v4.4h1.3v1.1H180v0.7c0.2,0.1,0.4,0.3,0.8,0.6c0.4,0.4,0.7,0.6,0.8,0.7l-0.6,1
		c-0.1-0.1-0.2-0.2-0.3-0.3c-0.3-0.3-0.6-0.5-0.7-0.7v4.3H179V22c-0.3,0.9-0.7,1.8-1.3,2.6l-0.4-1.4c0.7-0.9,1.2-2,1.6-3.3H177.4z
		 M178.1,18.2c-0.2-0.9-0.5-1.7-0.7-2.4l0.7-0.2c0.1,0.3,0.2,0.7,0.4,1.2c0.2,0.5,0.3,0.9,0.3,1.2L178.1,18.2z M180.8,18.2L180,18
		c0.2-0.4,0.4-1,0.7-2c0.1-0.2,0.1-0.3,0.1-0.4l0.7,0.2C181.5,16.3,181.2,17.1,180.8,18.2z M181.9,23.3v-3.4h6.5v3.4h-2.7v0.6h2.9
		v0.7h-2.9v0.5h3.4v0.8h-8v-0.8h3.5v-0.5h-3v-0.7h3v-0.6H181.9z M181.5,19.3v-0.7h7.5v0.7H181.5z M181.8,18v-3.2h6.6V18H181.8z
		 M182.9,20.5v0.7h1.7v-0.7H182.9z M182.9,21.9v0.7h1.7v-0.7H182.9z M182.9,15.6v0.6h4.3v-0.6H182.9z M182.9,16.8v0.6h4.3v-0.6
		H182.9z M187.3,20.5h-1.7v0.7h1.7V20.5z M185.6,21.9v0.7h1.7v-0.7H185.6z"/>
	<path class="st7" d="M192,26.2v-3.1c-0.5,0.2-1.1,0.3-1.7,0.5c0-0.1-0.1-0.2-0.1-0.4c-0.1-0.4-0.2-0.6-0.2-0.8
		c1.6-0.4,3.3-0.9,5-1.6h-4.8v-0.9h4.3v-0.8h-3.2v-0.9h3.2v-0.8h-3.7v-2.7h10.1v2.7h-5.3v0.8h2.8v0.9h-2.8v0.8h1.3
		c1.1-0.6,2.2-1.2,3.4-2l0.8,0.8c-0.7,0.4-1.4,0.8-2.1,1.2h2.6v0.9h-4.3c-0.3,0.1-0.6,0.3-1.1,0.5c-0.3,0.1-0.5,0.2-0.7,0.3h4.7v4.4
		H199v-0.4h-5.8v0.4H192z M192,15.7v1h1.7v-1H192z M199,22.6h-5.6l0,0c0,0-0.1,0-0.1,0v0.7h5.8V22.6z M193.2,24.2v0.7h5.8v-0.7
		H193.2z M195,15.7v1h1.7v-1H195z M199.7,15.7h-1.8v1h1.8V15.7z"/>
</g>
</svg>
