<?xml version="1.0" encoding="utf-8"?>
<!-- Generator: Adobe Illustrator 26.4.1, SVG Export Plug-In . SVG Version: 6.00 Build 0)  -->
<svg version="1.1" id="圖層_1" xmlns="http://www.w3.org/2000/svg" xmlns:xlink="http://www.w3.org/1999/xlink" x="0px" y="0px"
	 viewBox="0 0 380 64" style="enable-background:new 0 0 380 64;" xml:space="preserve">
<style type="text/css">
	.st0{fill:#009844;}
	.st1{fill:#F29600;}
	.st2{fill:#00A73C;}
	.st3{fill:#B7D100;}
	.st4{fill:#FF6600;}
	.st5{fill:#222222;}
	.st6{fill:#FFFFFF;}
</style>
<g>
	<g>
		<path class="st0" d="M66.3,14.9c-0.2,0.4-0.3,0.9-0.6,1.3V18c0.6-0.7,1.1-1.6,1.6-2.8L66.3,14.9L66.3,14.9z M65.7,21.6v-1.7
			c0.4-0.6,0.7-1.2,1-1.8l1,0.5c-0.3,0.6-0.6,1.2-0.9,1.7v6.2h-1.1V21.6L65.7,21.6L65.7,21.6z M68.6,15.4v1.1h6.7v-1.1H68.6
			L68.6,15.4z M72.7,19.5v5.3c0,0.1,0,0.2-0.1,0.3c-0.2,0.2-0.6,0.2-1.3,0.2c-0.6-0.1-1.2-0.2-1.8-0.4V26c1.8,0.5,3,0.6,3.7,0.2
			c0.4-0.2,0.6-0.6,0.6-1.1v-5.6h1.9v-1.1h-7.5v1.1H72.7z M65.7,16.1c-0.5,0.7-1,1.4-1.6,2l0.9,0.6c0.2-0.2,0.5-0.4,0.7-0.7V16.1
			L65.7,16.1z M65.7,19.9v1.7c-0.3,0.3-0.6,0.5-0.8,0.7L64,21.6C64.7,21.1,65.3,20.5,65.7,19.9z"/>
		<path class="st0" d="M85.8,24.3v-2.4c0.3-0.6,0.6-1.3,0.8-2.1c0.1-0.6,0.2-1.5,0.2-2.5h-1v-1.1h2.8v1.1h-0.7
			c-0.1,2.3-0.6,4.2-1.6,5.8c0.7,1.1,1.5,2,2.4,2.8l-1,0.7C86.9,25.8,86.3,25,85.8,24.3z M82.4,24.5l0.6-0.2l-0.3-1l-0.2,0.1
			L82.4,24.5L82.4,24.5z M82.4,16.4H83v-1.1h-0.6V16.4L82.4,16.4z M85.8,16.2v1.1h-1c0.1,2.2,0.3,3.9,0.8,4.9
			c0.1-0.1,0.1-0.2,0.2-0.3v2.4c-0.1-0.1-0.1-0.2-0.2-0.3c-0.7,0.8-1.7,1.7-3,2.6l-0.2-0.2v-1c1-0.7,1.7-1.3,2.2-1.7
			c0.1-0.2,0.3-0.4,0.5-0.5c-0.6-1.1-1-2.4-1.1-3.6c-0.5,1-0.8,1.7-1,1.9l-0.6-0.2v-0.7c0.1-0.1,0.1-0.2,0.2-0.3
			c0.7-1.4,1.1-3.2,1.1-5.2h1c0,0.5,0,1,0,1.3h1.1V16.2z M77.6,24.9L77,25.1l0.3,1l5.1-1.6v-1.2l-1.7,0.6v-3.4h1.5v-1.1h-1.5v-3h1.7
			v-1.1h-5.1v1.1h2.3v7.8l-1,0.3v-6.1h-1L77.6,24.9L77.6,24.9z M82.4,20.4v0.7L82,21C82.1,20.8,82.3,20.6,82.4,20.4L82.4,20.4z
			 M82.4,25.4v1l-0.6-0.6C82,25.6,82.2,25.5,82.4,25.4z"/>
		<path class="st0" d="M97.5,21.3v-1h3.6v1h-2v3.3c0,0.2,0.1,0.3,0.2,0.4c0.1,0.2,0.3,0.2,0.4,0.2h0.3c0.1,0,0.2-0.1,0.3-0.2
			c0.1,0,0.1-0.5,0.2-1.4l1.1,0.2c-0.1,1.1-0.2,1.8-0.3,1.9c-0.3,0.3-0.5,0.4-0.7,0.4h-1.5c-0.3,0-0.6-0.1-0.8-0.3
			c-0.2-0.2-0.3-0.5-0.3-0.7v-3.9h-0.5V21.3z M97.5,19.1v-1h2.2v1H97.5L97.5,19.1z M97.5,16.8h2.7c0.1,0,0.1,0.1,0.1,0.1
			c0,0.3-0.1,0.9-0.3,1.7l0.9,0.3c0.3-1,0.5-1.9,0.5-2.7l-0.9-0.4h-2.6v-0.9h-0.5v1.9H97.5z M93.9,22.8c0.1-0.3,0.1-0.7,0-1.2V22.8
			L93.9,22.8z M97.5,14.9v1.9h-2.6c-0.1-0.1-0.1,0-0.1,0.1v1.8h-1v-2.9c0-0.1,0.1-0.1,0.1-0.1h2.9v-0.9h0.7V14.9z M97.5,18h-2.2v1
			h2.2V18L97.5,18z M97.5,20.3v1h-0.8v0.8c0,0.3-0.1,0.7-0.2,1.1c-0.4,1.3-1.3,2.3-2.6,3.1v-1.2c0.1-0.1,0.2-0.1,0.3-0.2
			c1-0.7,1.5-1.6,1.5-2.8v-0.8h-1.3v-1H97.5z M92.1,23.9c0.3,0.1,0.5,0,0.7-0.1c0.3,0,0.5-0.2,0.7-0.5c0.2-0.2,0.3-0.4,0.3-0.6v-1.2
			c-0.1-0.1-0.1-0.2-0.1-0.3c-0.2-0.6-0.5-1.2-0.9-1.8c-0.1-0.1-0.1-0.3-0.1-0.5l0.7-3.3l-0.7-0.3h-0.6v1h0.1
			c0.2-0.1,0.3,0.1,0.3,0.3l-0.4,1.5v1.8c0.6,1.1,0.9,1.9,0.8,2.4c0,0.2-0.1,0.3-0.1,0.5c-0.1,0.1-0.2,0.2-0.4,0.2
			c-0.1,0-0.2,0-0.3,0V23.9L92.1,23.9z M93.9,15.8v2.9h-0.1V16C93.8,15.9,93.8,15.8,93.9,15.8L93.9,15.8z M93.9,25.1v1.2
			c-0.1,0.1-0.2,0.1-0.2,0.1L93,25.5C93.3,25.4,93.6,25.3,93.9,25.1z M91.3,23.8c0.3,0.1,0.6,0.2,0.8,0.2v-1
			c-0.3-0.1-0.5-0.2-0.8-0.3v-6.4l0,0c0,0,0,0,0.1,0h0.7v-1h-1.7c-0.1,0-0.1,0-0.1,0l-0.1,0.1v11.1h1.1L91.3,23.8L91.3,23.8z
			 M92.1,18.1v1.8c-0.1-0.2-0.2-0.3-0.3-0.6h0.1v-0.1L92.1,18.1z"/>
		<path class="st0" d="M111.6,19.2h1.9c0.1,0,0.2-0.1,0.2-0.2v-3.2c0-0.1-0.1-0.2-0.2-0.2h-1.9v0.9h1c0.1,0,0.1,0,0.1,0V17h-1v0.8h1
			v0.5c0,0.1,0,0.1-0.1,0.1h-1V19.2L111.6,19.2z M111.6,26.1V24c0.3-0.2,0.6-0.4,0.9-0.5l0.5,0.8c-0.4,0.3-0.9,0.6-1.3,0.8
			c0.6,0.2,1.5,0.4,2.7,0.4l-0.3,1c-0.6-0.1-1.1-0.1-1.6-0.2C112.2,26.2,111.9,26.2,111.6,26.1L111.6,26.1z M111.6,23.3v-0.9h2.5
			v0.9H111.6L111.6,23.3z M111.6,21.9v-0.8h1.9v0.8H111.6L111.6,21.9z M111.6,20.7v-0.9h2.4v0.9H111.6z M110.5,15.7v-0.8h-1v0.8h-1
			v0.9h1v0.5h-1v0.8h1v0.5h-1v0.9h3.2v-0.9h-1.1v-0.5h1.1v-0.8h-1.1v-0.5h1.1v-0.9L110.5,15.7L110.5,15.7z M111.6,19.7v0.9h-3.2
			v-0.9H111.6L111.6,19.7z M111.6,21.1v0.8h-3.2v-0.8H111.6L111.6,21.1z M111.6,22.4v0.9h-2.5c0.4,0.4,0.9,0.8,1.4,1.2
			c0.3-0.2,0.7-0.4,1-0.5v2.1c-1.1-0.4-2.2-1.1-3.2-2.1v-1.6H111.6L111.6,22.4z M108.5,25.9v-1l0,0l0.2,0.9
			C108.6,25.9,108.6,25.9,108.5,25.9z M108.5,15.7h-1v-0.8h-1v0.8h-1.1v0.9h1.1v0.5h-1.1v0.8h1.1v0.5h-1.1v0.9h3.1v-0.9h-1v-0.5h1
			v-0.8h-1v-0.5h1V15.7L108.5,15.7z M108.5,19.7v0.9h-3.1v-0.9H108.5L108.5,19.7z M108.5,21.1v0.8h-3.1v-0.8H108.5L108.5,21.1z
			 M108.5,22.4V24c-0.2-0.2-0.4-0.5-0.6-0.7h-1.1v1.9c0.8-0.1,1.4-0.2,1.8-0.3v1c-0.9,0.2-1.9,0.3-3.1,0.5v-1c0.1,0,0.2,0,0.3,0
			v-2.1h-0.3v-0.9H108.5z M105.4,15.7h-1.9c-0.1,0-0.1,0.1-0.1,0.2v3.2c0,0.1,0.1,0.2,0.1,0.2h1.9v-0.9h-1c-0.1,0-0.1,0-0.1-0.1
			v-0.5h1V17h-1v-0.5c0,0,0,0,0.1,0h1V15.7L105.4,15.7z M105.4,19.7v0.9h-0.9c-0.1,0-0.1,0.1-0.1,0.2v1.5h1v0.9h-1
			c-0.1,1.2-0.3,2.2-0.7,3.2l-0.9-0.3c0.4-1,0.6-2.2,0.7-3.7V20c0-0.2,0.1-0.3,0.2-0.3H105.4L105.4,19.7z M105.4,21.1L105.4,21.1
			l-0.1,0.8h0.1V21.1L105.4,21.1z M105.4,25.4c-0.3,0.1-0.6,0.1-1,0.1l0.1,1c0.3,0,0.6-0.1,0.9-0.1V25.4z"/>
		<path class="st0" d="M121.9,23.9c1.3,0.9,2.9,1.5,4.8,2l0.5-1c-1.8-0.3-3.3-0.9-4.7-1.8h4.4v-1H122v-0.7h4.2v-0.9H122v-0.7h4.6
			v-0.9h-2.9c0.1-0.4,0.3-0.8,0.5-1.1h2.8v-1h-2.1c0.4-0.5,0.7-1,0.9-1.3l-0.9-0.6c-0.2,0.5-0.6,1-1,1.6l0.3,0.3h-1.1v-1.9h-1v1.9
			h-0.7v1h1.7c-0.2,0.3-0.3,0.6-0.5,1.1h-1.2v7.6h0.6v-2.6H121.9z M121.3,16.8h-0.5v-1.9h-1v1.9h-1.5l0.6-0.3
			c-0.3-0.6-0.6-1.1-0.9-1.5l-0.8,0.5c0.2,0.3,0.5,0.7,0.7,1.3h-2.2v1h2.8c0.1,0.3,0.3,0.6,0.5,1.1h-2.8v0.9h4.6v0.7h-4.2v0.9h4.2
			v0.7h-4.9v1h4.5c-1.5,0.9-3.2,1.5-4.9,1.8l0.4,1c1.4-0.2,3-0.9,4.8-1.9v2.5h0.5v-7.6h-1.3c-0.1-0.4-0.2-0.8-0.4-1.1h1.7v-1H121.3z
			"/>
		<path class="st0" d="M134.7,18.7c1.4,0.9,2.9,1.6,4.6,2.1c0.1,0,0.1,0,0.2,0.1l0.5-1c-1.7-0.3-3.2-0.9-4.4-1.7h4.1v-1h-5v-0.8
			c0.1,0,0.2,0,0.5,0c1.6-0.1,2.8-0.2,3.5-0.3l-0.1-1.1c-1.2,0.2-2.7,0.3-4.4,0.4v4.9h0.5L134.7,18.7L134.7,18.7z M134.3,25.5v-1.2
			h0.1c0.7-0.4,1.4-1,2.1-1.8h-2.1v-1.1h5.4v1.1h-2c-0.5,0.7-1.2,1.4-2,2.1c1.3,0.3,2.7,0.6,4.2,1l-0.5,1c-1.6-0.5-3.2-0.8-4.8-1.1
			l0,0C134.4,25.4,134.4,25.5,134.3,25.5L134.3,25.5z M134.3,21.1v-0.4l0.2,0.2C134.4,20.9,134.3,21,134.3,21.1z M134.3,15.3
			c-1.4,0.1-2.9,0.1-4.6,0l0.1,1.1c1,0.1,2.3,0.1,3.9,0v0.7h-5v1h4.3c-1.4,0.8-3,1.4-4.5,1.7l0.4,1c1.4-0.2,3-0.9,4.8-2v1.4h0.6
			V15.3L134.3,15.3z M134.3,20.7v0.4c-0.1,0.1-0.2,0.2-0.2,0.3h0.2v1.1H133c-0.4,0.5-0.7,0.8-1.1,1c-0.1,0.1-0.1,0.2,0.1,0.2
			c0.7,0.2,1.5,0.3,2.3,0.5v1.2c-1.4,0.6-3.2,0.9-5.3,1l-0.3-1.1c1.5,0.1,2.9-0.1,4.1-0.4c-0.8-0.2-1.6-0.3-2.5-0.6l-0.1-0.6
			c0.5-0.5,1.1-0.9,1.5-1.3h-3.1v-1.1h4.1c0.3-0.3,0.6-0.7,0.9-1.1L134.3,20.7z"/>
		<path class="st0" d="M151.6,17.7v-2.4c0-0.1,0-0.1-0.1-0.1H147v0.9h3.5c0,0,0.1,0,0.1,0.1v0.7h-0.1H147v1h4.5
			C151.6,17.9,151.6,17.8,151.6,17.7L151.6,17.7z M147,24.6v-1h3.9v-0.1v-0.7H147v-0.9h3.9v-0.8H147v-0.9h3.9v-0.7
			c0-0.1,0-0.1,0-0.1H147v-1h4.9c0.1,0,0.1,0.1,0.1,0.1v6c0,0.1-0.1,0.1-0.1,0.1H147L147,24.6z M148.8,25.8c1.2,0.1,2.5,0.4,3.7,0.8
			l0.3-1c-0.9-0.2-2.2-0.5-3.9-0.8L148.8,25.8z M147,15.2h-4.4c-0.1,0-0.1,0-0.1,0.1v2.4c0,0.1,0.1,0.2,0.1,0.2h4.4v-1h-3.4l0,0
			v-0.7c-0.1-0.1-0.1-0.1,0-0.1h3.4V15.2L147,15.2z M147,18.4v1h-3.7c0,0,0,0,0,0.1v0.7h3.7v0.9h-3.7v0.8h3.7v0.9h-3.7v0.7
			c0,0.1,0,0.1,0,0.1h3.7v1h-4.6c-0.1,0-0.2-0.1-0.2-0.1v-6c0-0.1,0.1-0.1,0.2-0.1H147L147,18.4z M145.3,24.7
			c-1.3,0.4-2.6,0.6-3.9,0.8l0.2,1.1c1.2-0.2,2.5-0.5,4-0.9L145.3,24.7z"/>
		<path class="st0" d="M164.8,21.2v-3c0-0.1-0.1-0.1-0.2-0.1h-2.5V19h1.6c0,0,0.1,0,0.1,0.1v1.3c0,0.1-0.1,0.1-0.1,0.1h-1.3
			c0.2-0.2,0.4-0.5,0.5-0.7l-0.9-0.5v0.1v2.1h2.5C164.7,21.3,164.8,21.2,164.8,21.2L164.8,21.2z M162.1,25.9V25h0.9v-0.6h-0.9v-0.9
			h0.9v-0.6l0,0c0-0.1-0.1-0.1-0.2-0.1h-0.7v-0.9h1.7c0.2,0,0.2,0.1,0.2,0.2v4.2h-1v-0.5h-0.9V25.9z M162.1,16.9v-1
			c1.1,0.4,2.4,0.7,3.7,0.9l-0.4,1C164.4,17.6,163.3,17.3,162.1,16.9z M162.1,18.1h-2.2v3.2h2.2v-2.1c-0.2,0.3-0.5,0.7-0.9,1.2h-0.8
			V19h1.7V18.1L162.1,18.1z M162.1,16v1l0,0v0.6h-2.2v-0.9h1.5c-0.5-0.2-1-0.4-1.5-0.7v-1l0.7,0.3c-0.1,0-0.1,0.1-0.1,0.1
			C161.1,15.6,161.6,15.7,162.1,16L162.1,16z M162.1,21.9v0.9h-2.2v-0.9H162.1L162.1,21.9z M162.1,23.5v0.9h-2.2v-0.9H162.1
			L162.1,23.5z M162.1,25v0.9h-2.2V25H162.1z M160,18.1h-2.2V19h1.7v1.4h-1c-0.2-0.5-0.4-0.9-0.7-1.3l-0.1,0.1v2.2h2.2v-3.3H160z
			 M160,14.9v1c0,0,0,0-0.1-0.1c-0.2,0.2-0.7,0.5-1.4,0.7h1.5v0.9h-2.2v-0.7v0.1v-1c0.9-0.3,1.5-0.7,2-1.1L160,14.9L160,14.9z
			 M160,21.9v0.9h-2.2v-0.9H160L160,21.9z M160,23.5v0.9h-2.2v-0.9H160L160,23.5z M160,25v0.9h-2.2V25H160z M157.8,18.1h-2.5
			c-0.1,0-0.1,0.1-0.1,0.1v3c0,0.1,0,0.1,0.1,0.1h2.5v-2.2l-0.7,0.4c0.1,0.2,0.3,0.5,0.5,0.9h-1.5c0,0,0,0,0-0.1V19l0,0h1.7V18.1
			L157.8,18.1z M157.8,16v1c-0.9,0.3-2,0.6-3.3,0.9l-0.3-1C155.6,16.6,156.8,16.3,157.8,16L157.8,16z M157.8,21.9v0.9h-0.7
			c-0.1,0-0.2,0.1-0.2,0.1v0.6h0.9v0.9h-0.9V25h0.9v0.9h-0.9v0.5h-1v-4.2c0-0.1,0.1-0.2,0.2-0.2h1.7V21.9z"/>
		<path class="st0" d="M175.9,19.2h1.9c0.1,0,0.2-0.1,0.2-0.2v-3.2c0-0.1-0.1-0.2-0.2-0.2h-1.9v0.9h1c0.1,0,0.1,0,0.1,0V17h-1v0.8h1
			v0.5c0,0.1,0,0.1-0.1,0.1h-1V19.2L175.9,19.2z M175.9,26.1V24c0.3-0.2,0.6-0.4,0.9-0.5l0.5,0.8c-0.4,0.3-0.9,0.6-1.3,0.8
			c0.6,0.2,1.5,0.4,2.7,0.4l-0.3,1c-0.6-0.1-1.1-0.1-1.6-0.2C176.5,26.2,176.2,26.2,175.9,26.1L175.9,26.1z M175.9,23.3v-0.9h2.5
			v0.9H175.9L175.9,23.3z M175.9,21.9v-0.8h1.9v0.8H175.9L175.9,21.9z M175.9,20.7v-0.9h2.4v0.9H175.9z M174.8,15.7v-0.8h-1v0.8h-1
			v0.9h1v0.5h-1v0.8h1v0.5h-1v0.9h3.2v-0.9h-1.1v-0.5h1.1v-0.8h-1.1v-0.5h1.1v-0.9L174.8,15.7L174.8,15.7z M175.9,19.7v0.9h-3.2
			v-0.9H175.9L175.9,19.7z M175.9,21.1v0.8h-3.2v-0.8H175.9L175.9,21.1z M175.9,22.4v0.9h-2.5c0.4,0.4,0.9,0.8,1.4,1.2
			c0.3-0.2,0.7-0.4,1-0.5v2.1c-1.1-0.4-2.2-1.1-3.2-2.1v-1.6H175.9L175.9,22.4z M172.7,25.9v-1l0,0l0.2,0.9
			C172.9,25.9,172.9,25.9,172.7,25.9z M172.7,15.7h-1v-0.8h-1v0.8h-1.1v0.9h1.1v0.5h-1.1v0.8h1.1v0.5h-1.1v0.9h3.1v-0.9h-1v-0.5h1
			v-0.8h-1v-0.5h1V15.7L172.7,15.7z M172.7,19.7v0.9h-3.1v-0.9H172.7L172.7,19.7z M172.7,21.1v0.8h-3.1v-0.8H172.7L172.7,21.1z
			 M172.7,22.4V24c-0.2-0.2-0.4-0.5-0.6-0.7H171v1.9c0.8-0.1,1.4-0.2,1.8-0.3v1c-0.8,0.2-1.9,0.3-3.1,0.5v-1c0.1,0,0.2,0,0.3,0v-2.1
			h-0.3v-0.9H172.7z M169.6,15.7h-1.9c-0.1,0-0.1,0.1-0.1,0.2v3.2c0,0.1,0.1,0.2,0.1,0.2h1.9v-0.9h-1c-0.1,0-0.1,0-0.1-0.1v-0.5h1
			V17h-1v-0.5c0,0,0,0,0.1,0h1V15.7L169.6,15.7z M169.6,19.7v0.9h-0.9c-0.1,0-0.1,0.1-0.1,0.2v1.5h1v0.9h-1
			c-0.1,1.2-0.3,2.2-0.7,3.2l-0.9-0.3c0.4-1,0.6-2.2,0.7-3.7V20c0-0.2,0.1-0.3,0.2-0.3H169.6L169.6,19.7z M169.6,21.1h-0.1v0.8h0.1
			V21.1L169.6,21.1z M169.6,25.4c-0.3,0.1-0.6,0.1-1,0.1l0.1,1c0.3,0,0.6-0.1,0.9-0.1V25.4z"/>
		<path class="st0" d="M189.1,26.3v-0.9h2.5v0.9H189.1L189.1,26.3z M189.1,24.9v-0.8h1.9v0.8H189.1L189.1,24.9z M189.1,23.6v-0.7
			h0.9c0-0.1,0.1-0.1,0.1-0.1v-0.5h-1v-0.7h0.9V21h-0.1h-0.8v-0.7h1.7c0.1,0,0.2,0.1,0.2,0.1v3.3c0,0.1-0.1,0.1-0.2,0.1h-1.7V23.6z
			 M189.1,19.8v-0.9h2.3v0.9H189.1L189.1,19.8z M189.1,18.5v-0.7h0.7c0.1-0.1,0.1-0.1,0.1-0.1v-0.5h-0.8v-0.7h0.7V16c0,0,0,0-0.1,0
			h-0.6v-0.7h1.6c0.1,0,0.1,0.1,0.1,0.1v3.2c0,0.1-0.1,0.1-0.1,0.1h-1.6V18.5z M189.1,15.2V16h-1.4v-0.7h1.4V15.2z M189.1,16.5v0.7
			h-1.4v-0.7H189.1L189.1,16.5z M189.1,17.8v0.7h-1.4v-0.7H189.1L189.1,17.8z M189.1,18.9v0.9h-1.4v-0.9H189.1L189.1,18.9z
			 M189.1,20.1v0.7h-0.9v0.6h0.9v0.7h-0.9v0.6h0.9v0.7h-0.9v0.5h0.9v0.8h-0.9v0.6h0.9v0.9h-1.4V20L189.1,20.1L189.1,20.1z
			 M187.6,15.2V16h-1.3v-0.7h1.3V15.2z M187.6,16.5v0.7h-1.3v-0.7H187.6L187.6,16.5z M187.6,17.8v0.7h-1.3v-0.7H187.6L187.6,17.8z
			 M187.6,18.9v0.9h-1.3v-0.9H187.6L187.6,18.9z M187.6,20.1v6.2h-1.3v-0.9h0.9v-0.6h-0.9V24h0.9v-0.5h-0.9v-0.7h0.9v-0.6h-0.9v-0.7
			h0.9v-0.6h-0.9v-0.7L187.6,20.1L187.6,20.1z M186.3,15.2V16h-0.8c-0.1,0-0.1,0,0,0v0.6h0.8v0.7h-0.8v0.5v0.1h0.8v0.7h-1.7
			c-0.1,0-0.1,0-0.1-0.1v-3.2c0-0.1,0.1-0.1,0.1-0.1L186.3,15.2L186.3,15.2z M186.3,18.9v0.9h-2.2v-0.9H186.3L186.3,18.9z
			 M186.3,20.1v0.7h-0.9c-0.1,0-0.1,0,0,0v0.6h0.9v0.7h-0.9v0.5v0.1h0.9v0.7h-1.7c-0.1,0-0.1-0.1-0.1-0.1V20
			c0.1-0.1,0.1-0.1,0.1-0.1h1.7V20.1z M186.3,24.1v0.8h-2v-0.8H186.3L186.3,24.1z M186.3,25.5v0.9h-2.2v-0.9H186.3L186.3,25.5z
			 M184.1,22.4L184.1,22.4L184.1,22.4L184.1,22.4L184.1,22.4z M184.1,16.4v-0.6l0.1,0.1C184.1,16,184.1,16.2,184.1,16.4z
			 M184.1,15.8v0.6c-0.2,0.8-0.3,1.5-0.5,2.2l-0.1-0.1v-2.9L184.1,15.8L184.1,15.8z M184.1,18.9v0.9H184L184.1,18.9L184.1,18.9
			L184.1,18.9z M184.1,22.3L184.1,22.3l-0.6,0.6v-1.4C183.6,21.8,183.9,22,184.1,22.3L184.1,22.3z M184.1,25.5v0.9h-0.3v-0.9H184.1
			L184.1,25.5z M183.5,20.3v-1h0.5v1H183.5z M180.6,18.6l0.7-0.1c-0.1-1-0.2-1.9-0.5-2.9l-0.2,0.1V18.6L180.6,18.6z M183.5,15.7v2.9
			l-0.7-0.2c0.3-1,0.5-1.8,0.6-2.8L183.5,15.7L183.5,15.7z M183.5,19.3v1h-0.9v0.1c0.3,0.3,0.6,0.7,0.9,1.1v1.4l-0.1,0.1
			c-0.2-0.4-0.5-0.8-0.8-1.2v4.6h-1v-4.1c-0.3,0.7-0.6,1.2-0.9,1.6h-0.1v-1.7c0.3-0.6,0.5-1.3,0.7-1.9h-0.7v-1h1v-4.5h1v4.5H183.5z
			 M179.9,15.8c0.2,1,0.4,1.9,0.5,2.8h0.2v-2.9L179.9,15.8L179.9,15.8z M180.6,19.3v1H180v-1H180.6L180.6,19.3z M180.6,22.2v1.7
			l-0.9-0.3C180.1,23.2,180.4,22.7,180.6,22.2z"/>
		<path class="st0" d="M201.6,26h0.5v0.5h1v-4.1c0-0.2-0.1-0.3-0.3-0.3h-1.1V23h0.3c0.1,0,0.2,0.1,0.2,0.1l0,0v0.6h-0.5v0.9h0.5v0.6
			h-0.5L201.6,26L201.6,26z M201.6,21.3h2.5v-1h-2.5V21.3L201.6,21.3z M201.6,20.1c0.6-0.3,1.3-0.7,1.9-1.2l-0.6-0.8
			c-0.5,0.3-0.9,0.6-1.4,0.9v1.1H201.6z M201.6,17.9h1.9c0.1,0,0.1,0,0.1-0.1v-2.4c0-0.1-0.1-0.1-0.1-0.1h-1.9v0.9h1
			c0.1,0,0.1,0,0.1,0v0.9c0,0,0,0.1-0.1,0.1h-1V17.9z M199,26h2.6v-0.9H199V26L199,26z M201.6,22H199v0.9h2.6V22L201.6,22z
			 M199,21.5c0.2-0.1,0.3-0.1,0.5-0.2h2.1v-1h-0.3c0.1-0.1,0.2-0.1,0.3-0.2V19c-0.1,0-0.1,0.1-0.1,0.1v-0.6H199v1h1.8
			c-0.5,0.2-1,0.5-1.5,0.7H199V21.5L199,21.5z M199,17.9h2.6V17h-1v-0.9h1v-0.9H199v0.9h0.6V17H199V17.9L199,17.9z M201.6,23.6v0.9
			H199v-0.9H201.6z M195.9,26h3.1v-0.9h-3.1v-0.6h3.1v-0.9h-3.1V23c0,0,0-0.1,0.1-0.1h3V22h-1.3c0.1-0.1,0.1-0.1,0.2-0.1
			c0.3-0.1,0.7-0.3,1.1-0.5v-1.2h-0.3v-0.7h0.3v-1h-0.3v-0.7h0.3V17h-1.6v-0.9h1.6v-0.9h-3.7v0.9h1V17h-1v0.9h2.3v0.7h-2.3v1h2.3
			v0.7h-2.3v1h1.5c-0.5,0.2-1,0.3-1.5,0.5v4.8h0.6L195.9,26L195.9,26z M195.3,15.2h-1.9c-0.1,0-0.2,0-0.2,0.1v2.4
			c0,0.1,0.1,0.1,0.2,0.1h1.9V17h-1c0,0-0.1,0-0.1-0.1V16h0.1h1V15.2L195.3,15.2z M195.3,18.6h-1.1v1h1.1V18.6L195.3,18.6z
			 M195.3,20.3h-2.5v1h2.5V20.3L195.3,20.3z M195.3,21.8c-0.9,0.2-1.7,0.4-2.6,0.5l0.3,1c0.6,0,1.2-0.1,1.8-0.3v3.6h0.5V21.8z"/>
	</g>
	<g>
		<path class="st1" d="M30.4,10.2c3.5-0.1,6.5,2.6,6.7,6.1c0.1,3.5-2.6,6.5-6.1,6.6c-3.5,0.2-6.5-2.6-6.6-6
			C24.2,13.4,27,10.4,30.4,10.2z"/>
		<path class="st2" d="M53.3,30.9v-1.4c0,0,0.1,0,0.1-0.1v-0.2c-0.1,0-0.1,0-0.1,0v-1.5c0.2,0.1,0.3,0.2,0.5,0.3
			c0.3-0.1,0.3,0.3,0.4,0.3c0.2,0.3,0.5,0.5,0.8,0.4c0.2-0.3,0.3,0.3,0.5,0.3c0.3,0.3,0.3,0.7,0.7,0.8c0.7,0.8,0.8,0.3,1.3,1.4
			c-0.3,0,0,0-0.3-0.2c-0.2,0.1-0.3-0.6-0.3-0.3c0,0.2,0.2,0.3,0,0.3c-0.4-0.2-0.8-0.4-1.3-0.7c-0.3-0.1-0.5-0.1-0.7-0.3
			c0,0,0.1-0.1,0-0.1c-0.3-0.2-1-0.5-1.3-0.5c-0.1,0.1,0.1,0.3,0.2,0.3c0.1,0,0.1,0.1,0.2,0.3h-0.1c0,0.2,0.7,0.4,0.7,0.6
			c0.1,0.2,0.2,0.3,0.3,0.2c0.1-0.3,0.3,0.1,0.5,0.1s0.4,0,0.6,0.1c0.1,0.2,0.2,0.3,0.3,0.3c0.1-0.3,0.3,0,0.4,0
			c0,0.3,0.3,0.6,0.4,0.6c0.2,0.2,0.3,0.1,0.4,0.3c0.1,0,0.2-0.1,0.2-0.2c-0.1-0.3-0.3-0.1-0.3-0.3c0.2,0,1.3,1.3,0.9,1.3
			C56.7,31.9,55,31.3,53.3,30.9L53.3,30.9z M53.3,27.3v-0.4c0.2,0.1,0.3,0.3,0.4,0.4C53.7,27.3,53.5,27.3,53.3,27.3L53.3,27.3z
			 M53.3,26.3V26c0.3,0.3,0.3,0.3,0.3,0.4C53.5,26.3,53.4,26.3,53.3,26.3z M53.3,26v0.3C53,26,52.5,26,52.1,25.8v-0.4
			C52.7,25.6,53.1,25.8,53.3,26L53.3,26z M53.3,26.8v0.4C53.2,27.1,53,27,53,26.9c0-0.1-0.2-0.2-0.1-0.3
			C53.1,26.7,53.2,26.8,53.3,26.8L53.3,26.8z M53.3,27.8c-0.1-0.1-0.2-0.3-0.3-0.3c-0.3,0.1-0.6-0.1-0.9-0.3v1.7
			c0.4,0.2,0.8,0.3,1.2,0.4V27.8L53.3,27.8z M53.3,29.5v1.4c-0.4,0-0.8-0.1-1.2-0.2V29c0.1,0.1,0.2,0.1,0.3,0.1
			c0.3,0,0.3,0.5,0.6,0.5C52.9,29.4,53.2,29.5,53.3,29.5L53.3,29.5z M52.2,26.6L52.2,26.6c0.2,0,0.3,0,0.5,0.1
			c0,0.1-0.2,0.2-0.3,0.2C52.3,26.7,52.2,26.7,52.2,26.6z M52.2,25.3v0.4c0,0-0.1-0.1-0.2-0.1c-0.3,0,0.1,0.4-0.2,0.2
			c0-0.2-0.2-0.3-0.2-0.3c-0.2,0-0.3,0-0.5,0v-0.8C51.5,24.9,51.8,25,52.2,25.3L52.2,25.3L52.2,25.3z M52.2,26.5L52.2,26.5
			c-0.1,0.1-0.3,0.2-0.4-0.1c0.1-0.1,0.2-0.1,0.2-0.1C52,26.4,52.1,26.5,52.2,26.5L52.2,26.5z M52.2,27.2v1.7
			c-0.2-0.1-0.4-0.2-0.7-0.3c-0.1,0-0.3,0-0.3,0v-1.8c0.2,0.1,0.3,0.3,0.5,0.2C51.8,27.1,52.1,26.8,52.2,27.2L52.2,27.2L52.2,27.2z
			 M52.2,29.1v1.7c-0.3,0-0.7-0.1-1-0.1v-1.8C51.5,28.9,51.8,29,52.2,29.1L52.2,29.1z M51.2,26.3L51.2,26.3c0.1-0.1,0-0.1,0-0.2
			V26.3L51.2,26.3z M51.2,24.3v-0.4c0.3,0.2,0.4,0.4,0.7,0.6v0.1C51.6,24.6,51.3,24.5,51.2,24.3z M51.2,23.9v0.4
			c-0.3-0.1-0.5-0.3-0.8-0.4c0.1-0.2,0.3-0.2,0.5-0.1C51,23.8,51.1,23.9,51.2,23.9L51.2,23.9z M51.2,24.7c-0.1,0-0.2-0.1-0.3-0.1
			c-0.2-0.1-0.4,0-0.6-0.2c-0.3-0.3-0.5-0.1-0.8-0.1v0.4c0.3,0.1,0.7,0.2,1,0.3c0.2,0.3,0.3,0.3,0.6,0.3L51.2,24.7L51.2,24.7z
			 M51.2,26.1v0.2c-0.3,0-0.9-0.3-1-0.3L50,25.7C50.1,25.7,50.8,25.9,51.2,26.1L51.2,26.1z M51.2,26.8v1.8c-0.1-0.1-0.3-0.1-0.3-0.2
			c-0.2,0-0.4,0.1-0.4,0.3c0.3,0.1,0.5,0.2,0.8,0.3v1.8c-0.6,0-1.1-0.1-1.6,0v-4.3c0.4,0.1,0.8,0.2,1.3,0.4
			C50.9,26.8,51,26.8,51.2,26.8L51.2,26.8z M49.6,54.2v-0.4c0.3,0.2,0.5,0.3,0.8,0.4C50.1,54.2,49.8,54.2,49.6,54.2L49.6,54.2z
			 M49.6,23.7v-0.3c0,0.1,0.1,0.1,0.1,0.1c0.1-0.1,0.3-0.1,0.3,0.1v0.1C49.9,23.8,49.7,23.7,49.6,23.7z M49.6,23.5v0.3
			c-0.2-0.1-0.3-0.2-0.4-0.2c0-0.2,0.2-0.1,0.2-0.3C49.4,23.3,49.5,23.4,49.6,23.5L49.6,23.5z M49.6,24.4v0.4
			c-0.3-0.1-0.6-0.2-0.9-0.1c-0.1,0-0.1,0.2-0.2,0.2V24c0.1,0,0.2,0.1,0.3,0.2c0.3-0.1,0.4,0.2,0.6,0.1
			C49.4,24.4,49.5,24.4,49.6,24.4L49.6,24.4z M49.6,26.3v4.3c-0.3,0-0.8,0-1.1,0V26c0.1,0,0.1-0.2,0.1-0.2c0.4-0.3,0.2,0.5,0.6,0.4
			C49.2,26.3,49.4,26.3,49.6,26.3L49.6,26.3z M49.6,53.8v0.4c-0.3,0-0.8,0-1.1-0.1v-1C48.8,53.4,49.2,53.5,49.6,53.8L49.6,53.8z
			 M48.5,25.5c0.3,0.1,0.8,0.2,0.8,0.2c0-0.1-0.3-0.3-0.3-0.3c-0.1,0-0.3-0.1-0.5-0.1V25.5L48.5,25.5z M48.5,23.5v-0.3
			c0.1,0,0.1,0,0.2,0c0.2,0,0.3-0.1,0.2,0.3C48.7,23.5,48.6,23.6,48.5,23.5z M48.5,23.2v0.3c-0.1,0-0.2,0-0.2-0.1
			c-0.1-0.1-0.3-0.2-0.3-0.3C48.2,23,48.4,23.1,48.5,23.2L48.5,23.2z M48.5,24v0.9h-0.1c-0.2-0.2-0.3-0.4-0.4-0.3
			c-0.1,0.1,0,0.3-0.1,0.3c-0.3,0.1-0.5-0.1-0.8,0v-1.1c0.2,0,0.3,0,0.4,0C47.8,24.2,48.1,23.9,48.5,24L48.5,24z M48.5,25.2v0.3
			c-0.3-0.1-0.4-0.2-0.3-0.3C48.1,25.2,48.3,25.2,48.5,25.2L48.5,25.2z M48.5,26v4.7c-0.4,0.1-0.8,0.2-1.3,0.3v-5.2c0.6,0,1,0,1.2,0
			C48.3,25.8,48.4,25.9,48.5,26L48.5,26L48.5,26z M48.5,53.1v1c-0.4,0-0.8,0-1.3,0v-1.8C47.6,52.5,48.1,52.9,48.5,53.1L48.5,53.1z
			 M47.1,23.3v-0.4c0.2,0.1,0.3,0.1,0.4,0.2h0.2c0.1,0.1,0.2,0.1,0.2,0.3C47.8,23.3,47.5,23.3,47.1,23.3z M45.2,22.9
			c0.3,0.2,0.6,0.3,0.9,0.3c-0.4,0-0.8,0.1-1.3,0.2v-0.3C45,23.1,45.1,23,45.2,22.9L45.2,22.9z M47.1,22.9v0.4
			c-0.3-0.1-0.6-0.1-0.7-0.2c0-0.1,0.3-0.2,0.3-0.3C46.8,22.8,47,22.9,47.1,22.9L47.1,22.9z M47.1,23.8v1.1l0,0
			c0.1,0.3-1.5,0.6-1.3,0.6c0.2,0.2,0.8,0.3,1.4,0.3V31c-0.8,0.1-1.6,0.3-2.3,0.6v-6.3c0.2,0,0.3,0.1,0.5,0c0.3,0,0.8,0.1,1-0.3
			l-0.1-0.1c-0.5-0.2-0.9-0.1-1.4,0.1v-1.1c0.2,0,0.3,0,0.4-0.1c0.3,0.1,0.5,0.3,0.8,0.1C46.4,23.7,46.8,23.8,47.1,23.8L47.1,23.8z
			 M47.1,52.3v1.8c-0.8-0.1-1.6-0.2-2.3-0.3v-3.3C45.5,51.1,46.3,51.7,47.1,52.3z M44.8,23.3c-0.4,0.1-0.8,0.2-1.3,0
			c0.2-0.3,0.4,0,0.5-0.4c0.3,0,0.5,0.1,0.8,0.2V23.3L44.8,23.3z M44.8,23.8v1.1c-0.1,0.1-0.3,0.2-0.3,0.3c0.1,0,0.3,0,0.3,0.1v6.3
			c-0.6,0.3-1.1,0.5-1.6,0.8v-6.9h0.3c0.3-0.3,0.4-0.2,0.6-0.5c-0.1,0-0.6-0.1-0.9-0.1v-0.7c0.3,0.1,0.5,0,0.8-0.3
			C44.2,23.7,44.5,23.7,44.8,23.8L44.8,23.8z M44.8,50.6v3.3c-0.5-0.1-1.1-0.2-1.6-0.3v-4.4C43.7,49.6,44.2,50.1,44.8,50.6
			L44.8,50.6z M43.2,23.4v-0.2V23.4L43.2,23.4z M43.2,23.2v0.2c-0.2,0.1-0.4,0.1-0.5,0.2c-1.3,0.3-1.3,0.1-2.3,0.8
			c-0.7,0.5-1.6,0.5-2.1,1.3v0.1c0.6,0.1,1.1-0.5,1.6-0.8c1.1-0.4,1-0.7,2.3-0.8c0.3-0.2,0.7-0.1,1-0.1v0.7c-0.3,0-0.5,0.1-0.6,0.1
			c0,0.2,0.3,0.2,0.3,0.2c0,0.7-0.6,0.1-0.8,0.5l1-0.2v6.9c-5.7,3-7.7,9.8,0,16.9v4.4c-10.1-1.8-15-7.2-15.6-13v-2.4
			c0.7-6.3,5.9-12.5,14.5-14.9C42.5,23.2,42.9,23.2,43.2,23.2L43.2,23.2z"/>
		<path class="st3" d="M26.6,35c2.7-10.4-5.9-16.7-16.6-19.5C26.1,29.9,5.9,50,37.7,53.9C35.9,53.4,23,48.5,26.6,35z"/>
	</g>
	<rect x="144.1" y="30.7" class="st4" width="125.4" height="25"/>
	<path class="st5" d="M66.7,44.3c0,1.2-0.1,2.4-0.3,3.5c1-1.5,1.7-3.4,2.1-5.4l2.3,0.7c-0.2,0.6-0.4,1.1-0.7,1.6h2v-2.2h2.5v2.2h5
		v1.2h-5v1.8h4.5v1.2h-4.5V51h6v1H66.2v-1.2h6v-2.1h-4v-1.2h4v-1.8h-2.7c-0.7,1.1-1.6,2.1-2.6,3l-0.5-0.6C66,50,65.2,51.6,64,52.7
		l-0.9-0.5c0.9-2,1.2-3.9,1.2-7.9v-3.6h3l-0.2-0.6c1.6-0.3,2.9-0.6,4.1-1c-1.2-0.4-2.4-0.7-3.4-0.9l0.2-0.9c1.4,0.2,3.3,0.5,5.2,0.9
		c0.6-0.3,1.2-0.6,1.7-1H64.6V36h7.5c-0.9-0.5-2-0.9-2.7-1.3l0.2-0.9c1.2,0.1,3.2,0.5,4.8,1L73.7,36h6.6v1.2h-3.2l0.5,0.3
		c-0.6,0.4-1.3,0.9-2,1.3c1,0.3,2,0.6,2.8,0.9l-0.5,1h3v1.2H66.7V44.3z M69.4,40.7h6.4c-0.8-0.3-1.7-0.7-2.6-1
		C72.1,40.1,70.8,40.5,69.4,40.7z"/>
	<path class="st5" d="M90.3,48.7l0.3,1c-1.6,1-5.2,2.2-7.1,2.6L82.9,50c0.8-0.1,1.8-0.2,2.8-0.4v-1L84,49c-0.1-1.2-0.4-2.9-0.6-4.2
		l0.9-0.2c0.7,1.2,1.2,2.7,1.5,3.9V44h-2.4v-1.2h2.4v-2.1h-1.6v-0.3c-0.3,0.2-0.6,0.5-0.9,0.7l-0.6-0.8c1.7-1.8,2.7-4,3.5-6.6
		l2.3,0.8c-0.1,0.3-0.2,0.5-0.3,0.8c1,0.6,2.2,1.6,3,2.5l-1.7,1.4c-0.6-1-1.3-2-2-2.8c-0.6,1.2-1.4,2.2-2.3,3.1h4.5v1.2H88v2.1h2.3
		V44H88v4.2c0.3-1.1,0.6-2.5,0.7-3.7l1.8,0.5c-0.4,1.2-0.9,2.5-1.8,3.7L88,48.4v0.9C88.9,49.1,89.7,48.9,90.3,48.7z M94.4,38.8
		l-2.1,1c-0.4-1.3-1.1-3.1-1.7-4.5l0.9-0.5C92.6,35.9,93.7,37.4,94.4,38.8z M96.8,40.1h3.3v10.4c0,2.4-2.3,2.8-5.1,1.2l0.2-1
		c2.2,0.4,2.4,0.1,2.4-0.8v-2.4h-4.3v5.1h-2.4V40.1h3.4v-5.9h2.4L96.8,40.1L96.8,40.1z M97.7,41.3h-4.3v1.8h4.3V41.3z M97.7,46.3v-2
		h-4.3v2H97.7z M97.7,39.7l-0.8-0.5c0.6-1.4,1.3-3.1,1.7-4.5l2.2,1C100,37.1,98.8,38.7,97.7,39.7z"/>
	<path class="st5" d="M120,52.8c-1.6-0.2-3.1-0.7-4.4-1.5c-1.6,0.9-3.4,1.3-5.3,1.5l-0.2-0.9c1.8-0.3,3.2-0.9,4.2-1.6
		c-0.5-0.5-1-1.1-1.3-1.7c-0.7,0.7-1.5,1.3-2.3,1.7l-0.5-0.7c1.4-1.2,2.2-2.5,2.7-3.8h-1v-2.5c-0.3,0.4-0.7,0.7-1,1l-0.6-0.6
		c-0.1,0.2-0.3,0.4-0.5,0.6v8.5h-2.2v-6.2c-0.4,0.4-0.8,0.6-1.1,0.9l-0.4-0.5c-0.4,2.8-1.2,4.8-2.3,6l-0.9-0.5
		c1.1-2.5,1.2-5.6,1.2-11.5v-6h15.5v3.7H113l1.4,0.4c-0.1,0.2-0.2,0.5-0.3,0.8h5.8v1.2h-6.4l-0.4,0.7h6V46h-5.2l1,0.4
		c-0.1,0.2-0.2,0.4-0.4,0.7h2.3l0.5-0.4l2,1c-0.6,1.1-1.3,2-2.1,2.7c1,0.3,2.2,0.4,3.5,0.5L120,52.8z M109.6,40.7l1.7,0.8
		c0.4-0.9,0.7-1.9,0.9-3h-2.9l1.1,0.4c-0.7,1.4-2.1,3.1-3.5,4.1l-0.4-0.5c-0.1,1.4-0.2,2.6-0.3,3.8C107.4,45,108.7,42.9,109.6,40.7z
		 M106.5,40.1c0,0.7,0,1.4,0,2.1c0.8-1,1.4-2.2,2-3.6h-1.9L106.5,40.1L106.5,40.1z M106.5,37.4h10.7V36h-10.7V37.4z M115.4,49.4
		c0.5-0.5,0.9-1,1.3-1.6h-3c0,0,0,0.1-0.1,0.1C114.2,48.5,114.8,49,115.4,49.4z M114,43.2h3v-0.7h-3V43.2z M114,44.8h3V44h-3V44.8z"
		/>
	<path class="st5" d="M126.2,44.9c-0.3,3.7-1,6-2.3,7.7l-0.9-0.5c1-2.7,1-4.5,1-11.8v-5.5h16.1V36h-2l1.4,1.6
		c-0.6,0.2-1.3,0.4-2.2,0.6v1.4h2.3v1.1h-2c0.7,1.2,1.8,2.2,2.9,2.8l-1.3,1.7c-0.8-0.7-1.4-1.7-1.9-3v3.5h-2.1v-3.2
		c-0.7,1-1.6,1.9-2.9,2.7l-0.5-0.7c1.3-1.2,2.1-2.4,2.8-3.8h-1.3v-1.1h1.9v-1c-0.7,0.1-1.4,0.2-2.1,0.2l-0.2-0.9
		c1.9-0.4,3.5-1,5-1.8h-11.6v3.7C126.3,41.7,126.3,43.4,126.2,44.9c0.9-1.2,1.6-2.4,2.3-4.2h-1.7v-1.1h2.2v-1.1
		c-0.7,0.1-1.4,0.1-2,0.1l-0.1-0.9c1.9-0.4,3.7-1,5-1.7l1.4,1.6c-0.7,0.2-1.4,0.4-2.1,0.5v1.4h1.9v1.1h-2V41
		c0.8,0.4,1.4,0.9,2.2,1.5l-1.2,1.3c-0.3-0.5-0.6-1-0.9-1.4v3.4h-2.1v-2.7c-0.6,1-1.2,1.7-2.2,2.5L126.2,44.9z M134.6,50.8h5.7V52
		h-14.9v-1.2h2.7v-4.3h2.2v4.3h1.9v-5.4h2.4v2.1h4.2v1.2h-4.2L134.6,50.8L134.6,50.8z"/>
	<path class="st6" d="M149.3,46.3c0.1,1.4,0.1,3.3-0.1,4.5l-1.6-0.5c0.5-1.1,0.9-2.7,1-4H149.3z M155.1,50.5
		c-0.3,2.1-2.4,2.3-4.5,0.7l0.3-0.9c1.8,0.5,2.3,0.5,2.4-0.6c0.1-0.4,0.1-0.9,0.1-1.6l-0.3,0.2c-0.4-1-0.7-1.8-1.1-2.7l0.6-0.3
		c0.3,0.4,0.6,0.7,0.9,1.1c0-0.4,0-0.9,0-1.4h-3v0.5h-2V35.1h7.5v1.2h-2.4V38h1.7v1.2h-1.7v1.7h1.4l-0.3-0.5c2-1.6,3.2-3.7,4.3-6.4
		l2.4,0.8c-0.1,0.2-0.2,0.5-0.3,0.7c1.5,1.7,2.7,2.5,4.7,3.3l-1.3,2.2c-0.6-0.3-1.1-0.7-1.6-1.2v0.5h-5.5v-0.4
		c-0.7,0.5-1.4,1-2.1,1.4l-0.1-0.1V42h-1.6v1.9h2C155.5,47.2,155.4,49.1,155.1,50.5z M149.8,50.1c0-1.1,0-2.4-0.1-3.7l0.7-0.1
		c0.4,1.2,0.7,2.4,0.9,3.6L149.8,50.1z M150.5,38h1.1v-1.7h-1.1V38z M150.5,40.9h1.1v-1.7h-1.1V40.9z M150.5,43.9h1.1V42h-1.1V43.9z
		 M151.6,49.3c-0.2-1.1-0.5-2.1-0.8-3.3l0.7-0.2c0.6,1,1,2,1.4,3L151.6,49.3z M164.2,52.5c-0.5-0.8-1-1.9-1.6-2.8
		c-0.7,1.2-1.7,2.3-2.9,3.1l-0.6-0.7c0.6-0.7,1.1-1.3,1.4-2l-1.4,1.2c-0.3-0.6-0.6-1.2-1-1.7c-0.7,1.3-1.7,2.5-2.8,3.1l-0.6-0.7
		c1.2-1.3,2-3.3,2.3-5.6l2.2,0.3c-0.1,0.6-0.2,1.1-0.5,1.7c0.7,0.5,1.4,1.1,1.8,1.6c0.5-1,0.8-2.1,1-3.6l2.2,0.3
		c-0.1,0.6-0.3,1.3-0.6,1.9c0.9,0.7,2,1.7,2.7,2.5L164.2,52.5z M156,41.4h4v4.7h-4V41.4z M157.5,44.9h1v-2.3h-1V44.9z M158.3,39.1
		h3.9c-0.7-0.8-1.3-1.7-1.8-2.6C159.9,37.5,159.2,38.3,158.3,39.1z M160.6,41.4h4v4.7h-4V41.4z M162.1,44.9h1v-2.3h-1V44.9z"/>
	<path class="st6" d="M174.5,38.7h-6.7v-1.2h2.8c-0.5-1.2-1.1-2.3-1.6-3.1l0.8-0.6c1,0.8,2,1.9,2.8,3l-1.2,0.7h3.2v1.2H174.5z
		 M168.3,45.6h5.6v6.7h-2v-1.2h-1.5v1.4h-2v-6.9H168.3z M173.9,40.3v1.2h-5.6v-1.2H173.9z M168.4,42.9h5.6v1.2h-5.6V42.9z
		 M170.4,49.9h1.5v-3.1h-1.5V49.9z M177.6,36.4h-3.1v-1.1h2.9l0.5-0.5l2,0.8c-0.1-0.5-0.2-0.9-0.2-1.4l1-0.2
		c0.2,0.8,0.4,1.5,0.7,2.2c0.4-0.5,0.8-1,1.1-1.7l1.5,1.2c-0.6,0.5-1.4,1-2.1,1.4c0.3,0.4,0.5,0.8,0.8,1.2c0.5-0.5,1-1.2,1.4-1.7
		l1.5,1.3c-0.6,0.4-1.4,0.9-2.2,1.2c0.8,0.8,1.7,1.4,2.7,2l-1.4,2.1c-0.7-0.4-1.4-1-2.1-1.8h-6.1c-0.7,0.6-1.4,1.2-2.3,1.6l-0.6-0.8
		c1.1-0.9,1.9-1.9,2.5-2.9c-0.6-0.7-1.3-1.4-1.7-1.8l0.7-0.5c0.5,0.2,1.3,0.6,2,1C177.3,37.5,177.4,36.9,177.6,36.4z M181.9,50.9
		h3.5v1.2h-11v-1.2h2.8c-0.4-1-0.9-2.1-1.3-2.9l0.8-0.6c1,0.8,1.9,1.8,2.7,2.8l-1.1,0.7h2.2c0.5-1.1,0.9-2.5,1.2-3.6h-6v-4.4h8.4
		v4.4h-2.3l2.1,1C183.4,49.1,182.6,50.1,181.9,50.9z M179.9,36c-0.4,1.6-1.1,3.1-2.1,4.4h4.1C181,39.2,180.4,37.7,179.9,36z
		 M177.9,46.1h3.9V44h-3.9V46.1z"/>
	<path class="st6" d="M200.8,38.3v1.6h3.8v10.9c0,1.8-1.3,2.3-3.7,1.3l0.1-1c1.2,0.1,1.3-0.1,1.3-0.8v-2.5h-1.6v4.4h-2.2v-4.4H197
		v4.7h-2.3v-6.4l-1.2,1c-0.4-0.7-0.8-1.6-1.3-2.3v7.9h-2.3v-7.4c-0.6,0.5-1.3,1-2.1,1.5l-0.6-0.8c2.4-2.1,3.7-4.3,4.5-6.5h-4v-1.2
		h4.2l0.5-0.4l1.9,1c-0.7,1.5-1.4,2.8-2.2,3.9V43l0.4,0.3c0.4-0.7,0.8-1.4,1.2-2.1l0.9,0.7v-2h3.7v-1.6h-4.4V37h4.4v-2.9h2.4V37h2.4
		c-0.6-0.7-1.4-1.5-2-2.1l0.5-0.7c0.9,0.3,2.3,0.9,3.3,1.7l-1,1.2h1.2v1.2C205.1,38.3,200.8,38.3,200.8,38.3z M192.6,36.8l-1.9,1.4
		c-0.5-1.2-1.3-2.6-1.9-3.7l0.7-0.6C190.5,34.7,191.8,35.8,192.6,36.8z M194.7,45.3V43c-0.4,0.4-0.9,0.7-1.3,1
		C193.8,44.4,194.2,44.8,194.7,45.3z M198.5,41.1H197v2.2h1.5V41.1z M198.5,44.5H197v2.3h1.5V44.5z M200.7,41.1v2.2h1.6v-2.2H200.7z
		 M202.3,44.5h-1.6v2.3h1.6V44.5z"/>
	<path class="st6" d="M224.6,38.7c-0.2,5.6-0.4,9.6-0.7,11.4c-0.4,2.4-2.7,3.2-6.1,0.9l0.4-1c2.7,0.6,3.1,0.5,3.3-0.8
		c0.2-1.5,0.5-5.3,0.6-9.4h-1.6c-0.3,6.7-1.7,10.2-6.7,12.9l-0.5-0.9c1.6-1.2,2.7-2.5,3.4-4c-2.1,1.5-5.8,3.2-8.4,4.1l-0.8-2.6
		c0.5-0.1,1-0.2,1.5-0.3V35.5h6.8v11.4l0.8-0.3l0.3,0.7c0.7-1.9,1-4.2,1.1-7.4h-1.9v-1.2h1.9c0-1.4,0-2.9,0-4.5h2.5
		c0,1.6,0,3.1-0.1,4.5H224.6z M211.2,39.6h2.1v-2.9h-2.1V39.6z M211.2,43.8h2.1v-3.1h-2.1V43.8z M211.2,48.4
		c0.7-0.2,1.4-0.4,2.1-0.6V45h-2.1V48.4z"/>
	<path class="st6" d="M234.9,46.7h-3.5v1.7h-2.6V37.3h6.1v-3.2h2.7v3.2h6.1v10.9h-2.6v-1.5h-3.5v6.1h-2.7V46.7z M234.9,41.3v-2.7
		h-3.5v2.7H234.9z M234.9,45.4v-2.9h-3.5v2.9H234.9z M241.1,41.3v-2.7h-3.5v2.7H241.1z M241.1,45.4v-2.9h-3.5v2.9H241.1z"/>
	<path class="st6" d="M254.5,38.7h-7.1v-1.2h3.1c-0.6-1.1-1.3-2.2-1.9-3l0.7-0.7c1.1,0.6,2.4,1.8,3.3,2.9l-1.1,0.8h3V38.7z
		 M253.9,41.5H248v-1.2h5.9V41.5z M248,43h5.9v1.2H248V43z M248,45.7h6v6.8h-2.2v-1.4h-1.6v1.4H248L248,45.7L248,45.7z M250.2,50
		h1.6v-3.1h-1.6V50z M264.9,40.7v1.2h-10.4v-1.2h4v-1.2h-3v-1.1h3v-1.2h-3.7V36h3.7v-1.9h2.4V36h3.8v1.2h-3.8v1.2h3.1v1.1h-3.1v1.2
		H264.9z M255.2,42.9h8.8v7.8c0,2.1-2.1,2.4-5,1.1l0.2-1c2.2,0.3,2.4,0.2,2.4-0.7V49h-4.2v3.7h-2.3v-9.8H255.2z M257.5,44.1v1.3h4.2
		v-1.3H257.5z M261.7,47.8v-1.3h-4.2v1.3H261.7z"/>
	<path class="st5" d="M288.8,52.8c-2-0.6-4-1.6-5.7-3.1c-2.1,1.6-4.6,2.7-7.7,3.2l-0.3-1c2.9-1,5-2.2,6.6-3.7
		c-1.4-1.6-2.4-3.6-3-6.2c-0.8,4.5-2.6,8.2-5.8,10.7l-0.7-0.8c3.2-3.9,4.1-8.7,4.2-15.5h-3.1v-1.3h12.4c-0.4,2.1-1,4.1-1.4,5.5h1
		l0.6-0.6l2.6,1.1c-0.8,2.8-2,5.1-3.7,6.9c1.6,0.9,3.4,1.5,5.4,2L288.8,52.8z M279.1,36.4c-0.1,1.4-0.2,2.8-0.3,4.1h2.9
		c0.4-1.2,0.7-2.7,1-4.1H279.1z M285.2,41.8h-5.6c0.8,2.1,1.9,3.7,3.3,4.8C284,45.2,284.7,43.6,285.2,41.8z"/>
	<path class="st5" d="M309.4,47.4c-0.7-0.2-1.5-0.4-2.4-0.8v6h-2.4v-0.8h-7.1v0.8h-2.4v-6c-0.9,0.4-1.9,0.7-2.8,0.9l-0.4-0.9
		c2.4-0.9,4.8-2.3,6.2-4h-5.6v-1.2h4.7c-0.5-0.6-1-1.2-1.4-1.6l0.3-0.4c-0.2,0-0.4,0-0.6,0l-0.1-0.9c3.4-0.3,6.2-0.7,8.1-1.2h-8.4
		V40h-2.3v-3.9h8.3c-1-0.4-2.1-0.9-3-1.2l0.2-0.9c1.1,0.1,3.1,0.3,4.7,0.8l-0.6,1.4h7v3.9h-2.3v-2.7h-2l1.3,1.3
		c-0.4,0.1-0.8,0.2-1.3,0.2l1.5,0.8c-0.6,0.7-1.2,1.3-1.8,1.8h4.8v1.2h-6.5c2.2,1.5,4.7,2.1,7.4,2.4L309.4,47.4z M305.2,45.8
		c-1.1-0.6-2.2-1.4-3-2.3v1.9h-2.5v-1.5c-0.8,0.8-1.8,1.4-2.8,2h8.3V45.8z M299.2,40.8l-0.6,0.6h1.2v-2.1c-0.9,0.1-1.8,0.1-2.7,0.1
		C297.8,39.7,298.5,40.2,299.2,40.8z M299.8,46.9h-2.3v1.3h2.3V46.9z M299.8,49.2h-2.3v1.4h2.3V49.2z M304.5,38.9
		c-0.7,0.1-1.5,0.2-2.2,0.3v2.3h0.9C303.7,40.6,304.2,39.7,304.5,38.9z M304.6,46.9h-2.3v1.3h2.3V46.9z M304.6,49.2h-2.3v1.4h2.3
		V49.2z"/>
	<path class="st5" d="M317.8,37.9h-5.1v-1.2h7v-2.6h2.6v2.6h7v1.2h-6.2c1.9,1.9,4.2,2.9,6.8,3.6l-1.4,2.5c-2.8-1.2-5.2-3.2-6.3-5.4
		v3.7h-2.6v-3.2c-1.5,2.3-4.5,4.2-7.2,5.2l-0.4-0.9C314.4,42,316.7,40,317.8,37.9z M312.2,50.9h17.5v1.2h-17.5V50.9z M315.4,42.9
		h11.1v6.7h-11.1V42.9z M318,45.6h6v-1.5h-6V45.6z M318,48.5h6v-1.7h-6V48.5z"/>
	<path class="st5" d="M332.2,52.1l-0.5-0.9c2.1-1.3,3.9-3,5.4-5.1l2.2,1.4C337.8,49.1,335.2,51,332.2,52.1z M342.6,45.3v5.1
		c0,2.2-2.1,3.1-5.6,1.1l0.3-1c2.4,0.4,2.7,0.2,2.7-0.9v-4c-2.4,0.3-4.7,0.4-6.3,0.5l-0.6-2.4c1.2,0.1,2.4,0.1,3.6,0.1
		c1.5-0.8,3-1.7,4.4-2.8c-2.2,0.5-4.4,0.7-6.1,0.9l-0.6-2.3c0.8,0.1,1.7,0.1,2.5,0.1c0.8-0.8,1.5-1.7,2.1-2.6c-2,0.1-4,0.2-5.5,0.2
		l-0.2-1c4.7-0.4,9.2-1.1,12.8-2.4l2.2,1.9c-1.8,0.4-3.8,0.7-5.9,1c-1.1,1-2.6,2.1-3.9,3c1.3,0,2.7,0,4-0.1c0.8-0.7,1.5-1.5,2.2-2.3
		l2.4,1.5c-2.4,2.2-5.1,3.9-7.8,5.1c2.2-0.1,4.4-0.2,6.4-0.4c-0.4-0.6-0.8-1.1-1.1-1.6l0.8-0.6c1.4,0.9,3.3,2.5,4.2,3.9l-2,1.5
		c-0.4-0.7-0.8-1.4-1.2-2.1C345.4,44.9,344.1,45.1,342.6,45.3z M350,49.7l-1.8,2.1c-1.1-1.3-3.5-3.5-5.2-4.8l0.5-0.9
		C345.6,46.8,348.5,48.4,350,49.7z"/>
	<path class="st5" d="M354.4,46.8c0,2.2-0.2,4.2-0.5,5.7l-2.3-0.9c0.8-1.3,1.5-2.9,1.9-5L354.4,46.8z M353.3,44.2
		c0.9-1.1,1.6-2.2,2.3-3.5c-1.1,0.4-2.2,0.7-3.2,0.9l-0.4-2.2c0.4,0,0.8,0,1.1,0c0.7-1.7,1.2-3.7,1.6-5.5l2.5,0.7
		c-0.7,1.7-1.8,3.5-2.8,4.9c0.7,0,1.3,0,1.9-0.1c0.3-0.6,0.6-1.3,0.9-2l2.2,1.1c-1.4,2.3-3,4.2-4.5,5.5c0.8-0.1,1.7-0.2,2.5-0.3
		l-0.5-1.4l0.9-0.4c0.8,0.9,1.5,2.2,2.1,3.5l-1.8,0.7c-0.1-0.4-0.2-0.9-0.3-1.3c-1.7,0.7-3.7,1.4-5.3,1.6l-0.5-2.1L353.3,44.2z
		 M357.5,51.1l-2.1,0.4c0-1.4-0.2-3.4-0.4-4.9l0.9-0.2C356.5,47.9,357.2,49.8,357.5,51.1z M357.5,45.9c0.9,1,1.8,2.3,2.4,3.4l-1.8,1
		c-0.4-1.3-0.8-2.7-1.3-3.9L357.5,45.9z M367.3,52.3c-2.7,0-3.1-0.3-3.1-2.5v-6.5c-0.4,0.1-0.7,0.2-1.1,0.2v0.8c0,3.7-0.7,7-5.4,8.5
		l-0.4-0.9c3.3-2,3.5-4,3.5-7.7v-0.3c-0.5,0.1-1,0.1-1.4,0.2l-0.5-2.3c0.6,0,1.1,0,1.7,0c0.5-1.1,1-2.5,1.3-3.8h-3v-1.2h5
		c-0.8-0.8-1.7-1.5-2.5-2.1l0.5-0.9c1.3,0.3,3,1.1,4.3,1.9l-0.9,1.2h4.3v1.2h-4.7c-0.8,1.3-1.8,2.7-2.7,3.7c1.5,0,3-0.1,4.5-0.3
		c-0.3-0.7-0.7-1.4-1-1.9l0.8-0.5c1.3,1.2,2.8,3.2,3.5,4.5l-2,1.2c-0.2-0.6-0.5-1.3-0.8-2.1c-0.1,0.1-0.3,0.1-0.5,0.1v6.4
		c0,0.8,0.1,1,0.9,1s0.9-0.2,0.9-3.5h1C370.5,51.7,369.6,52.3,367.3,52.3z"/>
</g>
</svg>
