<?xml version="1.0" encoding="utf-8"?>
<!-- Generator: Adobe Illustrator 25.2.0, SVG Export Plug-In . SVG Version: 6.00 Build 0)  -->
<svg version="1.1" id="home" xmlns="http://www.w3.org/2000/svg" xmlns:xlink="http://www.w3.org/1999/xlink" x="0px" y="0px"
	 viewBox="0 0 32 32" style="enable-background:new 0 0 32 32;" xml:space="preserve">
<style type="text/css">
	.st0{fill:#29C4A0;}
</style>
<g>
	<g>
		<path class="st0" d="M28.1,7.1C23.4,6.5,18.8,3,16.9,1.3c-0.5-0.5-1.3-0.5-1.9,0C13.2,3,8.6,6.5,3.9,7.1C3.1,7.2,2.6,7.9,2.6,8.6
			c0.6,14.4,10,20.7,12.7,22.2c0.4,0.2,1,0.2,1.4,0c2.7-1.5,12.1-7.8,12.7-22.2C29.4,7.9,28.9,7.2,28.1,7.1z M16,23.1
			c-3.9,0-7.1-3.2-7.1-7.1s3.2-7.1,7.1-7.1s7.1,3.2,7.1,7.1S19.9,23.1,16,23.1z"/>
		<polygon class="st0" points="19.2,12.4 14.9,16.6 12.8,14.6 11.4,16 13.4,18.1 14.9,19.6 16.4,18.1 20.6,13.9 		"/>
	</g>
</g>
</svg>
