<?xml version="1.0" encoding="utf-8"?>
<!-- Generator: Adobe Illustrator 25.2.0, SVG Export Plug-In . SVG Version: 6.00 Build 0)  -->
<svg version="1.1" id="home" xmlns="http://www.w3.org/2000/svg" xmlns:xlink="http://www.w3.org/1999/xlink" x="0px" y="0px"
	 viewBox="0 0 32 32" style="enable-background:new 0 0 32 32;" xml:space="preserve">
<style type="text/css">
	.st0{fill:#29C4A0;}
</style>
<g>
	<g>
		<path class="st0" d="M26.4,8.7H5.6C4.2,8.7,3,9.9,3,11.3v6.5c0,1.4,1.2,2.6,2.6,2.6h1.3v-2.3c0-1.3,1-2.3,2.3-2.3h13.7
			c1.3,0,2.3,1,2.3,2.3v2.3h1.3c1.4,0,2.6-1.2,2.6-2.6v-6.5C29,9.9,27.8,8.7,26.4,8.7z M6.8,13.5c-0.7,0-1.2-0.5-1.2-1.2
			s0.5-1.2,1.2-1.2S8,11.6,8,12.3S7.5,13.5,6.8,13.5z"/>
		<path class="st0" d="M22.8,5.1H9.2c-0.5,0-1,0.4-1,1c0,0.5,0.4,1,1,1h13.6c0.5,0,1-0.4,1-1S23.3,5.1,22.8,5.1z M22.8,17.5H9.2
			c-0.4,0-0.7,0.3-0.7,0.6v7.5c0,0.7,0.6,1.3,1.3,1.3h12.3c0.7,0,1.3-0.6,1.3-1.3v-7.5C23.5,17.8,23.2,17.5,22.8,17.5z M16.3,24.8
			h-4.6c-0.4,0-0.8-0.4-0.8-0.8s0.4-0.8,0.8-0.8h4.6c0.4,0,0.8,0.4,0.8,0.8C17.1,24.4,16.8,24.8,16.3,24.8z M19.6,21.5h-7.8
			c-0.4,0-0.8-0.4-0.8-0.8s0.4-0.8,0.8-0.8h7.8c0.4,0,0.8,0.4,0.8,0.8C20.4,21.2,20,21.5,19.6,21.5z"/>
	</g>
</g>
</svg>
