<?xml version="1.0" encoding="utf-8"?>
<!-- Generator: Adobe Illustrator 25.1.0, SVG Export Plug-In . SVG Version: 6.00 Build 0)  -->
<svg version="1.1" id="home" xmlns="http://www.w3.org/2000/svg" xmlns:xlink="http://www.w3.org/1999/xlink" x="0px" y="0px"
	 viewBox="0 0 32 32" style="enable-background:new 0 0 32 32;" xml:space="preserve">
<style type="text/css">
	.st0{fill:#00A73C;}
</style>
<g>
	<g>
		<path class="st0" d="M9.2,4H4.6C3.7,4,3,4.7,3,5.5v8.9C3,15.3,3.7,16,4.6,16h4.7c0.9,0,1.6-0.7,1.6-1.6V5.5C10.8,4.7,10.1,4,9.2,4
			z M9.2,17.9H4.6c-0.9,0-1.6,0.7-1.6,1.6v7C3,27.3,3.7,28,4.6,28h4.7c0.9,0,1.6-0.7,1.6-1.6v-7C10.8,18.6,10.1,17.9,9.2,17.9z
			 M27.4,4H14.3c-0.9,0-1.6,0.7-1.6,1.6v12.4c0,0.9,0.7,1.6,1.6,1.6h13.2c0.9,0,1.6-0.7,1.6-1.6V5.5C29,4.7,28.3,4,27.4,4z
			 M27.4,21.4h-5c-0.9,0-1.6,0.7-1.6,1.6v3.1c0,0.9,0.7,1.6,1.6,1.6h5c0.9,0,1.6-0.7,1.6-1.6V23C29,22.1,28.3,21.4,27.4,21.4z"/>
		<path class="st0" d="M17.4,21.4h-3.1c-0.9,0-1.6,0.7-1.6,1.6v3.1c0,0.9,0.7,1.6,1.6,1.6h3.1c0.9,0,1.6-0.7,1.6-1.6V23
			C18.9,22.1,18.2,21.4,17.4,21.4z"/>
	</g>
</g>
</svg>
