<?xml version="1.0" encoding="utf-8"?>
<!-- Generator: Adobe Illustrator 25.1.0, SVG Export Plug-In . SVG Version: 6.00 Build 0)  -->
<svg version="1.1" id="home" xmlns="http://www.w3.org/2000/svg" xmlns:xlink="http://www.w3.org/1999/xlink" x="0px" y="0px"
	 viewBox="0 0 32 32" style="enable-background:new 0 0 32 32;" xml:space="preserve">
<style type="text/css">
	.st0{fill:#00A73C;}
</style>
<path class="st0" d="M26.3,7.8H19v-2c0-0.6-0.4-1-1-1h-4c-0.6,0-1,0.4-1,1v2H5.7c-2,0-3.7,1.6-3.7,3.7v12c0,2,1.6,3.7,3.7,3.7h20.7
	c2,0,3.7-1.6,3.7-3.7v-12C30,9.5,28.4,7.8,26.3,7.8z M12.6,20.8c0,0.6-0.4,1-1,1H6.4c-0.6,0-1-0.4-1-1v-5.3c0-0.6,0.4-1,1-1h5.3
	c0.6,0,1,0.4,1,1V20.8z M15,6.8h2v3.3c0,0.6-0.4,1-1,1s-1-0.4-1-1V6.8z M15.7,15.5H21c0.6,0,1,0.4,1,1c0,0.6-0.4,1-1,1h-5.3
	c-0.6,0-1-0.4-1-1C14.7,16,15.1,15.5,15.7,15.5z M25.3,20.8h-9.6c-0.6,0-1-0.4-1-1s0.4-1,1-1h9.6c0.6,0,1,0.4,1,1
	S25.9,20.8,25.3,20.8z"/>
</svg>
