<?xml version="1.0" encoding="utf-8"?>
<!-- Generator: Adobe Illustrator 25.2.3, SVG Export Plug-In . SVG Version: 6.00 Build 0)  -->
<svg version="1.1" id="home" xmlns="http://www.w3.org/2000/svg" xmlns:xlink="http://www.w3.org/1999/xlink" x="0px" y="0px"
	 viewBox="0 0 32 32" style="enable-background:new 0 0 32 32;" xml:space="preserve">
<style type="text/css">
	.st0{fill:#29C4A0;}
	.st1{fill:#FFFFFF;}
</style>
<g>
	<path class="st0" d="M48.6-27.1l-4.2-7h-8.3l-4.2,7l4.2,7h8.3L48.6-27.1z M42.2-25.9l-0.6,0.6v3.2H39v-3.2l-0.6-0.6v-2.6
		c0-0.7,0.6-1.3,1.3-1.3h0.6c-0.7,0-1.3-0.6-1.3-1.3s0.6-1.3,1.3-1.3c0.7,0,1.3,0.6,1.3,1.3s-0.6,1.3-1.3,1.3h0.6
		c0.7,0,1.3,0.6,1.3,1.3V-25.9z"/>
	<path class="st0" d="M36.1-4.8h8.3l4.2-7l-4.2-7h-8.3l-4.2,7L36.1-4.8z M36.2-14c0.7-0.6,2.2-0.3,3.3,0.7c0.3,0.2,0.5,0.5,0.6,0.7
		c0.1,0,0.2,0,0.4,0c0,0,0,0,0,0c0.2-0.2,0.4-0.5,0.6-0.7c1.1-1,2.6-1.3,3.3-0.7c0.7,0.6,0.4,1.9-0.8,2.9c-0.3,0.3-0.7,0.5-1.1,0.7
		c0,0,0,0.1,0,0.1c0.1,0,0.1,0.1,0.2,0.1c0.7,0.6,0.8,1.5,0.3,2c-0.6,0.5-1.6,0.4-2.3-0.2c-0.2-0.1-0.3-0.3-0.4-0.4
		c-0.1,0-0.2,0-0.3,0c-0.1,0.2-0.2,0.3-0.4,0.5c-0.7,0.6-1.7,0.7-2.3,0.2c-0.6-0.5-0.4-1.4,0.3-2c0.1-0.1,0.2-0.2,0.3-0.2
		c-0.4-0.2-0.7-0.4-1-0.7C35.8-12.1,35.5-13.4,36.2-14z"/>
	<path class="st0" d="M18.5-19.5l4.2,7H31l4.2-7l-4.2-7h-8.3L18.5-19.5z M23-17.6l3.2-3.2v-1.6c0-0.9,0.7-1.6,1.6-1.6
		s1.6,0.7,1.6,1.6h1.3v0.6h-1.3v2.2c0,0.9-0.5,1.8-1.3,2.2v2.9h-0.6V-17c-0.2,0.1-0.4,0.1-0.6,0.1v2.6h-0.6V-17L23-17.6z"/>
</g>
<rect class="st0" width="32" height="32"/>
<g>
	<path class="st1" d="M-18.7,24.2h-0.1c-0.1-0.6-0.3-1.2-0.5-1.8c-0.3-1-0.7-2-0.7-2.9c0-1.3,0.8-3.6,1.1-4.4
		c0.2-0.4,0.2-0.9,0.2-1.4c0-0.8-0.1-1.9-0.9-2.7l-0.1-0.1c-0.4-0.4-0.9-0.8-1.4-1c-0.5-0.3-1.1-0.4-1.7-0.4c-1,0-2,0.4-2.7,1.1
		c-0.3,0.3-0.6,0.7-0.8,1.2c0,0.1-0.1,0.2-0.1,0.3c-1.1-4.6-5.4-7.9-10.4-7.9c-5.1,0-9.4,3.4-10.5,8.1c-0.3,0-0.6-0.1-0.9-0.1
		c-3,0-5.4,2.4-5.4,5.4c0,1,0.3,2,0.8,2.9c-1.6,0.5-2.8,2-2.8,3.8h-2c-0.7,0-1.3,0.6-1.3,1.3v20.1h4.7h0.7h10.7h0.7h4h0.7h14.8h0.7
		h4.7V25.6C-17.4,24.8-18,24.2-18.7,24.2z M-25,12.3c0.1-0.3,0.3-0.5,0.5-0.8c0.7-0.7,1.9-0.9,2.8-0.5c0.4,0.2,0.8,0.5,1.1,0.8
		l0.1,0.1c0.3,0.4,0.5,0.9,0.5,1.7c0,0.3-0.1,0.6-0.2,0.9c-0.4,1.2-1.2,3.4-1.2,4.9c0,1.1,0.4,2.3,0.7,3.4c0.2,0.5,0.3,1,0.4,1.4
		h-1.2c-0.7,0-1.3,0.6-1.3,1.3h-6.7c-0.2-2.4-1.6-4.4-3.5-5.6c0.6-0.5,1.5-1,2.4-1.4c1.2-0.6,2.3-1.2,3-1.9
		C-26.6,15.6-25.5,13.5-25,12.3z M-37.5,35h14.8v4h-14.8V35z M-37.5,33.6v-6.7h14.8v6.7H-37.5z M-53.6,35h10.7v4h-10.7V35z
		 M-53.6,33.6v-6.7h10.7v6.7H-53.6z M-48.9,24.9c0-1.5,1.2-2.7,2.7-2.7c1.1,0,2,0.5,2.5,1.3c-0.3,0.6-0.4,1.3-0.5,2.1h-4.6
		C-48.9,25.4-48.9,25.1-48.9,24.9z M-43,22.2c-0.5-0.5-1-0.9-1.7-1.1c-0.1-0.3-0.2-0.6-0.2-0.9c0-1.5,1.2-2.7,2.7-2.7
		c1.2,0,2.2,0.8,2.6,1.9C-41,20-42.2,21-43,22.2z M-38.3,19c-0.5-1.6-2-2.8-3.8-2.8c0.3-4.1,1.6-7.4,4.2-10.7c0.1,0,0.3,0,0.4,0
		v13.4C-37.8,18.9-38.1,19-38.3,19z M-36.1,5.5c0.1,0,0.3,0,0.4,0c2.9,3.5,4.2,7.2,4.3,12c-1.1,0.6-2.2,1.2-2.8,1.8
		c-0.6-0.2-1.2-0.4-1.9-0.4C-36.1,18.9-36.1,5.5-36.1,5.5z M-27.4,14.1c-0.4,0.6-0.8,1.2-1.1,1.6c-0.3,0.3-0.9,0.7-1.6,1.1
		c-0.2-4.2-1.3-7.6-3.6-10.8C-30.2,7.1-27.6,10.3-27.4,14.1z M-39.9,6c-2,2.8-3.1,5.8-3.5,9.2c-0.6-1.1-1.5-2.1-2.7-2.6
		C-45.4,9.5-43,7-39.9,6z M-48.2,13.5c2,0,3.6,1.4,4,3.3c-1.2,0.7-1.9,2-1.9,3.4c0,0.2,0,0.5,0.1,0.7c0,0,0,0-0.1,0
		c-0.9,0-1.7,0.3-2.3,0.7c-0.7-0.8-1.6-1.3-2.7-1.4c-0.7-0.7-1.1-1.7-1.1-2.7C-52.2,15.3-50.4,13.5-48.2,13.5z M-51.6,21.6
		c0.8,0,1.6,0.4,2.1,1c-0.5,0.7-0.8,1.5-0.8,2.3c0,0.2,0,0.5,0.1,0.7h-3.4c0-0.5-0.3-0.9-0.7-1.1c0-0.1,0-0.1,0-0.2
		C-54.3,22.8-53.1,21.6-51.6,21.6z M-54.9,44.4h-2.7V25.6h2.7V44.4z M-53.6,44.4v-4h10.7v4H-53.6z M-38.8,44.4h-2.7V25.6h2.7V44.4z
		 M-38.8,24.2h-2.7c-0.5,0-1,0.3-1.2,0.8c0.6-2.7,3-4.8,5.9-4.8c3.1,0,5.7,2.4,6,5.4h-6.7C-37.5,24.8-38.1,24.2-38.8,24.2z
		 M-37.5,44.4v-4h14.8v4H-37.5z M-18.7,44.4h-2.7V25.6h2.7V44.4z"/>
	<path class="st1" d="M-46.2,28.3h-4c-1.1,0-2,0.9-2,2c0,1.1,0.9,2,2,2h0.7v-1.3h-0.7c-0.4,0-0.7-0.3-0.7-0.7s0.3-0.7,0.7-0.7h4
		c0.4,0,0.7,0.3,0.7,0.7s-0.3,0.7-0.7,0.7h-0.7v1.3h0.7c1.1,0,2-0.9,2-2C-44.2,29.2-45.1,28.3-46.2,28.3z"/>
	<path class="st1" d="M-34.8,21.6h-1.3c0,0.4-0.3,0.7-0.7,0.7c-0.4,0-0.7-0.3-0.7-0.7h-1.3c0,1.1,0.9,2,2,2
		C-35.7,23.6-34.8,22.7-34.8,21.6z"/>
	<path class="st1" d="M-48.2,16.9c1.1,0,2-0.9,2-2h-1.3c0,0.4-0.3,0.7-0.7,0.7c-0.4,0-0.7-0.3-0.7-0.7h-1.3
		C-50.2,16-49.3,16.9-48.2,16.9z"/>
	<path class="st1" d="M-21.4,14.2v-1.3c-0.6,0-0.7-0.6-0.7-0.7h-1.3C-23.4,13.2-22.7,14.2-21.4,14.2z"/>
</g>
<g>
	<g>
		<rect x="16.4" y="27.1" class="st1" width="9.5" height="2.6"/>
		<rect x="16.4" y="22" class="st1" width="9.5" height="4.3"/>
		<rect x="6.1" y="27.1" class="st1" width="6.9" height="2.6"/>
		<rect x="6.1" y="22" class="st1" width="6.9" height="4.3"/>
		<rect x="3.5" y="21.1" class="st1" width="1.7" height="12.1"/>
		<rect x="6.1" y="30.6" class="st1" width="6.9" height="2.6"/>
		<rect x="13.8" y="21.1" class="st1" width="1.7" height="12.1"/>
		<rect x="16.4" y="30.6" class="st1" width="9.5" height="2.6"/>
		<rect x="26.8" y="21.1" class="st1" width="1.7" height="12.1"/>
	</g>
	<g>
		<path class="st1" d="M9.1,20.7c0-1,0.8-1.7,1.7-1.7c0.7,0,1.3,0.3,1.6,0.8c-0.2,0.4-0.3,0.9-0.3,1.3h-3C9.1,21,9.1,20.8,9.1,20.7z
			"/>
		<path class="st1" d="M12.9,18.9c-0.3-0.3-0.7-0.6-1.1-0.7c-0.1-0.2-0.1-0.4-0.1-0.6c0-1,0.8-1.7,1.7-1.7c0.8,0,1.4,0.5,1.6,1.2
			C14.2,17.5,13.4,18.1,12.9,18.9z"/>
		<path class="st1" d="M15.9,16.9c-0.3-1-1.3-1.8-2.4-1.8c0.2-2.7,1-4.8,2.7-6.9c0.1,0,0.2,0,0.3,0v8.6
			C16.2,16.8,16.1,16.8,15.9,16.9z"/>
		<path class="st1" d="M17.3,8.1c0.1,0,0.2,0,0.3,0c1.8,2.3,2.7,4.6,2.8,7.7c-0.7,0.4-1.4,0.8-1.8,1.2c-0.4-0.1-0.8-0.2-1.2-0.3
			C17.3,16.8,17.3,8.1,17.3,8.1z"/>
		<path class="st1" d="M22.9,13.7c-0.2,0.4-0.5,0.8-0.7,1c-0.2,0.2-0.6,0.5-1,0.7c-0.1-2.7-0.8-4.9-2.3-7
			C21.1,9.2,22.8,11.2,22.9,13.7z"/>
		<path class="st1" d="M14.9,8.5c-1.3,1.8-2,3.7-2.3,6c-0.4-0.7-1-1.3-1.7-1.7C11.4,10.7,12.9,9.1,14.9,8.5z"/>
		<path class="st1" d="M7.4,18.5c0.5,0,1,0.2,1.3,0.7c-0.3,0.4-0.5,0.9-0.5,1.5c0,0.1,0,0.3,0,0.4H6.1c0-0.3-0.2-0.6-0.4-0.7
			c0,0,0-0.1,0-0.1C5.6,19.3,6.4,18.5,7.4,18.5z"/>
		<path class="st1" d="M16.9,17.6c-1.9,0-3.4,1.3-3.8,3.1c0.1-0.3,0.4-0.5,0.8-0.5h1.7c0.5,0,0.9,0.4,0.9,0.9h4.3
			C20.5,19.1,18.9,17.6,16.9,17.6z M16.9,19.8c-0.7,0-1.3-0.6-1.3-1.3h0.9c0,0.2,0.2,0.4,0.4,0.4c0.2,0,0.4-0.2,0.4-0.4h0.9
			C18.2,19.2,17.6,19.8,16.9,19.8z"/>
		<path class="st1" d="M12.1,15.4c-0.2-1.2-1.3-2.1-2.5-2.1c-1.4,0-2.6,1.2-2.6,2.6c0,0.7,0.2,1.3,0.7,1.7c0.7,0.1,1.3,0.4,1.7,0.9
			c0.4-0.3,0.9-0.5,1.5-0.5c0,0,0,0,0,0c0-0.1,0-0.3,0-0.4C10.8,16.7,11.3,15.9,12.1,15.4z M9.5,15.5c-0.7,0-1.3-0.6-1.3-1.3h0.9
			c0,0.2,0.2,0.4,0.4,0.4c0.2,0,0.4-0.2,0.4-0.4h0.9C10.8,14.9,10.2,15.5,9.5,15.5z"/>
		<path class="st1" d="M27.7,13.4c0-0.6-0.1-0.9-0.3-1.1l-0.1-0.1c-0.2-0.2-0.4-0.4-0.7-0.5c-0.6-0.3-1.3-0.2-1.8,0.3
			c-0.1,0.1-0.3,0.3-0.3,0.5c-0.3,0.8-1,2.1-1.7,2.8c-0.4,0.4-1.2,0.8-1.9,1.2c-0.5,0.3-1.1,0.6-1.5,0.9c1.3,0.8,2.1,2.1,2.3,3.6
			h4.3c0-0.5,0.4-0.9,0.9-0.9h0.7c-0.1-0.3-0.2-0.6-0.3-0.9c-0.2-0.7-0.5-1.4-0.5-2.2c0-1,0.5-2.4,0.8-3.2
			C27.6,13.8,27.7,13.6,27.7,13.4z M26.8,13.7c-0.9,0-1.3-0.7-1.3-1.3h0.9c0,0.1,0,0.4,0.4,0.4V13.7z"/>
	</g>
</g>
</svg>
