<?xml version="1.0" encoding="utf-8"?>
<!-- Generator: Adobe Illustrator 25.2.0, SVG Export Plug-In . SVG Version: 6.00 Build 0)  -->
<svg version="1.1" id="home" xmlns="http://www.w3.org/2000/svg" xmlns:xlink="http://www.w3.org/1999/xlink" x="0px" y="0px"
	 viewBox="0 0 32 32" style="enable-background:new 0 0 32 32;" xml:space="preserve">
<style type="text/css">
	.st0{fill:#29C4A0;}
</style>
<g>
	<g>
		<g>
			<g>
				<g>
					<path class="st0" d="M22.9,16.7c0-0.5-0.4-0.9-0.9-0.9h-8.5c-0.5,0-0.9,0.4-0.9,0.9s0.4,0.9,0.9,0.9H22
						C22.5,17.6,22.9,17.2,22.9,16.7z M4.6,23.4c-0.4,0-0.7-0.3-0.7-0.7V10.6c0-0.4,0.3-0.7,0.7-0.7h18.5c0.4,0,0.7,0.3,0.7,0.7v6.7
						l2.8-2.8V5.6c0-1.6-1.3-2.8-2.8-2.8h-20C2.3,2.8,1,4.1,1,5.6v17.8c0,1.6,1.3,2.8,2.8,2.8h11.6c0.1-0.5,0.3-0.9,0.6-1.2
						c0.3-0.3,1-1,1-1l0.6-0.6C17.6,23.4,4.6,23.4,4.6,23.4z M9.5,5.3h2.8c0.6,0,1.1,0.5,1.1,1.1s-0.5,1.1-1.1,1.1H9.5
						C8.9,7.5,8.4,7,8.4,6.4C8.5,5.8,8.9,5.3,9.5,5.3z M5.3,4.9c0.8,0,1.4,0.6,1.4,1.4S6.1,7.7,5.3,7.7S3.8,7.1,3.8,6.4
						C3.8,5.6,4.5,4.9,5.3,4.9z M28.1,20.1l-2-2c-0.1-0.1-0.4-0.1-0.5,0l-5.7,5.7c-0.1,0.1-0.1,0.4,0,0.5l2,2c0.1,0.1,0.4,0.1,0.5,0
						l5.7-5.7C28.2,20.5,28.2,20.2,28.1,20.1z M18.5,25.6c-0.1-0.1-0.4-0.1-0.5,0c-0.2,0.2-0.6,0.6-0.7,0.7s-0.1,0.1-0.1,0.2
						L17,28.8c0,0.2,0.2,0.4,0.4,0.4l2.2-0.3c0.1,0,0.2,0,0.2-0.1l0.7-0.7c0.1-0.1,0.1-0.4,0-0.5L18.5,25.6z M6.3,19.3
						c-0.5,0-0.9,0.4-0.9,0.9s0.4,0.9,0.9,0.9h12.8c0.5,0,0.9-0.4,0.9-0.9s-0.4-0.9-0.9-0.9H6.3z M22,12.2h-8.5
						c-0.5,0-0.9,0.4-0.9,0.9S13,14,13.5,14H22c0.5,0,0.9-0.4,0.9-0.9S22.5,12.2,22,12.2z"/>
					<path class="st0" d="M9.5,12H6.7C6.3,12,6,12.4,6,12.8v3.6C6,16.7,6.3,17,6.7,17h2.8c0.4,0,0.7-0.3,0.7-0.7v-3.6
						C10.2,12.4,9.9,12,9.5,12z M30.9,17.3l-2-2c-0.1-0.1-0.4-0.1-0.5,0l-1.1,1.1c-0.1,0.1-0.1,0.4,0,0.5l2,2c0.1,0.1,0.4,0.1,0.5,0
						l1.1-1.1C31,17.7,31,17.4,30.9,17.3z"/>
				</g>
			</g>
		</g>
	</g>
</g>
</svg>
