<?xml version="1.0" encoding="utf-8"?>
<!-- Generator: Adobe Illustrator 25.2.0, SVG Export Plug-In . SVG Version: 6.00 Build 0)  -->
<svg version="1.1" id="home" xmlns="http://www.w3.org/2000/svg" xmlns:xlink="http://www.w3.org/1999/xlink" x="0px" y="0px"
	 viewBox="0 0 32 32" style="enable-background:new 0 0 32 32;" xml:space="preserve">
<style type="text/css">
	.st0{fill:#29C4A0;}
</style>
<g>
	<path class="st0" d="M25.4,6.3C25.3,6,25,5.8,24.6,5.9c-1.7,0.2-3.3,0.8-4.9,1.6c0.3-1.7,1.7-3.6,2.1-4.3c0.2-0.2,0.2-0.6,0-0.8
		c-0.2-0.3-0.5-0.4-0.8-0.3c-1.3,0.5-2.6,1.3-3.5,2.4c-1-1-1.6-2.4-1.8-3.8V0.5c-0.1-0.2-0.2-0.4-0.5-0.5C15,0,14.8,0,14.6,0.2
		c-1,0.9-1.4,2.5-1.6,3.6c-1-0.6-2.1-1-3.2-1.5H9.7C9.3,2.2,9,2.3,8.8,2.6C8.6,2.9,8.7,3.2,9,3.4c1.2,0.9,2.1,2,2.7,3.4
		c-1.2-0.7-2.4-1.1-3.8-1.1c-0.4,0-0.7,0.3-0.7,0.6c0,0.3,0.1,0.5,0.3,0.6c1.1,0.7,1.8,1.8,2.2,3C8.9,9.7,8.1,9.6,7.3,9.5
		C7,9.5,6.7,9.7,6.6,10c-0.1,0.3,0.1,0.7,0.4,0.8c1.4,0.7,2.6,1.6,3.6,2.7l-0.2,0.1l-0.1,0.1c-0.3,0.2-0.5,0.5-0.8,0.7
		c0,0-0.1,0.1-0.1,0.1l-0.1,0.1l-0.1,0.1c-0.1,0.2-0.3,0.3-0.4,0.5c-0.5,0.6-0.8,1.3-1.1,2l0,0.1l0,0c-0.2,0.4-0.3,0.8-0.4,1.1v0.1
		c0,0.2-0.1,0.3-0.1,0.5v0.1C7,20.2,6.9,21.1,6.9,22c0,0.3,0,0.6,0,0.8c0,0.1,0,0.2,0,0.3c0,0,0,0.1,0,0.1c0,0.3,0.1,0.7,0.2,1.1
		c0,0.1,0,0.1,0,0.2c0.2,1.1,0.6,2.1,1.1,3L8.5,28l0.1,0.1c0.3,0.4,0.6,0.9,1,1.3c0.1,0.2,0.3,0.3,0.4,0.5c0.6,0.6,1.2,1,2,1.4
		c0.1,0,0.1,0.1,0.2,0.1c0.5,0.3,1.1,0.5,1.7,0.6c1.1,0.2,2.3,0.2,3.3-0.2c0.2-0.1,0.3-0.1,0.5-0.2c0.2-0.1,0.3-0.1,0.5-0.2l0.1-0.1
		c0.4-0.2,0.8-0.5,1.2-0.7c0.6-0.4,1.1-1,1.6-1.5c0.1-0.2,0.3-0.4,0.4-0.6l0.1-0.2l0.2-0.3c0.2-0.4,0.5-0.8,0.6-1.3v-0.1
		c0.2-0.6,0.4-1.2,0.6-1.8c0-0.1,0-0.2,0.1-0.2l0-0.1c0-0.3,0.1-0.6,0.1-0.9v-0.1c0-0.3,0.1-0.7,0.1-1v-0.2c0-0.1,0-0.2,0-0.3
		c0-0.4,0-0.8-0.1-1.2c-0.1-0.7-0.2-1.3-0.4-2l0-0.1c-0.1-0.4-0.3-0.9-0.5-1.3L22.1,17c-0.1-0.2-0.2-0.5-0.4-0.7l-0.1-0.2
		c-0.1-0.2-0.2-0.3-0.3-0.5c-0.4-0.5-0.8-1-1.2-1.5c1.1-1.2,2.4-2.2,3.8-3c0.3-0.1,0.5-0.5,0.4-0.8c-0.1-0.3-0.4-0.5-0.7-0.5
		c-0.6,0.1-1.2,0.2-1.8,0.3c0.4-0.8,2-2,2.7-2.5c0.3-0.2,0.6-0.4,0.8-0.6C25.5,6.9,25.5,6.6,25.4,6.3 M12.2,30.1l-0.1-0.1L11.9,30
		l-0.3-0.2l-0.2-0.1l-0.3-0.2l-0.1-0.1c-0.1-0.1-0.3-0.2-0.4-0.3c-0.1-0.1-0.3-0.3-0.4-0.4c-0.1-0.1-0.3-0.3-0.4-0.4
		c0,0-0.1-0.1-0.1-0.1l-0.2-0.3l1.3-1.1l2.8,2.2L12.2,30.1z M8.2,19.5c0-0.1,0.1-0.3,0.1-0.4V19c0-0.1,0.1-0.3,0.1-0.4l1.8,1.4
		l-2.4,1.9C7.9,21.1,8,20.4,8.2,19.5L8.2,19.5z M14.7,22.2L12,20l2.8-2.2l2.8,2.2L14.7,22.2z M11.1,20.8l2.8,2.2l-2.8,2.2L8.4,23
		L11.1,20.8z M14.8,28.2L12,26l2.8-2.2l2.8,2.2L14.8,28.2z M10.2,25.9l-1.1,0.9c-0.4-0.8-0.7-1.6-0.9-2.4L10.2,25.9z M18.3,25.2
		L15.6,23l2.8-2.2l2.8,2.2L18.3,25.2z M14.7,16.2L12,14c0.4-0.2,0.7-0.4,1.1-0.5c0.5-0.2,0.9-0.3,1.4-0.3h0.3h0H15h0.1
		c0.5,0,1.1,0.1,1.6,0.2l0.2,0.1c0.3,0.1,0.6,0.2,0.9,0.4L14.7,16.2z M9.8,16.1c0.1-0.2,0.2-0.3,0.4-0.5l0-0.1l0.1-0.1l0.1-0.1
		l0.1-0.1c0.2-0.2,0.4-0.4,0.6-0.6l2.9,2.3l-2.7,2.2L9,17.5C9.2,17,9.5,16.5,9.8,16.1 M14,30.8c-0.2,0-0.4-0.1-0.6-0.1l1.3-1
		l1.5,1.1C15.5,30.9,14.7,30.9,14,30.8 M17.7,30.2L17.7,30.2l-0.2,0l-1.8-1.4l2.8-2.2l1.8,1.4l-0.1,0.2c-0.2,0.3-0.4,0.5-0.7,0.7
		c-0.2,0.2-0.5,0.4-0.7,0.6C18.4,29.9,18.1,30.1,17.7,30.2 M22,24.2c0,0.1,0,0.1-0.1,0.2c-0.1,0.6-0.3,1.1-0.5,1.6l0,0.1
		c-0.1,0.3-0.3,0.7-0.5,1l-1.6-1.2l2.8-2.2c0,0.1,0,0.3-0.1,0.4V24.2z M22.2,22c0,0.1,0,0.1,0,0.3v0.1L19.2,20l2.3-1.8
		c0.1,0.3,0.2,0.5,0.3,0.8l0,0.1c0.2,0.6,0.3,1.2,0.3,1.8C22.2,21.3,22.2,21.6,22.2,22 M20.5,16.3c0.1,0.1,0.2,0.2,0.2,0.4l0.1,0.3
		c0,0.1,0.1,0.1,0.1,0.2l-2.6,2.1l-2.8-2.2l3.2-2.5l0.2,0.2C19.6,15.2,20.1,15.7,20.5,16.3"/>
</g>
</svg>
