<?xml version="1.0" encoding="utf-8"?>
<!-- Generator: Adobe Illustrator 25.2.0, SVG Export Plug-In . SVG Version: 6.00 Build 0)  -->
<svg version="1.1" id="home" xmlns="http://www.w3.org/2000/svg" xmlns:xlink="http://www.w3.org/1999/xlink" x="0px" y="0px"
	 viewBox="0 0 32 32" style="enable-background:new 0 0 32 32;" xml:space="preserve">
<style type="text/css">
	.st0{fill:#29C4A0;}
</style>
<g>
	<path class="st0" d="M1.6,12.2c0.3,0,0.6-0.3,0.6-0.6v-0.7c0.9,0.5,1.8,0.7,2.8,0.7h3.3l7.1,8.3l0,0c0.7,0.7,1.6,1,2.6,1
		c0.2,0,0.4-0.1,0.5-0.3c0.1-0.2,0.1-0.4,0-0.6l-3.1-8.4h8.8c0.5,0,0.9-0.4,1.1-0.8c0.2-0.5,0-1.1-0.4-1.4L24.5,9l2.2-3.2
		c0.1-0.2,0.1-0.5,0-0.7c-0.1-0.2-0.3-0.3-0.5-0.3h-0.9c-1.1,0-2.2,0.4-3,1.2l-1.8,0.7h-4.6l1.7-4.8c0-0.2,0-0.4-0.2-0.6
		C17.2,1.1,17,1.1,16.9,1c-1,0-1.9,0.4-2.6,1l-3.1,3.3c-0.6-0.4-1.3-0.6-2-0.6C7.8,4.6,6.6,5.4,6.1,6.6h-1C4,6.6,3,7.1,2.3,7.9V6.6
		C2.3,6.3,2,6,1.7,6C1.3,6,1,6.3,1,6.6c0,0,0,0,0,0v5C1,11.9,1.3,12.2,1.6,12.2"/>
	<path class="st0" d="M5.1,7.9h1.3c0.8,0.5,1.8,0.8,2.8,0.6c0.9,0,2.2,0,2.8-0.6h8.8h0.2l2-0.8C23,7.1,23.1,7,23.1,7
		c0.5-0.5,1.3-0.9,2-0.9l-2,2.7C23,9,23.1,9.4,23.3,9.6l1,0.7h-9.3v-0.2c-0.1-0.3-0.5-0.5-0.8-0.4c0,0,0,0,0,0
		c-0.2,0.1-0.4,0.3-0.4,0.6c0,0.1,0,0.1,0,0.2L14,11l0.2,0.6l2.9,7.9c-0.3-0.1-0.5-0.3-0.7-0.5l-6.4-7.4L9.5,11L9,10.4L8.6,9.9
		C8.4,9.7,8,9.7,7.8,9.9c-0.1,0.1-0.2,0.3-0.2,0.5H5.1c-0.9,0.1-1.8-0.2-2.4-0.8C3,8.6,4,7.9,5.1,7.9"/>
	<path class="st0" d="M9.2,6c0.4,0,0.8,0.1,1.2,0.3c0.2,0.1,0.4,0.2,0.5,0.3l0,0C11,6.7,11,6.8,11,6.9c0,0.1-0.2,0.2-0.7,0.3H9.6
		H9.2c-1.2,0-1.9-0.1-1.9-0.3c0-0.1,0.1-0.2,0.1-0.3C7.9,6.1,8.5,5.9,9.2,6"/>
	<path class="st0" d="M15.9,2.5l-1.5,4.2h-2.3c0-0.1-0.1-0.3-0.1-0.4l3.2-3.2C15.4,2.8,15.7,2.6,15.9,2.5"/>
	<path class="st0" d="M27.1,14.1c0-0.3,0.3-0.6,0.6-0.6l0,0c0.3,0.1,0.6,0.4,0.5,0.7c0,0.3-0.2,0.5-0.5,0.5
		C27.4,14.7,27.1,14.4,27.1,14.1"/>
	<path class="st0" d="M27.1,21.5c0-0.3,0.3-0.6,0.6-0.6c0,0,0,0,0,0c0.3,0,0.6,0.2,0.6,0.6c0,0,0,0,0,0c0,0.3-0.3,0.6-0.6,0.6
		c0,0,0,0,0,0C27.4,22.2,27.1,21.9,27.1,21.5L27.1,21.5"/>
	<path class="st0" d="M27.1,19.1c0-0.3,0.3-0.6,0.6-0.6c0,0,0,0,0,0c0.3,0,0.6,0.2,0.6,0.6c0,0,0,0,0,0c0,0.3-0.3,0.6-0.6,0.6
		c0,0,0,0,0,0C27.4,19.7,27.1,19.4,27.1,19.1L27.1,19.1"/>
	<path class="st0" d="M27.1,16.6c0-0.3,0.3-0.6,0.6-0.6l0,0c0.3,0,0.6,0.3,0.6,0.6c0,0,0,0,0,0c0,0.3-0.2,0.6-0.6,0.6c0,0,0,0,0,0
		C27.4,17.2,27.1,16.9,27.1,16.6C27.1,16.6,27.1,16.6,27.1,16.6"/>
	<path class="st0" d="M30.9,23.4c0,0.3-0.3,0.6-0.6,0.6h0c-0.3,0-0.6-0.3-0.6-0.6c0-0.3,0.3-0.6,0.6-0.6
		C30.6,22.8,30.9,23.1,30.9,23.4L30.9,23.4"/>
	<path class="st0" d="M30.9,18.5c0,0.3-0.3,0.6-0.6,0.6c-0.3-0.1-0.6-0.4-0.5-0.7c0-0.3,0.2-0.5,0.5-0.5
		C30.6,17.8,30.9,18.1,30.9,18.5L30.9,18.5"/>
	<path class="st0" d="M30.9,20.9c0,0.3-0.3,0.6-0.6,0.6c0,0,0,0,0,0c-0.3,0-0.6-0.2-0.6-0.6c0,0,0,0,0,0c0-0.3,0.3-0.6,0.6-0.6
		c0,0,0,0,0,0C30.6,20.3,30.9,20.6,30.9,20.9L30.9,20.9"/>
	<path class="st0" d="M29.6,15.9c0-0.3,0.3-0.6,0.6-0.6l0,0c0.3-0.1,0.7,0.2,0.7,0.5s-0.2,0.7-0.5,0.7c-0.1,0-0.2,0-0.2,0
		C29.9,16.6,29.6,16.3,29.6,15.9C29.6,16,29.6,16,29.6,15.9"/>
	<path class="st0" d="M25.9,20.9c-0.1,0.3-0.4,0.6-0.7,0.5c-0.3,0-0.5-0.2-0.5-0.5c-0.1-0.3,0.2-0.7,0.5-0.7
		c0.3-0.1,0.7,0.2,0.7,0.5C25.9,20.8,25.9,20.9,25.9,20.9"/>
	<path class="st0" d="M25.9,13.5c0.1,0.3-0.2,0.7-0.5,0.7s-0.7-0.2-0.7-0.5c0-0.1,0-0.2,0-0.2c0.1-0.3,0.4-0.6,0.7-0.5
		C25.6,13,25.8,13.2,25.9,13.5"/>
	<path class="st0" d="M25.9,15.9c0,0.3-0.3,0.6-0.6,0.7s-0.6-0.3-0.7-0.6c0-0.3,0.3-0.6,0.6-0.7c0,0,0,0,0,0
		C25.6,15.3,25.9,15.6,25.9,15.9"/>
	<path class="st0" d="M25.9,18.5c-0.1,0.3-0.4,0.6-0.7,0.5c-0.3,0-0.5-0.2-0.5-0.5c-0.1-0.3,0.2-0.7,0.5-0.7
		c0.3-0.1,0.7,0.2,0.7,0.5C25.9,18.3,25.9,18.4,25.9,18.5"/>
	<path class="st0" d="M23.4,21.5c0.1,0.3-0.2,0.7-0.5,0.7s-0.7-0.2-0.7-0.5c0-0.1,0-0.2,0-0.2c0.1-0.3,0.4-0.6,0.7-0.5
		C23.2,21.1,23.4,21.3,23.4,21.5"/>
	<path class="st0" d="M23.4,16.6c-0.1,0.3-0.4,0.6-0.7,0.5c-0.3,0-0.5-0.2-0.5-0.5c-0.1-0.3,0.2-0.7,0.5-0.7
		c0.3-0.1,0.7,0.2,0.7,0.5C23.4,16.4,23.4,16.5,23.4,16.6"/>
	<path class="st0" d="M23.4,19.1c0.1,0.3-0.2,0.7-0.5,0.7s-0.7-0.2-0.7-0.5c0-0.1,0-0.2,0-0.2c0.1-0.3,0.4-0.6,0.7-0.5
		C23.2,18.6,23.4,18.8,23.4,19.1"/>
	<path class="st0" d="M23.4,14.1c0,0.3-0.3,0.6-0.6,0.6s-0.6-0.3-0.6-0.6c0-0.3,0.3-0.6,0.6-0.6C23.1,13.5,23.4,13.7,23.4,14.1
		C23.4,14.1,23.4,14.1,23.4,14.1"/>
	<path class="st0" d="M20.9,15.9c0,0.3-0.3,0.6-0.6,0.6l0,0c-0.3-0.1-0.6-0.4-0.5-0.7c0-0.3,0.2-0.5,0.5-0.5
		C20.6,15.3,20.9,15.6,20.9,15.9"/>
	<path class="st0" d="M20.9,18.5c0,0.3-0.3,0.6-0.6,0.6c-0.3-0.1-0.6-0.4-0.5-0.7c0-0.3,0.2-0.5,0.5-0.5
		C20.6,17.8,20.9,18.1,20.9,18.5L20.9,18.5"/>
	<path class="st0" d="M20.9,20.9c0,0.3-0.3,0.6-0.6,0.6c0,0,0,0,0,0c-0.3,0-0.6-0.2-0.6-0.6c0,0,0,0,0,0c0-0.3,0.3-0.6,0.6-0.6
		c0,0,0,0,0,0C20.6,20.3,20.9,20.6,20.9,20.9L20.9,20.9"/>
	<path class="st0" d="M20.9,13.5c0,0.3-0.3,0.6-0.6,0.6l0,0c-0.3,0-0.6-0.3-0.6-0.6c0,0,0,0,0,0c0-0.3,0.2-0.6,0.6-0.6c0,0,0,0,0,0
		C20.6,12.8,20.9,13.1,20.9,13.5C20.9,13.5,20.9,13.5,20.9,13.5"/>
	<path class="st0" d="M18.4,14.1c0.3,0,0.6,0.3,0.6,0.6v0c0.1,0.3-0.2,0.7-0.5,0.7s-0.7-0.2-0.7-0.5c0-0.1,0-0.2,0-0.2
		C17.8,14.4,18.1,14.1,18.4,14.1C18.4,14.1,18.4,14.1,18.4,14.1"/>
	<path class="st0" d="M30.2,29.6h-4.4v-0.8c0.8-0.3,1.3-1.2,1.2-2c-0.2-1-0.7-1.9-1.4-2.7c-0.3-0.3-0.7-0.3-1,0c0,0,0,0,0,0
		c-0.7,0.8-1.2,1.7-1.4,2.8c-0.1,0.9,0.4,1.7,1.2,2v0.8h-5V29c0.8-0.3,1.3-1.2,1.2-2c-0.2-1-0.7-1.9-1.4-2.7c-0.3-0.3-0.7-0.3-0.9,0
		c0,0,0,0,0,0c-0.7,0.8-1.2,1.7-1.4,2.7c-0.1,0.9,0.4,1.7,1.3,2v0.8h-5V29c0.8-0.3,1.3-1.2,1.2-2c-0.2-1-0.7-1.9-1.5-2.7
		c-0.3-0.3-0.7-0.3-1,0c0,0,0,0,0,0c-0.7,0.8-1.2,1.7-1.4,2.7c-0.1,0.9,0.4,1.7,1.2,2v0.8H7.2V29c0.8-0.3,1.3-1.2,1.2-2
		c-0.2-1-0.7-1.9-1.4-2.7c-0.3-0.3-0.7-0.3-0.9,0c0,0,0,0,0,0C5.5,25,5,25.9,4.8,26.9c-0.1,0.9,0.4,1.7,1.2,2v0.8H1.6
		C1.3,29.7,1,30,1,30.3c0,0,0,0,0,0C1,30.7,1.3,31,1.6,31c0,0,0,0,0,0h28.6c0.3,0,0.6-0.3,0.6-0.6v0C30.9,30,30.6,29.7,30.2,29.6
		C30.3,29.7,30.3,29.7,30.2,29.6"/>
	<path class="st0" d="M25.9,26.9c0,0.4-0.3,0.8-0.6,0.8s-0.6-0.4-0.6-0.8c0.1-0.5,0.3-0.9,0.6-1.3C25.6,26.1,25.8,26.5,25.9,26.9"/>
	<path class="st0" d="M19.7,26.9c0,0.4-0.3,0.8-0.6,0.8c-0.3,0-0.6-0.4-0.6-0.8c0.1-0.5,0.3-0.9,0.6-1.3
		C19.3,26.1,19.6,26.5,19.7,26.9"/>
	<path class="st0" d="M13.4,26.9c0,0.4-0.3,0.8-0.6,0.8s-0.6-0.3-0.6-0.8c0.1-0.5,0.3-0.9,0.6-1.3C13.1,26.1,13.3,26.5,13.4,26.9"/>
	<path class="st0" d="M7.2,26.9c0,0.4-0.3,0.8-0.6,0.8c-0.3,0-0.6-0.4-0.6-0.8c0.1-0.5,0.3-0.9,0.6-1.3C6.9,26.1,7.1,26.5,7.2,26.9"
		/>
</g>
</svg>
